<svg width="180" height="22" viewBox="0 0 180 22" fill="none" xmlns="http://www.w3.org/2000/svg">
<path d="M5.94316 4.122C5.94316 2.44 6.37816 2.034 8.95916 2.034C13.4832 2.034 15.7452 4.064 15.7452 11.053C15.7452 16.476 14.7012 20.014 8.95916 20.014C6.37816 20.014 5.94316 19.608 5.94316 17.926V4.122ZM0.25916 2.034C2.49216 2.034 2.98516 2.556 2.98516 3.948V18.1C2.98516 19.492 2.49216 20.014 0.25916 20.014V21H9.88716C14.0052 21 19.1092 17.81 19.1092 11.024C19.1092 4.238 13.9472 1.048 9.65516 1.048H0.25916V2.034ZM27.5389 21V20.014C25.0449 20.014 24.4649 19.608 24.4649 18.506C24.4649 17.694 25.3059 15.954 25.7989 14.33H32.6429C33.4259 16.012 34.2669 18.332 34.2669 18.941C34.2669 19.782 34.1509 20.014 31.9759 20.014V21H40.0379V20.014C38.3559 20.014 37.6889 19.492 36.8189 17.259L30.4679 0.931999H29.4239L23.5659 16.94C22.9279 18.709 22.3189 20.014 19.9699 20.014V21H27.5389ZM26.2049 13.112L29.1049 5.485L32.1789 13.112H26.2049ZM40.2116 1.048V2.034C42.5026 2.034 42.9956 2.556 42.9956 3.948V18.1C42.9956 19.492 42.5026 20.014 40.2116 20.014V21H48.7376V20.014C46.4466 20.014 45.9536 19.492 45.9536 18.1V3.948C45.9536 2.556 46.4466 2.034 48.7376 2.034V1.048H40.2116ZM65.1809 13.547H64.2819C63.0059 19.144 59.9899 20.014 57.4959 20.014C56.0169 20.014 55.3789 19.492 55.3789 18.1V3.948C55.3789 2.556 55.8719 2.034 58.1629 2.034V1.048H49.8689V2.034C51.9279 2.034 52.4209 2.556 52.4209 3.948V18.1C52.4209 19.492 51.9279 20.014 49.8109 20.014V21H65.0069L65.1809 13.547ZM65.5481 2.034C67.0561 2.034 67.6071 2.266 68.3901 3.803L72.8271 12.532V18.1C72.8271 19.492 72.3341 20.014 69.8111 20.014V21H78.9171V20.014C76.2781 20.014 75.7851 19.492 75.7851 18.1V12.532L79.8741 4.789C80.9471 2.759 81.3241 2.034 83.4121 2.034V1.048H76.7711V2.034C78.5981 2.034 79.2361 2.382 79.2361 2.991C79.2361 4.47 75.7851 9.864 75.2341 11.082C74.7411 9.777 71.3481 4.006 71.3481 3.02C71.3481 2.324 72.0441 2.034 73.7841 2.034V1.048H65.5481V2.034ZM93.8036 18.1C93.8036 19.492 93.3106 20.014 91.1356 20.014V21H102.185C107.086 21 108.797 17.404 108.797 15.548C108.797 12.474 106.419 10.56 102.127 10.415V10.357C105.201 10.357 107.811 8.53 107.811 5.978C107.811 3.6 106.013 1.048 100.503 1.048H91.1356V2.034C93.3106 2.034 93.8036 2.556 93.8036 3.948V18.1ZM101.373 11.024C104.215 11.024 105.433 12.822 105.433 15.548C105.433 18.419 104.157 20.014 99.7486 20.014C97.3126 20.014 96.7616 19.521 96.7616 18.013V11.024H101.373ZM96.7616 10.038V3.484C96.7616 2.672 97.0226 2.034 99.4006 2.034C102.939 2.034 104.447 3.194 104.447 6.21C104.447 8.472 103.519 10.038 99.6326 10.038H96.7616ZM127.791 16.824C127.791 17.781 127.501 19.144 126.718 19.144C124.253 19.144 126.022 12.068 120.425 11.169V11.111C123.818 11.111 127.356 9.69 127.356 6.036C127.356 4.064 125.877 1.048 121.092 1.048H110.623V2.034C112.827 2.034 113.32 2.556 113.32 3.948V18.1C113.32 19.492 112.827 20.014 110.623 20.014V21H119.149V20.014C116.771 20.014 116.278 19.492 116.278 18.1V11.314H117.409C120.483 11.314 121.875 11.952 121.875 16.592C121.875 19.26 122.977 21.174 125.152 21.174C127.82 21.174 128.603 19.202 128.603 16.824H127.791ZM116.278 3.716C116.278 2.527 117.061 2.034 119.555 2.034C122.977 2.034 124.224 3.803 124.224 6.442C124.224 9.487 122.223 10.328 119.613 10.328C118.279 10.328 117.119 10.299 116.278 10.27V3.716ZM137.999 1.048H129.473V2.034C131.764 2.034 132.257 2.556 132.257 3.948V15.49C132.257 19.55 135.128 21.348 139.594 21.348C143.77 21.348 146.815 19.028 146.815 14.852V4.818C146.815 3.252 147.105 2.034 149.657 2.034V1.048H142.668V2.034C145.481 2.034 145.771 3.252 145.771 4.818V14.62C145.771 17.868 144.176 20.362 139.942 20.362C136.752 20.362 135.215 18.68 135.215 15.577V3.948C135.215 2.556 135.708 2.034 137.999 2.034V1.048ZM150.576 1.048V2.034C152.867 2.034 153.36 2.556 153.36 3.948V18.1C153.36 19.492 152.867 20.014 150.576 20.014V21H159.102V20.014C156.811 20.014 156.318 19.492 156.318 18.1V3.948C156.318 2.556 156.811 2.034 159.102 2.034V1.048H150.576ZM160.523 1.048V2.034C162.002 2.034 162.524 2.15 163.452 3.223V18.1C163.452 19.492 162.959 20.014 160.581 20.014V21H167.715V20.014C165.163 20.014 164.67 19.492 164.67 18.1V5.05H164.728L176.125 21.174H177.256V3.948C177.256 2.556 177.749 2.034 179.779 2.034V1.048H173.167V2.034C175.545 2.034 176.038 2.556 176.038 3.948V15.983H175.98L165.54 1.048H160.523Z" fill="black"/>
</svg>