<svg width="540" height="190" viewBox="0 0 540 190" fill="none" xmlns="http://www.w3.org/2000/svg">
<path d="M115.2 126.921L128.71 135.259C137.414 129.724 137.871 129.312 139.41 131.309C140.851 133.181 139.055 134.442 138.021 135.017L131.323 138.89L133.016 154.999L131.144 156.44L126.429 142.246L117.972 147.291L118.162 151.022L116.245 151.81L115.617 146.467L111.2 143.353L112.61 141.877L115.743 143.502L123.738 138.424L112.517 128.024L115.2 126.921Z" fill="#F32E08"/>
<path d="M406.2 123.921L419.71 132.259C428.414 126.724 428.871 126.312 430.41 128.309C431.851 130.181 430.055 131.442 429.021 132.017L422.323 135.89L424.016 151.999L422.144 153.44L417.429 139.246L408.972 144.291L409.162 148.022L407.245 148.81L406.617 143.467L402.2 140.353L403.61 138.877L406.743 140.502L414.738 135.424L403.517 125.024L406.2 123.921Z" fill="#F32E08"/>
<rect x="25" y="22" width="491" height="146" rx="37" stroke="#F32E08" stroke-width="6"/>
<rect x="3" y="3" width="534" height="184" rx="47" stroke="#F32E08" stroke-width="6"/>
<path d="M103.915 48.175C107.165 48.175 110.265 48.825 113.215 50.125C116.215 51.375 118.865 53.15 121.165 55.45C123.515 57.7 125.365 60.325 126.715 63.325C128.115 66.325 128.815 69.55 128.815 73C128.815 76.45 128.115 79.675 126.715 82.675C125.365 85.625 123.515 88.25 121.165 90.55C118.865 92.8 116.215 94.575 113.215 95.875C110.265 97.125 107.165 97.75 103.915 97.75C100.715 97.75 97.6148 97.125 94.6148 95.875C91.6148 94.575 88.9398 92.8 86.5898 90.55C84.2898 88.25 82.4398 85.625 81.0398 82.675C79.6898 79.675 79.0148 76.45 79.0148 73C79.0148 69.55 79.6898 66.325 81.0398 63.325C82.4398 60.325 84.2898 57.7 86.5898 55.45C88.9398 53.15 91.6148 51.375 94.6148 50.125C97.6148 48.825 100.715 48.175 103.915 48.175ZM102.19 51.325C100.04 51.325 98.2148 51.9 96.7148 53.05C95.2648 54.2 94.0898 55.725 93.1898 57.625C92.3398 59.475 91.7148 61.525 91.3148 63.775C90.9148 66.025 90.7148 68.25 90.7148 70.45C90.7148 73.25 90.9648 76.075 91.4648 78.925C92.0148 81.725 92.8648 84.325 94.0148 86.725C95.1648 89.075 96.6648 90.975 98.5148 92.425C100.415 93.875 102.74 94.6 105.49 94.6C107.69 94.6 109.515 94.05 110.965 92.95C112.465 91.8 113.665 90.3 114.565 88.45C115.465 86.6 116.115 84.55 116.515 82.3C116.915 80.05 117.115 77.825 117.115 75.625C117.115 72.825 116.84 70 116.29 67.15C115.79 64.3 114.94 61.675 113.74 59.275C112.59 56.875 111.065 54.95 109.165 53.5C107.265 52.05 104.94 51.325 102.19 51.325ZM184.495 61.675C184.495 64.575 183.77 67.1 182.32 69.25C180.92 71.4 179.095 73.075 176.845 74.275C174.645 75.425 172.295 76 169.795 76C168.495 76 167.37 75.775 166.42 75.325C165.52 74.875 164.945 74.525 164.695 74.275C164.545 74.125 164.42 73.875 164.32 73.525C164.22 73.125 164.17 72.775 164.17 72.475C164.17 72.125 164.27 71.95 164.47 71.95C164.87 72.05 165.32 72.125 165.82 72.175C166.37 72.225 166.92 72.25 167.47 72.25C169.27 72.25 170.745 71.375 171.895 69.625C173.045 67.825 173.62 65.525 173.62 62.725C173.62 60.775 173.27 58.975 172.57 57.325C171.92 55.625 170.97 54.25 169.72 53.2C168.52 52.15 167.095 51.625 165.445 51.625C164.645 51.625 163.87 51.675 163.12 51.775C162.42 51.825 161.97 52.05 161.77 52.45C161.62 52.85 161.52 53.35 161.47 53.95C161.47 54.55 161.47 55.25 161.47 56.05C161.47 56.2 161.47 56.35 161.47 56.5C161.47 56.65 161.47 56.8 161.47 56.95V86.35C161.47 86.5 161.47 86.675 161.47 86.875C161.47 87.025 161.47 87.175 161.47 87.325C161.47 88.625 161.495 89.775 161.545 90.775C161.595 91.775 161.745 92.6 161.995 93.25C162.145 93.55 162.52 93.8 163.12 94C163.77 94.2 164.445 94.35 165.145 94.45C165.895 94.5 166.42 94.55 166.72 94.6C166.92 94.85 166.995 95.3 166.945 95.95C166.945 96.6 166.87 97.05 166.72 97.3C165.32 97.15 163.595 97.025 161.545 96.925C159.545 96.825 157.77 96.775 156.22 96.775C154.67 96.775 152.92 96.825 150.97 96.925C149.02 97.025 147.32 97.15 145.87 97.3C145.72 97.05 145.62 96.6 145.57 95.95C145.57 95.3 145.67 94.85 145.87 94.6C146.22 94.55 146.745 94.5 147.445 94.45C148.145 94.35 148.82 94.2 149.47 94C150.12 93.8 150.495 93.55 150.595 93.25C150.895 92.5 151.07 91.55 151.12 90.4C151.17 89.25 151.195 87.9 151.195 86.35V59.425C151.195 57.825 151.17 56.475 151.12 55.375C151.07 54.225 150.895 53.275 150.595 52.525C150.495 52.175 150.12 51.925 149.47 51.775C148.82 51.625 148.145 51.525 147.445 51.475C146.745 51.425 146.22 51.4 145.87 51.4C145.67 51.15 145.57 50.675 145.57 49.975C145.62 49.275 145.72 48.825 145.87 48.625C147.52 48.725 149.295 48.8 151.195 48.85C153.095 48.85 154.82 48.85 156.37 48.85C157.92 48.85 159.645 48.825 161.545 48.775C163.495 48.675 165.545 48.625 167.695 48.625C170.745 48.625 173.545 49.15 176.095 50.2C178.645 51.2 180.67 52.675 182.17 54.625C183.72 56.525 184.495 58.875 184.495 61.675ZM211.216 49C212.766 49 214.516 48.975 216.466 48.925C218.466 48.825 220.166 48.7 221.566 48.55C221.716 48.75 221.791 49.2 221.791 49.9C221.841 50.55 221.766 51 221.566 51.25C221.266 51.25 220.741 51.3 219.991 51.4C219.291 51.45 218.616 51.575 217.966 51.775C217.366 51.925 216.991 52.175 216.841 52.525C216.591 53.175 216.441 54 216.391 55C216.341 56 216.316 57.15 216.316 58.45C216.316 58.6 216.316 58.775 216.316 58.975C216.316 59.125 216.316 59.275 216.316 59.425V86.35C216.316 86.5 216.316 86.675 216.316 86.875C216.316 87.025 216.316 87.175 216.316 87.325C216.316 88.625 216.341 89.775 216.391 90.775C216.441 91.775 216.591 92.6 216.841 93.25C216.991 93.55 217.366 93.8 217.966 94C218.616 94.2 219.291 94.35 219.991 94.45C220.741 94.5 221.266 94.55 221.566 94.6C221.766 94.85 221.841 95.3 221.791 95.95C221.791 96.6 221.716 97.05 221.566 97.3C220.166 97.15 218.441 97.025 216.391 96.925C214.391 96.825 212.616 96.775 211.066 96.775C209.516 96.775 207.766 96.825 205.816 96.925C203.866 97.025 202.166 97.15 200.716 97.3C200.566 97.05 200.466 96.6 200.416 95.95C200.416 95.3 200.516 94.85 200.716 94.6C201.066 94.55 201.591 94.5 202.291 94.45C202.991 94.35 203.666 94.2 204.316 94C204.966 93.8 205.341 93.55 205.441 93.25C205.741 92.5 205.916 91.55 205.966 90.4C206.016 89.25 206.041 87.9 206.041 86.35V59.425C206.041 57.825 206.016 56.475 205.966 55.375C205.916 54.225 205.741 53.275 205.441 52.525C205.341 52.175 204.966 51.925 204.316 51.775C203.666 51.575 202.991 51.45 202.291 51.4C201.591 51.3 201.066 51.25 200.716 51.25C200.516 51 200.416 50.55 200.416 49.9C200.466 49.2 200.566 48.75 200.716 48.55C202.166 48.7 203.891 48.825 205.891 48.925C207.891 48.975 209.666 49 211.216 49ZM247.26 49C248.56 49 249.935 48.975 251.385 48.925C252.835 48.825 254.135 48.7 255.285 48.55C255.985 49.95 257.16 51.8 258.81 54.1C260.51 56.35 262.46 58.875 264.66 61.675C266.91 64.425 269.26 67.275 271.71 70.225C274.16 73.175 276.51 76.05 278.76 78.85C278.86 78.6 278.91 78.175 278.91 77.575C278.91 76.925 278.91 76.35 278.91 75.85V62.125C278.91 61.175 278.86 60.05 278.76 58.75C278.71 57.4 278.635 56.15 278.535 55C278.435 53.85 278.285 53.1 278.085 52.75C277.885 52.3 277.36 51.975 276.51 51.775C275.66 51.525 274.785 51.375 273.885 51.325C273.035 51.225 272.46 51.175 272.16 51.175C272.11 51.175 272.035 50.825 271.935 50.125C271.885 49.375 271.96 48.825 272.16 48.475C273.86 48.525 275.335 48.625 276.585 48.775C277.885 48.925 279.385 49 281.085 49C282.685 49 284.26 48.925 285.81 48.775C287.36 48.625 288.86 48.525 290.31 48.475C290.41 48.675 290.46 49.1 290.46 49.75C290.51 50.35 290.41 50.85 290.16 51.25C289.96 51.25 289.41 51.275 288.51 51.325C287.61 51.375 286.685 51.525 285.735 51.775C284.835 51.975 284.285 52.35 284.085 52.9C283.985 53.25 283.86 53.975 283.71 55.075C283.61 56.175 283.535 57.375 283.485 58.675C283.435 59.925 283.41 61 283.41 61.9V86.8C283.41 88.95 283.435 90.725 283.485 92.125C283.585 93.525 283.66 95.175 283.71 97.075C283.61 97.175 283.285 97.25 282.735 97.3C282.235 97.35 281.935 97.375 281.835 97.375C281.485 97.375 281.11 97.225 280.71 96.925C280.36 96.575 279.985 96.15 279.585 95.65L249.735 58.975V85.525C249.735 86.825 249.81 88.2 249.96 89.65C250.16 91.05 250.36 92.025 250.56 92.575C250.76 93.025 251.31 93.4 252.21 93.7C253.11 94 254.01 94.225 254.91 94.375C255.81 94.475 256.36 94.525 256.56 94.525C256.81 94.875 256.91 95.375 256.86 96.025C256.86 96.625 256.81 97.05 256.71 97.3C255.26 97.2 253.76 97.075 252.21 96.925C250.66 96.775 249.085 96.7 247.485 96.7C245.785 96.7 244.285 96.775 242.985 96.925C241.735 97.075 240.26 97.2 238.56 97.3C238.36 96.95 238.285 96.425 238.335 95.725C238.435 94.975 238.51 94.6 238.56 94.6C238.86 94.6 239.435 94.525 240.285 94.375C241.185 94.225 242.035 94.025 242.835 93.775C243.685 93.475 244.21 93.1 244.41 92.65C244.66 92.1 244.86 91.1 245.01 89.65C245.21 88.15 245.31 86.7 245.31 85.3V59.35C245.31 58.35 245.21 57.175 245.01 55.825C244.81 54.475 244.46 53.45 243.96 52.75C243.76 52.4 243.31 52.125 242.61 51.925C241.96 51.725 241.285 51.575 240.585 51.475C239.935 51.325 239.46 51.25 239.16 51.25C239.06 51.25 238.96 51.05 238.86 50.65C238.81 50.25 238.785 49.825 238.785 49.375C238.835 48.925 238.91 48.65 239.01 48.55C240.16 48.6 241.385 48.7 242.685 48.85C244.035 48.95 245.56 49 247.26 49ZM317.174 49C318.724 49 320.474 48.975 322.424 48.925C324.424 48.825 326.124 48.7 327.524 48.55C327.674 48.75 327.749 49.2 327.749 49.9C327.799 50.55 327.724 51 327.524 51.25C327.224 51.25 326.699 51.3 325.949 51.4C325.249 51.45 324.574 51.575 323.924 51.775C323.324 51.925 322.949 52.175 322.799 52.525C322.549 53.175 322.399 54 322.349 55C322.299 56 322.274 57.15 322.274 58.45C322.274 58.6 322.274 58.775 322.274 58.975C322.274 59.125 322.274 59.275 322.274 59.425V86.35C322.274 86.5 322.274 86.675 322.274 86.875C322.274 87.025 322.274 87.175 322.274 87.325C322.274 88.625 322.299 89.775 322.349 90.775C322.399 91.775 322.549 92.6 322.799 93.25C322.949 93.55 323.324 93.8 323.924 94C324.574 94.2 325.249 94.35 325.949 94.45C326.699 94.5 327.224 94.55 327.524 94.6C327.724 94.85 327.799 95.3 327.749 95.95C327.749 96.6 327.674 97.05 327.524 97.3C326.124 97.15 324.399 97.025 322.349 96.925C320.349 96.825 318.574 96.775 317.024 96.775C315.474 96.775 313.724 96.825 311.774 96.925C309.824 97.025 308.124 97.15 306.674 97.3C306.524 97.05 306.424 96.6 306.374 95.95C306.374 95.3 306.474 94.85 306.674 94.6C307.024 94.55 307.549 94.5 308.249 94.45C308.949 94.35 309.624 94.2 310.274 94C310.924 93.8 311.299 93.55 311.399 93.25C311.699 92.5 311.874 91.55 311.924 90.4C311.974 89.25 311.999 87.9 311.999 86.35V59.425C311.999 57.825 311.974 56.475 311.924 55.375C311.874 54.225 311.699 53.275 311.399 52.525C311.299 52.175 310.924 51.925 310.274 51.775C309.624 51.575 308.949 51.45 308.249 51.4C307.549 51.3 307.024 51.25 306.674 51.25C306.474 51 306.374 50.55 306.374 49.9C306.424 49.2 306.524 48.75 306.674 48.55C308.124 48.7 309.849 48.825 311.849 48.925C313.849 48.975 315.624 49 317.174 49ZM369.359 48.175C372.609 48.175 375.709 48.825 378.659 50.125C381.659 51.375 384.309 53.15 386.609 55.45C388.959 57.7 390.809 60.325 392.159 63.325C393.559 66.325 394.259 69.55 394.259 73C394.259 76.45 393.559 79.675 392.159 82.675C390.809 85.625 388.959 88.25 386.609 90.55C384.309 92.8 381.659 94.575 378.659 95.875C375.709 97.125 372.609 97.75 369.359 97.75C366.159 97.75 363.059 97.125 360.059 95.875C357.059 94.575 354.384 92.8 352.034 90.55C349.734 88.25 347.884 85.625 346.484 82.675C345.134 79.675 344.459 76.45 344.459 73C344.459 69.55 345.134 66.325 346.484 63.325C347.884 60.325 349.734 57.7 352.034 55.45C354.384 53.15 357.059 51.375 360.059 50.125C363.059 48.825 366.159 48.175 369.359 48.175ZM367.634 51.325C365.484 51.325 363.659 51.9 362.159 53.05C360.709 54.2 359.534 55.725 358.634 57.625C357.784 59.475 357.159 61.525 356.759 63.775C356.359 66.025 356.159 68.25 356.159 70.45C356.159 73.25 356.409 76.075 356.909 78.925C357.459 81.725 358.309 84.325 359.459 86.725C360.609 89.075 362.109 90.975 363.959 92.425C365.859 93.875 368.184 94.6 370.934 94.6C373.134 94.6 374.959 94.05 376.409 92.95C377.909 91.8 379.109 90.3 380.009 88.45C380.909 86.6 381.559 84.55 381.959 82.3C382.359 80.05 382.559 77.825 382.559 75.625C382.559 72.825 382.284 70 381.734 67.15C381.234 64.3 380.384 61.675 379.184 59.275C378.034 56.875 376.509 54.95 374.609 53.5C372.709 52.05 370.384 51.325 367.634 51.325ZM419.271 49C420.571 49 421.946 48.975 423.396 48.925C424.846 48.825 426.146 48.7 427.296 48.55C427.996 49.95 429.171 51.8 430.821 54.1C432.521 56.35 434.471 58.875 436.671 61.675C438.921 64.425 441.271 67.275 443.721 70.225C446.171 73.175 448.521 76.05 450.771 78.85C450.871 78.6 450.921 78.175 450.921 77.575C450.921 76.925 450.921 76.35 450.921 75.85V62.125C450.921 61.175 450.871 60.05 450.771 58.75C450.721 57.4 450.646 56.15 450.546 55C450.446 53.85 450.296 53.1 450.096 52.75C449.896 52.3 449.371 51.975 448.521 51.775C447.671 51.525 446.796 51.375 445.896 51.325C445.046 51.225 444.471 51.175 444.171 51.175C444.121 51.175 444.046 50.825 443.946 50.125C443.896 49.375 443.971 48.825 444.171 48.475C445.871 48.525 447.346 48.625 448.596 48.775C449.896 48.925 451.396 49 453.096 49C454.696 49 456.271 48.925 457.821 48.775C459.371 48.625 460.871 48.525 462.321 48.475C462.421 48.675 462.471 49.1 462.471 49.75C462.521 50.35 462.421 50.85 462.171 51.25C461.971 51.25 461.421 51.275 460.521 51.325C459.621 51.375 458.696 51.525 457.746 51.775C456.846 51.975 456.296 52.35 456.096 52.9C455.996 53.25 455.871 53.975 455.721 55.075C455.621 56.175 455.546 57.375 455.496 58.675C455.446 59.925 455.421 61 455.421 61.9V86.8C455.421 88.95 455.446 90.725 455.496 92.125C455.596 93.525 455.671 95.175 455.721 97.075C455.621 97.175 455.296 97.25 454.746 97.3C454.246 97.35 453.946 97.375 453.846 97.375C453.496 97.375 453.121 97.225 452.721 96.925C452.371 96.575 451.996 96.15 451.596 95.65L421.746 58.975V85.525C421.746 86.825 421.821 88.2 421.971 89.65C422.171 91.05 422.371 92.025 422.571 92.575C422.771 93.025 423.321 93.4 424.221 93.7C425.121 94 426.021 94.225 426.921 94.375C427.821 94.475 428.371 94.525 428.571 94.525C428.821 94.875 428.921 95.375 428.871 96.025C428.871 96.625 428.821 97.05 428.721 97.3C427.271 97.2 425.771 97.075 424.221 96.925C422.671 96.775 421.096 96.7 419.496 96.7C417.796 96.7 416.296 96.775 414.996 96.925C413.746 97.075 412.271 97.2 410.571 97.3C410.371 96.95 410.296 96.425 410.346 95.725C410.446 94.975 410.521 94.6 410.571 94.6C410.871 94.6 411.446 94.525 412.296 94.375C413.196 94.225 414.046 94.025 414.846 93.775C415.696 93.475 416.221 93.1 416.421 92.65C416.671 92.1 416.871 91.1 417.021 89.65C417.221 88.15 417.321 86.7 417.321 85.3V59.35C417.321 58.35 417.221 57.175 417.021 55.825C416.821 54.475 416.471 53.45 415.971 52.75C415.771 52.4 415.321 52.125 414.621 51.925C413.971 51.725 413.296 51.575 412.596 51.475C411.946 51.325 411.471 51.25 411.171 51.25C411.071 51.25 410.971 51.05 410.871 50.65C410.821 50.25 410.796 49.825 410.796 49.375C410.846 48.925 410.921 48.65 411.021 48.55C412.171 48.6 413.396 48.7 414.696 48.85C416.046 48.95 417.571 49 419.271 49Z" fill="#F32E08"/>
<line x1="27" y1="139" x2="235" y2="139" stroke="#F32E08" stroke-width="2" stroke-dasharray="2 2"/>
<line x1="307" y1="139" x2="519" y2="139" stroke="#F32E08" stroke-width="2" stroke-dasharray="2 2"/>
<path d="M237.55 127.64C238.046 127.64 238.606 127.632 239.23 127.616C239.854 127.584 240.39 127.544 240.838 127.496C240.886 127.56 240.91 127.704 240.91 127.928C240.926 128.136 240.902 128.28 240.838 128.36C240.742 128.36 240.582 128.376 240.358 128.408C240.134 128.424 239.918 128.464 239.71 128.528C239.518 128.576 239.398 128.656 239.35 128.768C239.254 129.008 239.198 129.312 239.182 129.68C239.166 130.032 239.158 130.464 239.158 130.976V135.272C239.158 136.056 239.19 136.768 239.254 137.408C239.318 138.032 239.478 138.656 239.734 139.28C240.038 139.968 240.406 140.472 240.838 140.792C241.286 141.096 241.734 141.296 242.182 141.392C242.63 141.472 243.006 141.512 243.31 141.512C243.934 141.512 244.534 141.32 245.11 140.936C245.686 140.536 246.158 139.912 246.526 139.064C246.91 138.216 247.102 137.112 247.102 135.752V131.768C247.102 131.256 247.07 130.712 247.006 130.136C246.942 129.56 246.862 129.152 246.766 128.912C246.702 128.752 246.55 128.64 246.31 128.576C246.07 128.496 245.822 128.44 245.566 128.408C245.31 128.376 245.126 128.36 245.014 128.36C244.95 128.28 244.918 128.136 244.918 127.928C244.934 127.704 244.966 127.56 245.014 127.496C245.574 127.544 246.062 127.584 246.478 127.616C246.91 127.632 247.398 127.64 247.942 127.64C248.454 127.64 248.918 127.624 249.334 127.592C249.75 127.544 250.198 127.512 250.678 127.496C250.726 127.56 250.75 127.704 250.75 127.928C250.766 128.136 250.742 128.28 250.678 128.36C250.582 128.36 250.398 128.376 250.126 128.408C249.854 128.424 249.59 128.472 249.334 128.552C249.094 128.616 248.942 128.736 248.878 128.912C248.782 129.152 248.702 129.56 248.638 130.136C248.574 130.696 248.542 131.232 248.542 131.744V136.304C248.542 137.888 248.238 139.192 247.63 140.216C247.038 141.24 246.254 142 245.278 142.496C244.318 142.976 243.27 143.216 242.134 143.216C241.158 143.216 240.23 143.048 239.35 142.712C238.47 142.376 237.75 141.856 237.19 141.152C236.742 140.576 236.406 139.872 236.182 139.04C235.974 138.192 235.87 137.16 235.87 135.944V130.976C235.87 130.464 235.862 130.032 235.846 129.68C235.83 129.312 235.774 129.008 235.678 128.768C235.646 128.656 235.526 128.576 235.318 128.528C235.11 128.464 234.894 128.424 234.67 128.408C234.462 128.376 234.302 128.36 234.19 128.36C234.126 128.28 234.094 128.136 234.094 127.928C234.11 127.704 234.142 127.56 234.19 127.496C234.654 127.544 235.206 127.584 235.846 127.616C236.486 127.632 237.054 127.64 237.55 127.64ZM263.519 127.376C264.287 127.376 265.119 127.416 266.015 127.496C266.911 127.56 267.703 127.664 268.391 127.808C268.407 127.872 268.455 128.08 268.535 128.432C268.615 128.768 268.703 129.152 268.799 129.584C268.911 130 268.999 130.384 269.063 130.736C269.143 131.072 269.183 131.28 269.183 131.36C269.183 131.424 269.119 131.496 268.991 131.576C268.863 131.656 268.727 131.696 268.583 131.696C268.519 131.696 268.455 131.696 268.391 131.696C268.343 131.68 268.295 131.648 268.247 131.6C268.183 131.376 268.063 131.088 267.887 130.736C267.727 130.368 267.479 130.008 267.143 129.656C266.807 129.288 266.359 128.984 265.799 128.744C265.255 128.504 264.567 128.384 263.735 128.384C262.631 128.384 261.743 128.688 261.071 129.296C260.399 129.888 259.911 130.672 259.607 131.648C259.303 132.608 259.151 133.64 259.151 134.744C259.151 135.656 259.247 136.552 259.439 137.432C259.631 138.312 259.927 139.104 260.327 139.808C260.743 140.512 261.271 141.08 261.911 141.512C262.551 141.928 263.311 142.136 264.191 142.136C264.895 142.136 265.479 142.04 265.943 141.848C266.407 141.656 266.791 141.416 267.095 141.128C267.431 140.824 267.719 140.456 267.959 140.024C268.199 139.592 268.383 139.2 268.511 138.848C268.655 138.496 268.735 138.288 268.751 138.224C269.087 138.224 269.359 138.312 269.567 138.488C269.567 138.552 269.535 138.768 269.471 139.136C269.407 139.488 269.319 139.888 269.207 140.336C269.111 140.768 269.007 141.16 268.895 141.512C268.799 141.848 268.703 142.032 268.607 142.064C267.871 142.32 267.103 142.568 266.303 142.808C265.503 143.048 264.559 143.168 263.471 143.168C262.367 143.168 261.327 142.976 260.351 142.592C259.375 142.208 258.519 141.672 257.783 140.984C257.047 140.296 256.463 139.48 256.031 138.536C255.615 137.592 255.407 136.568 255.407 135.464C255.407 134.328 255.615 133.272 256.031 132.296C256.463 131.32 257.047 130.464 257.783 129.728C258.535 128.992 259.399 128.416 260.375 128C261.351 127.584 262.399 127.376 263.519 127.376ZM279.987 139.688C279.987 139.688 279.987 139.704 279.987 139.736C279.987 139.816 279.987 139.976 279.987 140.216C279.987 140.44 279.995 140.68 280.011 140.936C280.043 141.192 280.091 141.392 280.155 141.536C280.235 141.696 280.435 141.816 280.755 141.896C281.075 141.976 281.387 142.016 281.691 142.016H283.227C283.675 142.016 284.083 141.952 284.451 141.824C284.835 141.696 285.155 141.504 285.411 141.248C285.667 140.992 285.891 140.688 286.083 140.336C286.275 139.984 286.475 139.544 286.683 139.016C286.715 138.92 286.819 138.872 286.995 138.872C287.123 138.872 287.267 138.888 287.427 138.92C287.587 138.952 287.683 138.984 287.715 139.016C287.571 139.432 287.411 139.888 287.235 140.384C287.059 140.88 286.899 141.36 286.755 141.824C286.611 142.288 286.507 142.696 286.443 143.048H278.355C277.523 143.048 276.795 143.048 276.171 143.048C275.547 143.064 275.155 143.072 274.995 143.072C274.947 142.992 274.915 142.848 274.899 142.64C274.899 142.432 274.931 142.288 274.995 142.208C275.107 142.192 275.275 142.176 275.499 142.16C275.723 142.128 275.939 142.088 276.147 142.04C276.355 141.976 276.475 141.896 276.507 141.8C276.603 141.56 276.659 141.256 276.675 140.888C276.691 140.52 276.699 140.088 276.699 139.592V130.976C276.699 130.464 276.691 130.032 276.675 129.68C276.659 129.312 276.603 129.008 276.507 128.768C276.475 128.656 276.355 128.576 276.147 128.528C275.939 128.464 275.723 128.424 275.499 128.408C275.275 128.376 275.107 128.36 274.995 128.36C274.931 128.28 274.899 128.136 274.899 127.928C274.915 127.704 274.947 127.56 274.995 127.496C275.459 127.544 276.011 127.584 276.651 127.616C277.291 127.632 277.859 127.64 278.355 127.64C278.851 127.64 279.411 127.632 280.035 127.616C280.675 127.584 281.219 127.544 281.667 127.496C281.715 127.56 281.739 127.704 281.739 127.928C281.755 128.136 281.731 128.28 281.667 128.36C281.571 128.36 281.403 128.376 281.163 128.408C280.939 128.424 280.723 128.464 280.515 128.528C280.323 128.576 280.203 128.656 280.155 128.768C280.075 128.976 280.027 129.24 280.011 129.56C279.995 129.88 279.987 130.248 279.987 130.664C279.987 130.712 279.987 130.768 279.987 130.832C279.987 130.88 279.987 130.928 279.987 130.976V139.688ZM293.726 139.856L298.718 128.384C298.798 128.224 298.926 128.04 299.102 127.832C299.294 127.608 299.454 127.496 299.582 127.496C299.854 127.496 300.022 127.544 300.086 127.64L304.886 139.52C305.046 139.872 305.166 140.184 305.246 140.456C305.326 140.712 305.422 140.968 305.534 141.224C305.678 141.544 305.878 141.776 306.134 141.92C306.406 142.064 306.662 142.152 306.902 142.184C307.158 142.216 307.318 142.232 307.382 142.232C307.446 142.344 307.478 142.504 307.478 142.712C307.494 142.92 307.478 143.048 307.43 143.096C306.966 143.064 306.454 143.024 305.894 142.976C305.334 142.928 304.798 142.904 304.286 142.904C303.934 142.904 303.534 142.92 303.086 142.952C302.638 142.968 302.206 142.992 301.79 143.024C301.39 143.056 301.046 143.08 300.758 143.096C300.726 143.048 300.702 142.96 300.686 142.832C300.67 142.688 300.67 142.552 300.686 142.424C300.702 142.296 300.726 142.232 300.758 142.232C300.966 142.232 301.206 142.2 301.478 142.136C301.766 142.056 301.99 141.944 302.15 141.8C302.278 141.688 302.342 141.56 302.342 141.416C302.342 141.368 302.294 141.224 302.198 140.984C302.102 140.728 301.982 140.424 301.838 140.072C301.71 139.72 301.574 139.376 301.43 139.04C301.302 138.688 301.19 138.4 301.094 138.176C300.998 137.952 300.95 137.84 300.95 137.84C300.95 137.84 300.926 137.824 300.878 137.792C300.846 137.76 300.814 137.744 300.782 137.744C300.446 137.728 300.118 137.72 299.798 137.72C299.494 137.72 299.214 137.72 298.958 137.72C298.878 137.72 298.798 137.72 298.718 137.72C298.654 137.72 298.59 137.72 298.526 137.72C298.046 137.72 297.622 137.72 297.254 137.72C296.902 137.72 296.518 137.728 296.102 137.744C296.038 137.744 295.982 137.784 295.934 137.864C295.934 137.864 295.878 137.984 295.766 138.224C295.67 138.464 295.558 138.736 295.43 139.04C295.302 139.344 295.19 139.608 295.094 139.832C294.982 140.12 294.862 140.44 294.734 140.792C294.622 141.144 294.566 141.36 294.566 141.44C294.566 141.632 294.702 141.792 294.974 141.92C295.246 142.032 295.526 142.112 295.814 142.16C296.118 142.208 296.302 142.232 296.366 142.232C296.446 142.312 296.478 142.464 296.462 142.688C296.446 142.912 296.422 143.048 296.39 143.096C295.99 143.048 295.598 143.008 295.214 142.976C294.83 142.928 294.382 142.904 293.87 142.904C293.326 142.904 292.862 142.928 292.478 142.976C292.11 143.008 291.718 143.048 291.302 143.096C291.254 143.048 291.222 142.928 291.206 142.736C291.19 142.544 291.206 142.384 291.254 142.256C291.35 142.256 291.51 142.224 291.734 142.16C291.974 142.08 292.206 141.984 292.43 141.872C292.67 141.76 292.83 141.64 292.91 141.512C293.118 141.192 293.27 140.92 293.366 140.696C293.462 140.456 293.582 140.176 293.726 139.856ZM298.43 131.84L296.438 136.448C296.438 136.448 296.438 136.464 296.438 136.496C296.454 136.512 296.47 136.52 296.486 136.52C296.726 136.536 297.046 136.552 297.446 136.568C297.846 136.584 298.174 136.592 298.43 136.592C298.798 136.592 299.11 136.592 299.366 136.592C299.638 136.576 299.95 136.56 300.302 136.544C300.334 136.544 300.35 136.528 300.35 136.496C300.366 136.464 300.374 136.448 300.374 136.448L298.43 131.84Z" fill="#F32E08"/>
</svg>
