<svg width="526" height="255" viewBox="0 0 526 255" fill="none" xmlns="http://www.w3.org/2000/svg">
<path d="M118.538 99.95C120.738 99.95 122.763 100.175 124.613 100.625C126.513 101.025 128.588 101.475 130.838 101.975C131.038 103.925 131.188 105.875 131.288 107.825C131.438 109.775 131.563 111.875 131.663 114.125C131.463 114.425 131.188 114.575 130.838 114.575C130.838 114.575 130.813 114.575 130.763 114.575C130.563 114.575 130.163 114.575 129.563 114.575C129.013 114.525 128.713 114.35 128.663 114.05C128.513 113 128.188 111.85 127.688 110.6C127.188 109.35 126.513 108.15 125.663 107C124.813 105.85 123.813 104.9 122.663 104.15C121.563 103.4 120.313 103.025 118.913 103.025C117.963 103.025 117.013 103.225 116.063 103.625C115.113 103.975 114.313 104.625 113.663 105.575C113.013 106.475 112.688 107.75 112.688 109.4C112.688 110.9 113.263 112.375 114.413 113.825C115.563 115.225 116.938 116.55 118.538 117.8C120.188 119 121.763 120.1 123.263 121.1C124.863 122.15 126.488 123.3 128.138 124.55C129.838 125.75 131.238 127.275 132.338 129.125C133.488 130.925 134.063 133.275 134.063 136.175C134.063 138.825 133.288 141.175 131.738 143.225C130.188 145.275 128.188 146.875 125.738 148.025C123.338 149.175 120.788 149.75 118.088 149.75C115.938 149.75 113.613 149.55 111.113 149.15C108.663 148.75 106.338 148.3 104.138 147.8C103.888 146.7 103.638 145.3 103.388 143.6C103.138 141.9 102.913 140.275 102.713 138.725C102.563 137.125 102.463 136 102.413 135.35C102.563 135.1 102.888 134.875 103.388 134.675C103.938 134.475 104.313 134.375 104.513 134.375C105.113 134.375 105.438 134.55 105.488 134.9C105.638 135.9 106.038 137.075 106.688 138.425C107.338 139.725 108.163 141.025 109.163 142.325C110.213 143.575 111.413 144.625 112.763 145.475C114.163 146.275 115.688 146.675 117.338 146.675C119.238 146.675 120.888 146.15 122.288 145.1C123.738 144 124.463 142.15 124.463 139.55C124.463 138.25 124.063 137.025 123.263 135.875C122.513 134.675 121.563 133.575 120.413 132.575C119.263 131.575 118.063 130.65 116.813 129.8C115.563 128.95 114.488 128.225 113.588 127.625C111.838 126.425 110.138 125.2 108.488 123.95C106.838 122.7 105.488 121.225 104.438 119.525C103.438 117.825 102.938 115.7 102.938 113.15C102.938 110.6 103.713 108.35 105.263 106.4C106.813 104.4 108.788 102.825 111.188 101.675C113.588 100.525 116.038 99.95 118.538 99.95ZM190.449 113.675C190.449 116.575 189.724 119.1 188.274 121.25C186.874 123.4 185.049 125.075 182.799 126.275C180.599 127.425 178.249 128 175.749 128C174.449 128 173.324 127.775 172.374 127.325C171.474 126.875 170.899 126.525 170.649 126.275C170.499 126.125 170.374 125.875 170.274 125.525C170.174 125.125 170.124 124.775 170.124 124.475C170.124 124.125 170.224 123.95 170.424 123.95C170.824 124.05 171.274 124.125 171.774 124.175C172.324 124.225 172.874 124.25 173.424 124.25C175.224 124.25 176.699 123.375 177.849 121.625C178.999 119.825 179.574 117.525 179.574 114.725C179.574 112.775 179.224 110.975 178.524 109.325C177.874 107.625 176.924 106.25 175.674 105.2C174.474 104.15 173.049 103.625 171.399 103.625C170.599 103.625 169.824 103.675 169.074 103.775C168.374 103.825 167.924 104.05 167.724 104.45C167.574 104.85 167.474 105.35 167.424 105.95C167.424 106.55 167.424 107.25 167.424 108.05C167.424 108.2 167.424 108.35 167.424 108.5C167.424 108.65 167.424 108.8 167.424 108.95V138.35C167.424 138.5 167.424 138.675 167.424 138.875C167.424 139.025 167.424 139.175 167.424 139.325C167.424 140.625 167.449 141.775 167.499 142.775C167.549 143.775 167.699 144.6 167.949 145.25C168.099 145.55 168.474 145.8 169.074 146C169.724 146.2 170.399 146.35 171.099 146.45C171.849 146.5 172.374 146.55 172.674 146.6C172.874 146.85 172.949 147.3 172.899 147.95C172.899 148.6 172.824 149.05 172.674 149.3C171.274 149.15 169.549 149.025 167.499 148.925C165.499 148.825 163.724 148.775 162.174 148.775C160.624 148.775 158.874 148.825 156.924 148.925C154.974 149.025 153.274 149.15 151.824 149.3C151.674 149.05 151.574 148.6 151.524 147.95C151.524 147.3 151.624 146.85 151.824 146.6C152.174 146.55 152.699 146.5 153.399 146.45C154.099 146.35 154.774 146.2 155.424 146C156.074 145.8 156.449 145.55 156.549 145.25C156.849 144.5 157.024 143.55 157.074 142.4C157.124 141.25 157.149 139.9 157.149 138.35V111.425C157.149 109.825 157.124 108.475 157.074 107.375C157.024 106.225 156.849 105.275 156.549 104.525C156.449 104.175 156.074 103.925 155.424 103.775C154.774 103.625 154.099 103.525 153.399 103.475C152.699 103.425 152.174 103.4 151.824 103.4C151.624 103.15 151.524 102.675 151.524 101.975C151.574 101.275 151.674 100.825 151.824 100.625C153.474 100.725 155.249 100.8 157.149 100.85C159.049 100.85 160.774 100.85 162.324 100.85C163.874 100.85 165.599 100.825 167.499 100.775C169.449 100.675 171.499 100.625 173.649 100.625C176.699 100.625 179.499 101.15 182.049 102.2C184.599 103.2 186.624 104.675 188.124 106.625C189.674 108.525 190.449 110.875 190.449 113.675ZM231.72 100.175C234.97 100.175 238.07 100.825 241.02 102.125C244.02 103.375 246.67 105.15 248.97 107.45C251.32 109.7 253.17 112.325 254.52 115.325C255.92 118.325 256.62 121.55 256.62 125C256.62 128.45 255.92 131.675 254.52 134.675C253.17 137.625 251.32 140.25 248.97 142.55C246.67 144.8 244.02 146.575 241.02 147.875C238.07 149.125 234.97 149.75 231.72 149.75C228.52 149.75 225.42 149.125 222.42 147.875C219.42 146.575 216.745 144.8 214.395 142.55C212.095 140.25 210.245 137.625 208.845 134.675C207.495 131.675 206.82 128.45 206.82 125C206.82 121.55 207.495 118.325 208.845 115.325C210.245 112.325 212.095 109.7 214.395 107.45C216.745 105.15 219.42 103.375 222.42 102.125C225.42 100.825 228.52 100.175 231.72 100.175ZM229.995 103.325C227.845 103.325 226.02 103.9 224.52 105.05C223.07 106.2 221.895 107.725 220.995 109.625C220.145 111.475 219.52 113.525 219.12 115.775C218.72 118.025 218.52 120.25 218.52 122.45C218.52 125.25 218.77 128.075 219.27 130.925C219.82 133.725 220.67 136.325 221.82 138.725C222.97 141.075 224.47 142.975 226.32 144.425C228.22 145.875 230.545 146.6 233.295 146.6C235.495 146.6 237.32 146.05 238.77 144.95C240.27 143.8 241.47 142.3 242.37 140.45C243.27 138.6 243.92 136.55 244.32 134.3C244.72 132.05 244.92 129.825 244.92 127.625C244.92 124.825 244.645 122 244.095 119.15C243.595 116.3 242.745 113.675 241.545 111.275C240.395 108.875 238.87 106.95 236.97 105.5C235.07 104.05 232.745 103.325 229.995 103.325ZM295.5 100.625C298.55 100.625 301.275 101.125 303.675 102.125C306.075 103.125 307.975 104.625 309.375 106.625C310.775 108.575 311.475 111.025 311.475 113.975C311.475 115.475 311.125 116.9 310.425 118.25C309.775 119.55 308.925 120.75 307.875 121.85C306.825 122.9 305.725 123.775 304.575 124.475C303.475 125.125 302.475 125.575 301.575 125.825C303.375 128.225 305.075 130.475 306.675 132.575C308.275 134.625 309.575 136.3 310.575 137.6C311.625 138.85 312.15 139.475 312.15 139.475C313.95 141.775 315.75 143.425 317.55 144.425C319.35 145.425 320.875 146.05 322.125 146.3C323.375 146.5 324.1 146.6 324.3 146.6C324.5 146.85 324.55 147.35 324.45 148.1C324.4 148.8 324.35 149.2 324.3 149.3C323.25 149.35 321.75 149.4 319.8 149.45C317.9 149.55 316.2 149.6 314.7 149.6C311.9 149.6 309.55 149 307.65 147.8C305.8 146.6 304.425 145.375 303.525 144.125L291.675 128.225C291.675 128.225 291.525 128.05 291.225 127.7C290.925 127.3 290.625 127.1 290.325 127.1H289.275V138.35C289.275 138.5 289.275 138.675 289.275 138.875C289.275 139.025 289.275 139.175 289.275 139.325C289.275 140.625 289.3 141.775 289.35 142.775C289.4 143.775 289.55 144.6 289.8 145.25C289.95 145.55 290.325 145.8 290.925 146C291.575 146.2 292.25 146.35 292.95 146.45C293.7 146.5 294.225 146.55 294.525 146.6C294.725 146.85 294.8 147.3 294.75 147.95C294.75 148.6 294.675 149.05 294.525 149.3C293.125 149.15 291.4 149.025 289.35 148.925C287.35 148.825 285.575 148.775 284.025 148.775C282.475 148.775 280.725 148.825 278.775 148.925C276.825 149.025 275.125 149.15 273.675 149.3C273.525 149.05 273.425 148.6 273.375 147.95C273.375 147.3 273.475 146.85 273.675 146.6C274.025 146.55 274.55 146.5 275.25 146.45C275.95 146.35 276.625 146.2 277.275 146C277.925 145.8 278.3 145.55 278.4 145.25C278.7 144.5 278.875 143.55 278.925 142.4C278.975 141.25 279 139.9 279 138.35V111.425C279 109.825 278.975 108.475 278.925 107.375C278.875 106.225 278.7 105.275 278.4 104.525C278.3 104.175 277.925 103.925 277.275 103.775C276.625 103.625 275.95 103.525 275.25 103.475C274.55 103.425 274.025 103.4 273.675 103.4C273.475 103.15 273.375 102.675 273.375 101.975C273.425 101.275 273.525 100.825 273.675 100.625C275.325 100.725 277.1 100.8 279 100.85C280.9 100.85 282.625 100.85 284.175 100.85C285.725 100.85 287.45 100.825 289.35 100.775C291.3 100.675 293.35 100.625 295.5 100.625ZM300.6 114.725C300.6 112.775 300.4 110.975 300 109.325C299.6 107.625 298.875 106.25 297.825 105.2C296.775 104.15 295.25 103.625 293.25 103.625C292.45 103.625 291.675 103.675 290.925 103.775C290.225 103.825 289.775 104.05 289.575 104.45C289.425 104.85 289.325 105.35 289.275 105.95C289.275 106.55 289.275 107.25 289.275 108.05C289.275 108.2 289.275 108.35 289.275 108.5C289.275 108.65 289.275 108.8 289.275 108.95V124.25H292.575C293.975 124.25 295.275 123.85 296.475 123.05C297.725 122.25 298.725 121.125 299.475 119.675C300.225 118.225 300.6 116.575 300.6 114.725ZM366.787 100.85C368.537 100.85 369.862 100.75 370.762 100.55C371.712 100.3 372.437 100.075 372.937 99.875C373.437 99.625 373.912 99.5 374.362 99.5C374.662 99.5 374.837 99.525 374.887 99.575C374.987 99.575 375.112 99.625 375.262 99.725L377.212 113.15C377.112 113.25 376.812 113.375 376.312 113.525C375.862 113.625 375.462 113.675 375.112 113.675C374.662 113.675 374.412 113.55 374.362 113.3C374.112 111.7 373.612 110.2 372.862 108.8C372.112 107.4 371.187 106.275 370.087 105.425C368.987 104.525 367.812 104.075 366.562 104.075H359.737V138.35C359.737 139.9 359.762 141.25 359.812 142.4C359.862 143.55 360.037 144.5 360.337 145.25C360.487 145.55 360.862 145.8 361.462 146C362.112 146.2 362.787 146.35 363.487 146.45C364.187 146.5 364.687 146.55 364.987 146.6C365.187 146.85 365.262 147.3 365.212 147.95C365.212 148.6 365.137 149.05 364.987 149.3C363.587 149.15 361.887 149.025 359.887 148.925C357.887 148.825 356.112 148.775 354.562 148.775C353.012 148.775 351.262 148.825 349.312 148.925C347.362 149.025 345.662 149.15 344.212 149.3C344.062 149.05 343.962 148.6 343.912 147.95C343.912 147.3 344.012 146.85 344.212 146.6C344.562 146.55 345.062 146.5 345.712 146.45C346.412 146.35 347.087 146.2 347.737 146C348.387 145.8 348.762 145.55 348.862 145.25C349.162 144.5 349.337 143.55 349.387 142.4C349.437 141.25 349.462 139.9 349.462 138.35V104.075H342.637C341.387 104.075 340.212 104.525 339.112 105.425C338.012 106.275 337.087 107.4 336.337 108.8C335.587 110.2 335.087 111.7 334.837 113.3C334.787 113.55 334.537 113.675 334.087 113.675C333.737 113.675 333.312 113.625 332.812 113.525C332.362 113.375 332.087 113.25 331.987 113.15L333.937 99.725C334.087 99.625 334.187 99.575 334.237 99.575C334.337 99.525 334.537 99.5 334.837 99.5C335.287 99.5 335.762 99.625 336.262 99.875C336.762 100.075 337.462 100.3 338.362 100.55C339.312 100.75 340.662 100.85 342.412 100.85H366.787ZM409.397 99.95C411.597 99.95 413.622 100.175 415.472 100.625C417.372 101.025 419.447 101.475 421.697 101.975C421.897 103.925 422.047 105.875 422.147 107.825C422.297 109.775 422.422 111.875 422.522 114.125C422.322 114.425 422.047 114.575 421.697 114.575C421.697 114.575 421.672 114.575 421.622 114.575C421.422 114.575 421.022 114.575 420.422 114.575C419.872 114.525 419.572 114.35 419.522 114.05C419.372 113 419.047 111.85 418.547 110.6C418.047 109.35 417.372 108.15 416.522 107C415.672 105.85 414.672 104.9 413.522 104.15C412.422 103.4 411.172 103.025 409.772 103.025C408.822 103.025 407.872 103.225 406.922 103.625C405.972 103.975 405.172 104.625 404.522 105.575C403.872 106.475 403.547 107.75 403.547 109.4C403.547 110.9 404.122 112.375 405.272 113.825C406.422 115.225 407.797 116.55 409.397 117.8C411.047 119 412.622 120.1 414.122 121.1C415.722 122.15 417.347 123.3 418.997 124.55C420.697 125.75 422.097 127.275 423.197 129.125C424.347 130.925 424.922 133.275 424.922 136.175C424.922 138.825 424.147 141.175 422.597 143.225C421.047 145.275 419.047 146.875 416.597 148.025C414.197 149.175 411.647 149.75 408.947 149.75C406.797 149.75 404.472 149.55 401.972 149.15C399.522 148.75 397.197 148.3 394.997 147.8C394.747 146.7 394.497 145.3 394.247 143.6C393.997 141.9 393.772 140.275 393.572 138.725C393.422 137.125 393.322 136 393.272 135.35C393.422 135.1 393.747 134.875 394.247 134.675C394.797 134.475 395.172 134.375 395.372 134.375C395.972 134.375 396.297 134.55 396.347 134.9C396.497 135.9 396.897 137.075 397.547 138.425C398.197 139.725 399.022 141.025 400.022 142.325C401.072 143.575 402.272 144.625 403.622 145.475C405.022 146.275 406.547 146.675 408.197 146.675C410.097 146.675 411.747 146.15 413.147 145.1C414.597 144 415.322 142.15 415.322 139.55C415.322 138.25 414.922 137.025 414.122 135.875C413.372 134.675 412.422 133.575 411.272 132.575C410.122 131.575 408.922 130.65 407.672 129.8C406.422 128.95 405.347 128.225 404.447 127.625C402.697 126.425 400.997 125.2 399.347 123.95C397.697 122.7 396.347 121.225 395.297 119.525C394.297 117.825 393.797 115.7 393.797 113.15C393.797 110.6 394.572 108.35 396.122 106.4C397.672 104.4 399.647 102.825 402.047 101.675C404.447 100.525 406.897 99.95 409.397 99.95Z" fill="#0D9D63"/>
<path d="M62.0293 105.241L62.1542 118.428L42.3029 128.82L41.5834 133.243L62.7002 126.236L62.7532 139.865L58.5671 143.27L59.02 146.068L65.9319 142.652L72.5053 146.9L73.3794 144.318L68.5753 140.358L68.5223 126.729L89.5376 131.509L88.7863 127.755L68.0482 118.479L67.553 104.778C67.354 104.14 66.4995 102.881 64.6726 102.947C62.8458 103.013 62.1492 104.504 62.0293 105.241Z" stroke="#0D9D63" stroke-width="2"/>
<path d="M460.029 105.241L460.154 118.428L440.303 128.82L439.583 133.243L460.7 126.236L460.753 139.865L456.567 143.27L457.02 146.068L463.932 142.652L470.505 146.9L471.379 144.318L466.575 140.358L466.522 126.729L487.538 131.509L486.786 127.755L466.048 118.479L465.553 104.778C465.354 104.14 464.499 102.881 462.673 102.947C460.846 103.013 460.149 104.504 460.029 105.241Z" stroke="#0D9D63" stroke-width="2"/>
<line x1="47" y1="171" x2="480" y2="171" stroke="#0D9D63" stroke-width="2"/>
<line x1="50" y1="78" x2="476" y2="78" stroke="#0D9D63" stroke-width="2"/>
<path d="M502 127.5C502 156.124 476.511 183.007 433.018 202.907C389.789 222.687 329.859 235 263.5 235C197.141 235 137.211 222.687 93.9819 202.907C50.4893 183.007 25 156.124 25 127.5C25 98.8756 50.4893 71.993 93.9819 52.0927C137.211 32.3131 197.141 20 263.5 20C329.859 20 389.789 32.3131 433.018 52.0927C476.511 71.993 502 98.8756 502 127.5Z" stroke="#0D9D63" stroke-width="6"/>
<path d="M523 127.5C523 160.911 494.971 192.021 447.66 214.957C400.557 237.792 335.273 252 263 252C190.727 252 125.443 237.792 78.3396 214.957C31.0292 192.021 3 160.911 3 127.5C3 94.0892 31.0292 62.979 78.3396 40.0434C125.443 17.208 190.727 3 263 3C335.273 3 400.557 17.208 447.66 40.0434C494.971 62.979 523 94.0892 523 127.5Z" stroke="#0D9D63" stroke-width="6"/>
<path d="M243.165 202.488C243.101 202.76 242.997 203.128 242.853 203.592C242.709 204.04 242.557 204.504 242.397 204.984C242.253 205.464 242.117 205.896 241.989 206.28C241.861 206.648 241.781 206.888 241.749 207H233.205C233.141 206.936 233.093 206.864 233.061 206.784C233.045 206.704 233.029 206.632 233.013 206.568C233.621 205.896 234.189 205.272 234.717 204.696C235.245 204.12 235.765 203.512 236.277 202.872C236.805 202.232 237.341 201.488 237.885 200.64C238.429 199.792 238.789 199.024 238.965 198.336C239.141 197.632 239.229 197.016 239.229 196.488C239.229 195.976 239.109 195.52 238.869 195.12C238.629 194.704 238.317 194.376 237.933 194.136C237.565 193.896 237.165 193.776 236.733 193.776C236.189 193.776 235.725 193.904 235.341 194.16C234.973 194.416 234.677 194.68 234.453 194.952C234.245 195.224 234.109 195.392 234.045 195.456C233.981 195.456 233.877 195.408 233.733 195.312C233.605 195.2 233.541 195.056 233.541 194.88C233.637 194.656 233.813 194.384 234.069 194.064C234.325 193.728 234.653 193.4 235.053 193.08C235.453 192.76 235.917 192.496 236.445 192.288C236.973 192.064 237.565 191.952 238.221 191.952C238.973 191.952 239.653 192.104 240.261 192.408C240.885 192.712 241.381 193.16 241.749 193.752C242.117 194.328 242.301 195.04 242.301 195.888C242.301 196.608 242.141 197.312 241.821 198C241.501 198.672 241.069 199.328 240.525 199.968C239.885 200.704 239.189 201.472 238.437 202.272C237.701 203.072 236.933 203.848 236.133 204.6H240.165C240.645 204.6 241.013 204.488 241.269 204.264C241.541 204.024 241.757 203.744 241.917 203.424C242.077 203.088 242.221 202.784 242.349 202.512C242.381 202.416 242.493 202.368 242.685 202.368C242.765 202.368 242.845 202.376 242.925 202.392C243.021 202.408 243.101 202.44 243.165 202.488ZM254.763 192.36C255.707 192.36 256.563 192.648 257.331 193.224C258.099 193.8 258.707 194.632 259.155 195.72C259.619 196.808 259.851 198.136 259.851 199.704C259.851 201.064 259.619 202.304 259.155 203.424C258.707 204.528 258.099 205.416 257.331 206.088C256.563 206.744 255.707 207.072 254.763 207.072C253.835 207.072 252.971 206.784 252.171 206.208C251.371 205.632 250.731 204.792 250.251 203.688C249.771 202.584 249.531 201.256 249.531 199.704C249.531 198.68 249.667 197.728 249.939 196.848C250.227 195.952 250.611 195.168 251.091 194.496C251.571 193.824 252.123 193.304 252.747 192.936C253.387 192.552 254.059 192.36 254.763 192.36ZM254.787 193.344C254.291 193.344 253.875 193.64 253.539 194.232C253.219 194.808 252.979 195.592 252.819 196.584C252.659 197.576 252.579 198.688 252.579 199.92C252.579 201.136 252.675 202.208 252.867 203.136C253.075 204.064 253.347 204.792 253.683 205.32C254.019 205.832 254.387 206.088 254.787 206.088C255.299 206.088 255.699 205.784 255.987 205.176C256.275 204.552 256.483 203.728 256.611 202.704C256.739 201.664 256.803 200.536 256.803 199.32C256.803 197.48 256.627 196.024 256.275 194.952C255.939 193.88 255.443 193.344 254.787 193.344ZM276.392 202.488C276.328 202.76 276.224 203.128 276.08 203.592C275.936 204.04 275.784 204.504 275.624 204.984C275.48 205.464 275.344 205.896 275.216 206.28C275.088 206.648 275.008 206.888 274.976 207H266.432C266.368 206.936 266.32 206.864 266.288 206.784C266.272 206.704 266.256 206.632 266.24 206.568C266.848 205.896 267.416 205.272 267.944 204.696C268.472 204.12 268.992 203.512 269.504 202.872C270.032 202.232 270.568 201.488 271.112 200.64C271.656 199.792 272.016 199.024 272.192 198.336C272.368 197.632 272.456 197.016 272.456 196.488C272.456 195.976 272.336 195.52 272.096 195.12C271.856 194.704 271.544 194.376 271.16 194.136C270.792 193.896 270.392 193.776 269.96 193.776C269.416 193.776 268.952 193.904 268.568 194.16C268.2 194.416 267.904 194.68 267.68 194.952C267.472 195.224 267.336 195.392 267.272 195.456C267.208 195.456 267.104 195.408 266.96 195.312C266.832 195.2 266.768 195.056 266.768 194.88C266.864 194.656 267.04 194.384 267.296 194.064C267.552 193.728 267.88 193.4 268.28 193.08C268.68 192.76 269.144 192.496 269.672 192.288C270.2 192.064 270.792 191.952 271.448 191.952C272.2 191.952 272.88 192.104 273.488 192.408C274.112 192.712 274.608 193.16 274.976 193.752C275.344 194.328 275.528 195.04 275.528 195.888C275.528 196.608 275.368 197.312 275.048 198C274.728 198.672 274.296 199.328 273.752 199.968C273.112 200.704 272.416 201.472 271.664 202.272C270.928 203.072 270.16 203.848 269.36 204.6H273.392C273.872 204.6 274.24 204.488 274.496 204.264C274.768 204.024 274.984 203.744 275.144 203.424C275.304 203.088 275.448 202.784 275.576 202.512C275.608 202.416 275.72 202.368 275.912 202.368C275.992 202.368 276.072 202.376 276.152 202.392C276.248 202.408 276.328 202.44 276.392 202.488ZM286.765 203.592V195.696C286.765 195.184 286.725 194.856 286.645 194.712C286.581 194.552 286.453 194.472 286.261 194.472C286.149 194.472 285.901 194.528 285.517 194.64C285.149 194.736 284.837 194.856 284.581 195C284.373 194.888 284.269 194.736 284.269 194.544C284.269 194.544 284.269 194.536 284.269 194.52C284.269 194.472 284.269 194.424 284.269 194.376C284.269 194.328 284.285 194.296 284.317 194.28C285.213 193.896 286.061 193.528 286.861 193.176C287.677 192.808 288.349 192.512 288.877 192.288C289.405 192.048 289.677 191.928 289.693 191.928H289.741C289.821 191.928 289.885 191.992 289.933 192.12C289.981 192.232 290.013 192.32 290.029 192.384C290.029 192.384 289.989 192.56 289.909 192.912C289.845 193.264 289.813 193.816 289.813 194.568V203.592C289.813 204.088 289.821 204.52 289.837 204.888C289.853 205.256 289.909 205.56 290.005 205.8C290.053 205.896 290.173 205.976 290.365 206.04C290.573 206.104 290.789 206.152 291.013 206.184C291.237 206.2 291.397 206.216 291.493 206.232C291.557 206.312 291.581 206.456 291.565 206.664C291.565 206.872 291.541 207.016 291.493 207.096C291.045 207.048 290.517 207.008 289.909 206.976C289.317 206.944 288.773 206.928 288.277 206.928C287.781 206.928 287.237 206.944 286.645 206.976C286.053 207.008 285.525 207.048 285.061 207.096C285.013 207.016 284.981 206.872 284.965 206.664C284.965 206.456 284.997 206.312 285.061 206.232C285.173 206.216 285.341 206.2 285.565 206.184C285.789 206.152 286.005 206.104 286.213 206.04C286.421 205.976 286.541 205.896 286.573 205.8C286.669 205.56 286.725 205.256 286.741 204.888C286.757 204.52 286.765 204.088 286.765 203.592Z" fill="#0D9D63"/>
<path d="M230.55 43.64C231.046 43.64 231.606 43.632 232.23 43.616C232.854 43.584 233.39 43.544 233.838 43.496C233.886 43.56 233.91 43.704 233.91 43.928C233.926 44.136 233.902 44.28 233.838 44.36C233.742 44.36 233.582 44.376 233.358 44.408C233.134 44.424 232.918 44.464 232.71 44.528C232.518 44.576 232.398 44.656 232.35 44.768C232.254 45.008 232.198 45.312 232.182 45.68C232.166 46.032 232.158 46.464 232.158 46.976V51.272C232.158 52.056 232.19 52.768 232.254 53.408C232.318 54.032 232.478 54.656 232.734 55.28C233.038 55.968 233.406 56.472 233.838 56.792C234.286 57.096 234.734 57.296 235.182 57.392C235.63 57.472 236.006 57.512 236.31 57.512C236.934 57.512 237.534 57.32 238.11 56.936C238.686 56.536 239.158 55.912 239.526 55.064C239.91 54.216 240.102 53.112 240.102 51.752V47.768C240.102 47.256 240.07 46.712 240.006 46.136C239.942 45.56 239.862 45.152 239.766 44.912C239.702 44.752 239.55 44.64 239.31 44.576C239.07 44.496 238.822 44.44 238.566 44.408C238.31 44.376 238.126 44.36 238.014 44.36C237.95 44.28 237.918 44.136 237.918 43.928C237.934 43.704 237.966 43.56 238.014 43.496C238.574 43.544 239.062 43.584 239.478 43.616C239.91 43.632 240.398 43.64 240.942 43.64C241.454 43.64 241.918 43.624 242.334 43.592C242.75 43.544 243.198 43.512 243.678 43.496C243.726 43.56 243.75 43.704 243.75 43.928C243.766 44.136 243.742 44.28 243.678 44.36C243.582 44.36 243.398 44.376 243.126 44.408C242.854 44.424 242.59 44.472 242.334 44.552C242.094 44.616 241.942 44.736 241.878 44.912C241.782 45.152 241.702 45.56 241.638 46.136C241.574 46.696 241.542 47.232 241.542 47.744V52.304C241.542 53.888 241.238 55.192 240.63 56.216C240.038 57.24 239.254 58 238.278 58.496C237.318 58.976 236.27 59.216 235.134 59.216C234.158 59.216 233.23 59.048 232.35 58.712C231.47 58.376 230.75 57.856 230.19 57.152C229.742 56.576 229.406 55.872 229.182 55.04C228.974 54.192 228.87 53.16 228.87 51.944V46.976C228.87 46.464 228.862 46.032 228.846 45.68C228.83 45.312 228.774 45.008 228.678 44.768C228.646 44.656 228.526 44.576 228.318 44.528C228.11 44.464 227.894 44.424 227.67 44.408C227.462 44.376 227.302 44.36 227.19 44.36C227.126 44.28 227.094 44.136 227.094 43.928C227.11 43.704 227.142 43.56 227.19 43.496C227.654 43.544 228.206 43.584 228.846 43.616C229.486 43.632 230.054 43.64 230.55 43.64ZM256.519 43.376C257.287 43.376 258.119 43.416 259.015 43.496C259.911 43.56 260.703 43.664 261.391 43.808C261.407 43.872 261.455 44.08 261.535 44.432C261.615 44.768 261.703 45.152 261.799 45.584C261.911 46 261.999 46.384 262.063 46.736C262.143 47.072 262.183 47.28 262.183 47.36C262.183 47.424 262.119 47.496 261.991 47.576C261.863 47.656 261.727 47.696 261.583 47.696C261.519 47.696 261.455 47.696 261.391 47.696C261.343 47.68 261.295 47.648 261.247 47.6C261.183 47.376 261.063 47.088 260.887 46.736C260.727 46.368 260.479 46.008 260.143 45.656C259.807 45.288 259.359 44.984 258.799 44.744C258.255 44.504 257.567 44.384 256.735 44.384C255.631 44.384 254.743 44.688 254.071 45.296C253.399 45.888 252.911 46.672 252.607 47.648C252.303 48.608 252.151 49.64 252.151 50.744C252.151 51.656 252.247 52.552 252.439 53.432C252.631 54.312 252.927 55.104 253.327 55.808C253.743 56.512 254.271 57.08 254.911 57.512C255.551 57.928 256.311 58.136 257.191 58.136C257.895 58.136 258.479 58.04 258.943 57.848C259.407 57.656 259.791 57.416 260.095 57.128C260.431 56.824 260.719 56.456 260.959 56.024C261.199 55.592 261.383 55.2 261.511 54.848C261.655 54.496 261.735 54.288 261.751 54.224C262.087 54.224 262.359 54.312 262.567 54.488C262.567 54.552 262.535 54.768 262.471 55.136C262.407 55.488 262.319 55.888 262.207 56.336C262.111 56.768 262.007 57.16 261.895 57.512C261.799 57.848 261.703 58.032 261.607 58.064C260.871 58.32 260.103 58.568 259.303 58.808C258.503 59.048 257.559 59.168 256.471 59.168C255.367 59.168 254.327 58.976 253.351 58.592C252.375 58.208 251.519 57.672 250.783 56.984C250.047 56.296 249.463 55.48 249.031 54.536C248.615 53.592 248.407 52.568 248.407 51.464C248.407 50.328 248.615 49.272 249.031 48.296C249.463 47.32 250.047 46.464 250.783 45.728C251.535 44.992 252.399 44.416 253.375 44C254.351 43.584 255.399 43.376 256.519 43.376ZM272.987 55.688C272.987 55.688 272.987 55.704 272.987 55.736C272.987 55.816 272.987 55.976 272.987 56.216C272.987 56.44 272.995 56.68 273.011 56.936C273.043 57.192 273.091 57.392 273.155 57.536C273.235 57.696 273.435 57.816 273.755 57.896C274.075 57.976 274.387 58.016 274.691 58.016H276.227C276.675 58.016 277.083 57.952 277.451 57.824C277.835 57.696 278.155 57.504 278.411 57.248C278.667 56.992 278.891 56.688 279.083 56.336C279.275 55.984 279.475 55.544 279.683 55.016C279.715 54.92 279.819 54.872 279.995 54.872C280.123 54.872 280.267 54.888 280.427 54.92C280.587 54.952 280.683 54.984 280.715 55.016C280.571 55.432 280.411 55.888 280.235 56.384C280.059 56.88 279.899 57.36 279.755 57.824C279.611 58.288 279.507 58.696 279.443 59.048H271.355C270.523 59.048 269.795 59.048 269.171 59.048C268.547 59.064 268.155 59.072 267.995 59.072C267.947 58.992 267.915 58.848 267.899 58.64C267.899 58.432 267.931 58.288 267.995 58.208C268.107 58.192 268.275 58.176 268.499 58.16C268.723 58.128 268.939 58.088 269.147 58.04C269.355 57.976 269.475 57.896 269.507 57.8C269.603 57.56 269.659 57.256 269.675 56.888C269.691 56.52 269.699 56.088 269.699 55.592V46.976C269.699 46.464 269.691 46.032 269.675 45.68C269.659 45.312 269.603 45.008 269.507 44.768C269.475 44.656 269.355 44.576 269.147 44.528C268.939 44.464 268.723 44.424 268.499 44.408C268.275 44.376 268.107 44.36 267.995 44.36C267.931 44.28 267.899 44.136 267.899 43.928C267.915 43.704 267.947 43.56 267.995 43.496C268.459 43.544 269.011 43.584 269.651 43.616C270.291 43.632 270.859 43.64 271.355 43.64C271.851 43.64 272.411 43.632 273.035 43.616C273.675 43.584 274.219 43.544 274.667 43.496C274.715 43.56 274.739 43.704 274.739 43.928C274.755 44.136 274.731 44.28 274.667 44.36C274.571 44.36 274.403 44.376 274.163 44.408C273.939 44.424 273.723 44.464 273.515 44.528C273.323 44.576 273.203 44.656 273.155 44.768C273.075 44.976 273.027 45.24 273.011 45.56C272.995 45.88 272.987 46.248 272.987 46.664C272.987 46.712 272.987 46.768 272.987 46.832C272.987 46.88 272.987 46.928 272.987 46.976V55.688ZM286.726 55.856L291.718 44.384C291.798 44.224 291.926 44.04 292.102 43.832C292.294 43.608 292.454 43.496 292.582 43.496C292.854 43.496 293.022 43.544 293.086 43.64L297.886 55.52C298.046 55.872 298.166 56.184 298.246 56.456C298.326 56.712 298.422 56.968 298.534 57.224C298.678 57.544 298.878 57.776 299.134 57.92C299.406 58.064 299.662 58.152 299.902 58.184C300.158 58.216 300.318 58.232 300.382 58.232C300.446 58.344 300.478 58.504 300.478 58.712C300.494 58.92 300.478 59.048 300.43 59.096C299.966 59.064 299.454 59.024 298.894 58.976C298.334 58.928 297.798 58.904 297.286 58.904C296.934 58.904 296.534 58.92 296.086 58.952C295.638 58.968 295.206 58.992 294.79 59.024C294.39 59.056 294.046 59.08 293.758 59.096C293.726 59.048 293.702 58.96 293.686 58.832C293.67 58.688 293.67 58.552 293.686 58.424C293.702 58.296 293.726 58.232 293.758 58.232C293.966 58.232 294.206 58.2 294.478 58.136C294.766 58.056 294.99 57.944 295.15 57.8C295.278 57.688 295.342 57.56 295.342 57.416C295.342 57.368 295.294 57.224 295.198 56.984C295.102 56.728 294.982 56.424 294.838 56.072C294.71 55.72 294.574 55.376 294.43 55.04C294.302 54.688 294.19 54.4 294.094 54.176C293.998 53.952 293.95 53.84 293.95 53.84C293.95 53.84 293.926 53.824 293.878 53.792C293.846 53.76 293.814 53.744 293.782 53.744C293.446 53.728 293.118 53.72 292.798 53.72C292.494 53.72 292.214 53.72 291.958 53.72C291.878 53.72 291.798 53.72 291.718 53.72C291.654 53.72 291.59 53.72 291.526 53.72C291.046 53.72 290.622 53.72 290.254 53.72C289.902 53.72 289.518 53.728 289.102 53.744C289.038 53.744 288.982 53.784 288.934 53.864C288.934 53.864 288.878 53.984 288.766 54.224C288.67 54.464 288.558 54.736 288.43 55.04C288.302 55.344 288.19 55.608 288.094 55.832C287.982 56.12 287.862 56.44 287.734 56.792C287.622 57.144 287.566 57.36 287.566 57.44C287.566 57.632 287.702 57.792 287.974 57.92C288.246 58.032 288.526 58.112 288.814 58.16C289.118 58.208 289.302 58.232 289.366 58.232C289.446 58.312 289.478 58.464 289.462 58.688C289.446 58.912 289.422 59.048 289.39 59.096C288.99 59.048 288.598 59.008 288.214 58.976C287.83 58.928 287.382 58.904 286.87 58.904C286.326 58.904 285.862 58.928 285.478 58.976C285.11 59.008 284.718 59.048 284.302 59.096C284.254 59.048 284.222 58.928 284.206 58.736C284.19 58.544 284.206 58.384 284.254 58.256C284.35 58.256 284.51 58.224 284.734 58.16C284.974 58.08 285.206 57.984 285.43 57.872C285.67 57.76 285.83 57.64 285.91 57.512C286.118 57.192 286.27 56.92 286.366 56.696C286.462 56.456 286.582 56.176 286.726 55.856ZM291.43 47.84L289.438 52.448C289.438 52.448 289.438 52.464 289.438 52.496C289.454 52.512 289.47 52.52 289.486 52.52C289.726 52.536 290.046 52.552 290.446 52.568C290.846 52.584 291.174 52.592 291.43 52.592C291.798 52.592 292.11 52.592 292.366 52.592C292.638 52.576 292.95 52.56 293.302 52.544C293.334 52.544 293.35 52.528 293.35 52.496C293.366 52.464 293.374 52.448 293.374 52.448L291.43 47.84Z" fill="#0D9D63"/>
</svg>
