<svg width="444" height="265" viewBox="0 0 444 265" fill="none" xmlns="http://www.w3.org/2000/svg">
<path d="M120.112 140.175L135.712 104.325C135.962 103.825 136.362 103.25 136.912 102.6C137.512 101.9 138.012 101.55 138.412 101.55C139.262 101.55 139.787 101.7 139.987 102L154.987 139.125C155.487 140.225 155.862 141.2 156.112 142.05C156.362 142.85 156.662 143.65 157.012 144.45C157.462 145.45 158.087 146.175 158.887 146.625C159.737 147.075 160.537 147.35 161.287 147.45C162.087 147.55 162.587 147.6 162.787 147.6C162.987 147.95 163.087 148.45 163.087 149.1C163.137 149.75 163.087 150.15 162.937 150.3C161.487 150.2 159.887 150.075 158.137 149.925C156.387 149.775 154.712 149.7 153.112 149.7C152.012 149.7 150.762 149.75 149.362 149.85C147.962 149.9 146.612 149.975 145.312 150.075C144.062 150.175 142.987 150.25 142.087 150.3C141.987 150.15 141.912 149.875 141.862 149.475C141.812 149.025 141.812 148.6 141.862 148.2C141.912 147.8 141.987 147.6 142.087 147.6C142.737 147.6 143.487 147.5 144.337 147.3C145.237 147.05 145.937 146.7 146.437 146.25C146.837 145.9 147.037 145.5 147.037 145.05C147.037 144.9 146.887 144.45 146.587 143.7C146.287 142.9 145.912 141.95 145.462 140.85C145.062 139.75 144.637 138.675 144.187 137.625C143.787 136.525 143.437 135.625 143.137 134.925C142.837 134.225 142.687 133.875 142.687 133.875C142.687 133.875 142.612 133.825 142.462 133.725C142.362 133.625 142.262 133.575 142.162 133.575C141.112 133.525 140.087 133.5 139.087 133.5C138.137 133.5 137.262 133.5 136.462 133.5C136.212 133.5 135.962 133.5 135.712 133.5C135.512 133.5 135.312 133.5 135.112 133.5C133.612 133.5 132.287 133.5 131.137 133.5C130.037 133.5 128.837 133.525 127.537 133.575C127.337 133.575 127.162 133.7 127.012 133.95C127.012 133.95 126.837 134.325 126.487 135.075C126.187 135.825 125.837 136.675 125.437 137.625C125.037 138.575 124.687 139.4 124.387 140.1C124.037 141 123.662 142 123.262 143.1C122.912 144.2 122.737 144.875 122.737 145.125C122.737 145.725 123.162 146.225 124.012 146.625C124.862 146.975 125.737 147.225 126.637 147.375C127.587 147.525 128.162 147.6 128.362 147.6C128.612 147.85 128.712 148.325 128.662 149.025C128.612 149.725 128.537 150.15 128.437 150.3C127.187 150.15 125.962 150.025 124.762 149.925C123.562 149.775 122.162 149.7 120.562 149.7C118.862 149.7 117.412 149.775 116.212 149.925C115.062 150.025 113.837 150.15 112.537 150.3C112.387 150.15 112.287 149.775 112.237 149.175C112.187 148.575 112.237 148.075 112.387 147.675C112.687 147.675 113.187 147.575 113.887 147.375C114.637 147.125 115.362 146.825 116.062 146.475C116.812 146.125 117.312 145.75 117.562 145.35C118.212 144.35 118.687 143.5 118.987 142.8C119.287 142.05 119.662 141.175 120.112 140.175ZM134.812 115.125L128.587 129.525C128.587 129.525 128.587 129.575 128.587 129.675C128.637 129.725 128.687 129.75 128.737 129.75C129.487 129.8 130.487 129.85 131.737 129.9C132.987 129.95 134.012 129.975 134.812 129.975C135.962 129.975 136.937 129.975 137.737 129.975C138.587 129.925 139.562 129.875 140.662 129.825C140.762 129.825 140.812 129.775 140.812 129.675C140.862 129.575 140.887 129.525 140.887 129.525L134.812 115.125ZM199.251 101.625C202.301 101.625 205.026 102.125 207.426 103.125C209.826 104.125 211.726 105.625 213.126 107.625C214.526 109.575 215.226 112.025 215.226 114.975C215.226 116.475 214.876 117.9 214.176 119.25C213.526 120.55 212.676 121.75 211.626 122.85C210.576 123.9 209.476 124.775 208.326 125.475C207.226 126.125 206.226 126.575 205.326 126.825C207.126 129.225 208.826 131.475 210.426 133.575C212.026 135.625 213.326 137.3 214.326 138.6C215.376 139.85 215.901 140.475 215.901 140.475C217.701 142.775 219.501 144.425 221.301 145.425C223.101 146.425 224.626 147.05 225.876 147.3C227.126 147.5 227.851 147.6 228.051 147.6C228.251 147.85 228.301 148.35 228.201 149.1C228.151 149.8 228.101 150.2 228.051 150.3C227.001 150.35 225.501 150.4 223.551 150.45C221.651 150.55 219.951 150.6 218.451 150.6C215.651 150.6 213.301 150 211.401 148.8C209.551 147.6 208.176 146.375 207.276 145.125L195.426 129.225C195.426 129.225 195.276 129.05 194.976 128.7C194.676 128.3 194.376 128.1 194.076 128.1H193.026V139.35C193.026 139.5 193.026 139.675 193.026 139.875C193.026 140.025 193.026 140.175 193.026 140.325C193.026 141.625 193.051 142.775 193.101 143.775C193.151 144.775 193.301 145.6 193.551 146.25C193.701 146.55 194.076 146.8 194.676 147C195.326 147.2 196.001 147.35 196.701 147.45C197.451 147.5 197.976 147.55 198.276 147.6C198.476 147.85 198.551 148.3 198.501 148.95C198.501 149.6 198.426 150.05 198.276 150.3C196.876 150.15 195.151 150.025 193.101 149.925C191.101 149.825 189.326 149.775 187.776 149.775C186.226 149.775 184.476 149.825 182.526 149.925C180.576 150.025 178.876 150.15 177.426 150.3C177.276 150.05 177.176 149.6 177.126 148.95C177.126 148.3 177.226 147.85 177.426 147.6C177.776 147.55 178.301 147.5 179.001 147.45C179.701 147.35 180.376 147.2 181.026 147C181.676 146.8 182.051 146.55 182.151 146.25C182.451 145.5 182.626 144.55 182.676 143.4C182.726 142.25 182.751 140.9 182.751 139.35V112.425C182.751 110.825 182.726 109.475 182.676 108.375C182.626 107.225 182.451 106.275 182.151 105.525C182.051 105.175 181.676 104.925 181.026 104.775C180.376 104.625 179.701 104.525 179.001 104.475C178.301 104.425 177.776 104.4 177.426 104.4C177.226 104.15 177.126 103.675 177.126 102.975C177.176 102.275 177.276 101.825 177.426 101.625C179.076 101.725 180.851 101.8 182.751 101.85C184.651 101.85 186.376 101.85 187.926 101.85C189.476 101.85 191.201 101.825 193.101 101.775C195.051 101.675 197.101 101.625 199.251 101.625ZM204.351 115.725C204.351 113.775 204.151 111.975 203.751 110.325C203.351 108.625 202.626 107.25 201.576 106.2C200.526 105.15 199.001 104.625 197.001 104.625C196.201 104.625 195.426 104.675 194.676 104.775C193.976 104.825 193.526 105.05 193.326 105.45C193.176 105.85 193.076 106.35 193.026 106.95C193.026 107.55 193.026 108.25 193.026 109.05C193.026 109.2 193.026 109.35 193.026 109.5C193.026 109.65 193.026 109.8 193.026 109.95V125.25H196.326C197.726 125.25 199.026 124.85 200.226 124.05C201.476 123.25 202.476 122.125 203.226 120.675C203.976 119.225 204.351 117.575 204.351 115.725ZM270.537 101.85C272.287 101.85 273.612 101.75 274.512 101.55C275.462 101.3 276.187 101.075 276.687 100.875C277.187 100.625 277.662 100.5 278.112 100.5C278.412 100.5 278.587 100.525 278.637 100.575C278.737 100.575 278.862 100.625 279.012 100.725L280.962 114.15C280.862 114.25 280.562 114.375 280.062 114.525C279.612 114.625 279.212 114.675 278.862 114.675C278.412 114.675 278.162 114.55 278.112 114.3C277.862 112.7 277.362 111.2 276.612 109.8C275.862 108.4 274.937 107.275 273.837 106.425C272.737 105.525 271.562 105.075 270.312 105.075H263.487V139.35C263.487 140.9 263.512 142.25 263.562 143.4C263.612 144.55 263.787 145.5 264.087 146.25C264.237 146.55 264.612 146.8 265.212 147C265.862 147.2 266.537 147.35 267.237 147.45C267.937 147.5 268.437 147.55 268.737 147.6C268.937 147.85 269.012 148.3 268.962 148.95C268.962 149.6 268.887 150.05 268.737 150.3C267.337 150.15 265.637 150.025 263.637 149.925C261.637 149.825 259.862 149.775 258.312 149.775C256.762 149.775 255.012 149.825 253.062 149.925C251.112 150.025 249.412 150.15 247.962 150.3C247.812 150.05 247.712 149.6 247.662 148.95C247.662 148.3 247.762 147.85 247.962 147.6C248.312 147.55 248.812 147.5 249.462 147.45C250.162 147.35 250.837 147.2 251.487 147C252.137 146.8 252.512 146.55 252.612 146.25C252.912 145.5 253.087 144.55 253.137 143.4C253.187 142.25 253.212 140.9 253.212 139.35V105.075H246.387C245.137 105.075 243.962 105.525 242.862 106.425C241.762 107.275 240.837 108.4 240.087 109.8C239.337 111.2 238.837 112.7 238.587 114.3C238.537 114.55 238.287 114.675 237.837 114.675C237.487 114.675 237.062 114.625 236.562 114.525C236.112 114.375 235.837 114.25 235.737 114.15L237.687 100.725C237.837 100.625 237.937 100.575 237.987 100.575C238.087 100.525 238.287 100.5 238.587 100.5C239.037 100.5 239.512 100.625 240.012 100.875C240.512 101.075 241.212 101.3 242.112 101.55C243.062 101.75 244.412 101.85 246.162 101.85H270.537ZM313.148 100.95C315.348 100.95 317.373 101.175 319.223 101.625C321.123 102.025 323.198 102.475 325.448 102.975C325.648 104.925 325.798 106.875 325.898 108.825C326.048 110.775 326.173 112.875 326.273 115.125C326.073 115.425 325.798 115.575 325.448 115.575C325.448 115.575 325.423 115.575 325.373 115.575C325.173 115.575 324.773 115.575 324.173 115.575C323.623 115.525 323.323 115.35 323.273 115.05C323.123 114 322.798 112.85 322.298 111.6C321.798 110.35 321.123 109.15 320.273 108C319.423 106.85 318.423 105.9 317.273 105.15C316.173 104.4 314.923 104.025 313.523 104.025C312.573 104.025 311.623 104.225 310.673 104.625C309.723 104.975 308.923 105.625 308.273 106.575C307.623 107.475 307.298 108.75 307.298 110.4C307.298 111.9 307.873 113.375 309.023 114.825C310.173 116.225 311.548 117.55 313.148 118.8C314.798 120 316.373 121.1 317.873 122.1C319.473 123.15 321.098 124.3 322.748 125.55C324.448 126.75 325.848 128.275 326.948 130.125C328.098 131.925 328.673 134.275 328.673 137.175C328.673 139.825 327.898 142.175 326.348 144.225C324.798 146.275 322.798 147.875 320.348 149.025C317.948 150.175 315.398 150.75 312.698 150.75C310.548 150.75 308.223 150.55 305.723 150.15C303.273 149.75 300.948 149.3 298.748 148.8C298.498 147.7 298.248 146.3 297.998 144.6C297.748 142.9 297.523 141.275 297.323 139.725C297.173 138.125 297.073 137 297.023 136.35C297.173 136.1 297.498 135.875 297.998 135.675C298.548 135.475 298.923 135.375 299.123 135.375C299.723 135.375 300.048 135.55 300.098 135.9C300.248 136.9 300.648 138.075 301.298 139.425C301.948 140.725 302.773 142.025 303.773 143.325C304.823 144.575 306.023 145.625 307.373 146.475C308.773 147.275 310.298 147.675 311.948 147.675C313.848 147.675 315.498 147.15 316.898 146.1C318.348 145 319.073 143.15 319.073 140.55C319.073 139.25 318.673 138.025 317.873 136.875C317.123 135.675 316.173 134.575 315.023 133.575C313.873 132.575 312.673 131.65 311.423 130.8C310.173 129.95 309.098 129.225 308.198 128.625C306.448 127.425 304.748 126.2 303.098 124.95C301.448 123.7 300.098 122.225 299.048 120.525C298.048 118.825 297.548 116.7 297.548 114.15C297.548 111.6 298.323 109.35 299.873 107.4C301.423 105.4 303.398 103.825 305.798 102.675C308.198 101.525 310.648 100.95 313.148 100.95Z" fill="#FFB902"/>
<path d="M55.0293 112.241L55.1542 125.428L35.3029 135.82L34.5834 140.243L55.7002 133.236L55.7532 146.865L51.5671 150.27L52.02 153.068L58.9319 149.652L65.5053 153.9L66.3794 151.318L61.5753 147.358L61.5223 133.729L82.5376 138.509L81.7863 134.755L61.0482 125.479L60.553 111.778C60.354 111.14 59.4995 109.881 57.6726 109.947C55.8458 110.013 55.1492 111.504 55.0293 112.241Z" stroke="#FFB902" stroke-width="2"/>
<path d="M387.029 112.241L387.154 125.428L367.303 135.82L366.583 140.243L387.7 133.236L387.753 146.865L383.567 150.27L384.02 153.068L390.932 149.652L397.505 153.9L398.379 151.318L393.575 147.358L393.522 133.729L414.538 138.509L413.786 134.755L393.048 125.479L392.553 111.778C392.354 111.14 391.499 109.881 389.673 109.947C387.846 110.013 387.149 111.504 387.029 112.241Z" stroke="#FFB902" stroke-width="2"/>
<line x1="16" y1="188" x2="429" y2="188" stroke="#FFB902" stroke-width="2"/>
<line x1="16" y1="73" x2="429" y2="73" stroke="#FFB902" stroke-width="2"/>
<path d="M222.5 19L16 73.3248V187.795L222.5 246L429 187.795V73.3248L222.5 19Z" stroke="#FFB902" stroke-width="4"/>
<path d="M222 3L2 64.9829V195.59L222 262L442 195.59V64.9829L222 3Z" stroke="#FFB902" stroke-width="4"/>
</svg>
