<svg width="1440" height="174" viewBox="0 0 1440 174" fill="none" xmlns="http://www.w3.org/2000/svg">
<path d="M1206.41 152.781L1209.47 143.132C1210.56 143.585 1213.28 144.165 1215.47 142.86L1219.39 152.192L1206.41 152.781Z" fill="#FFB5B5" stroke="black"/>
<path d="M1081.02 80.8892L1160.42 54.7644L1222.58 78.9723L1209.79 83.9978L1197.01 89.0234L1198.55 123.106C1162.2 151.452 1124.47 137.591 1110.14 127.117L1108.63 93.8151L1081.02 80.8892Z" fill="#FFB5B5"/>
<path d="M1108.63 93.8151L1143.41 110.092L1197.01 89.0234M1108.63 93.8151L1081.02 80.8892L1160.42 54.7644L1222.58 78.9723L1209.79 83.9978M1108.63 93.8151L1110.14 127.117C1124.47 137.591 1162.2 151.452 1198.55 123.106L1197.01 89.0234M1197.01 89.0234L1209.79 83.9978M1209.79 83.9978L1211.95 131.508" stroke="black"/>
<circle cx="1212.22" cy="137.502" r="6" transform="rotate(-2.59735 1212.22 137.502)" fill="#FFB5B5" stroke="black"/>
<path d="M1157.53 79.4204C1157.55 79.9358 1157.11 80.5823 1156 81.1592C1154.92 81.7146 1153.39 82.111 1151.65 82.1898C1149.91 82.2686 1148.35 82.0128 1147.23 81.5568C1146.07 81.0831 1145.57 80.4796 1145.54 79.9642C1145.52 79.4489 1145.97 78.8024 1147.08 78.2255C1148.15 77.6701 1149.69 77.2737 1151.42 77.1949C1153.16 77.1161 1154.73 77.3719 1155.84 77.8279C1157.01 78.3016 1157.51 78.9051 1157.53 79.4204Z" fill="#FFB5B5" stroke="black"/>
<path d="M931.887 150.883L933.504 140.889C934.644 141.178 937.417 141.352 939.393 139.74L944.647 148.395L931.887 150.883Z" fill="#FFB5B5" stroke="black"/>
<path d="M797.307 98.1718L872.011 60.6774L937.052 75.5006L925.142 82.3481L913.233 89.1956L919.764 122.683C887.965 156.056 848.606 147.883 832.901 139.625L826.519 106.905L797.307 98.1718Z" fill="#FFB5B5"/>
<path d="M826.519 106.905L863.305 117.902L913.233 89.1956M826.519 106.905L797.307 98.1718L872.011 60.6774L937.052 75.5006L925.142 82.3481M826.519 106.905L832.901 139.625C848.606 147.883 887.965 156.056 919.764 122.683L913.233 89.1956M913.233 89.1956L925.142 82.3481M925.142 82.3481L934.247 129.028" stroke="black"/>
<circle cx="935.395" cy="134.916" r="6" transform="rotate(-11.0365 935.395 134.916)" fill="#FFB5B5" stroke="black"/>
<path d="M872.775 85.4901C872.874 85.9964 872.529 86.7012 871.511 87.4354C870.531 88.1423 869.072 88.7595 867.365 89.0924C865.658 89.4254 864.073 89.4018 862.9 89.1149C861.681 88.8169 861.096 88.2936 860.997 87.7873C860.898 87.281 861.244 86.5761 862.261 85.8419C863.241 85.1351 864.7 84.5179 866.408 84.1849C868.115 83.8519 869.699 83.8755 870.873 84.1624C872.091 84.4604 872.676 84.9838 872.775 85.4901Z" fill="#FFB5B5" stroke="black"/>
<path d="M448.092 163.328L451.838 153.923C452.888 154.452 455.558 155.224 457.836 154.079L461.087 163.667L448.092 163.328Z" fill="#FFB5B5" stroke="black"/>
<path d="M328.153 82.6747L409.212 62.2805L469.488 90.8612L456.376 94.9619L443.265 99.0625L442.376 133.169C404.093 158.849 367.445 142.331 353.906 130.862L354.775 97.5376L328.153 82.6747Z" fill="#FFB5B5"/>
<path d="M354.775 97.5376L388.298 116.254L443.265 99.0625M354.775 97.5376L328.153 82.6747L409.212 62.2805L469.488 90.8612L456.376 94.9619M354.775 97.5376L353.906 130.862C367.445 142.331 404.093 158.849 442.376 133.169L443.265 99.0625M443.265 99.0625L456.376 94.9619M456.376 94.9619L455.137 142.505" stroke="black"/>
<circle cx="454.98" cy="148.503" r="6" transform="rotate(1.4935 454.98 148.503)" fill="#FFB5B5" stroke="black"/>
<path d="M404.575 86.6678C404.561 87.1835 404.071 87.7966 402.919 88.2925C401.809 88.77 400.251 89.0559 398.512 89.0106C396.773 88.9652 395.232 88.5985 394.148 88.0639C393.023 87.5085 392.566 86.8707 392.579 86.355C392.592 85.8394 393.083 85.2263 394.235 84.7303C395.345 84.2528 396.903 83.9669 398.642 84.0123C400.381 84.0576 401.922 84.4243 403.006 84.959C404.131 85.5143 404.588 86.1521 404.575 86.6678Z" fill="#FFB5B5" stroke="black"/>
<path d="M111.328 134.068L114.194 124.358C115.289 124.788 118.018 125.312 120.181 123.962L124.3 133.211L111.328 134.068Z" fill="#FFB5B5" stroke="black"/>
<path d="M-15.5163 64.7816L63.3248 37.0224L125.972 59.9413L113.294 65.2298L100.615 70.5184L102.864 104.562C67.1048 133.652 29.093 120.574 14.557 110.398L12.3589 77.1343L-15.5163 64.7816Z" fill="#FFB5B5"/>
<path d="M12.3589 77.1343L47.461 92.6896L100.615 70.5184M12.3589 77.1343L-15.5163 64.7816L63.3248 37.0224L125.972 59.9413L113.294 65.2298M12.3589 77.1343L14.557 110.398C29.093 120.574 67.1048 133.652 102.864 104.562L100.615 70.5184M100.615 70.5184L113.294 65.2298M113.294 65.2298L116.43 112.685" stroke="black"/>
<circle cx="116.825" cy="118.672" r="6" transform="rotate(-3.78083 116.825 118.672)" fill="#FFB5B5" stroke="black"/>
<path d="M60.9491 61.7329C60.9831 62.2477 60.5513 62.9032 59.4492 63.503C58.3881 64.0805 56.8626 64.5084 55.127 64.6231C53.3913 64.7378 51.8228 64.5144 50.6949 64.0815C49.5234 63.632 49.0092 63.0389 48.9752 62.5242C48.9412 62.0095 49.3729 61.3539 50.4751 60.7541C51.5361 60.1767 53.0616 59.7487 54.7973 59.634C56.5329 59.5193 58.1015 59.7428 59.2293 60.1756C60.4008 60.6252 60.915 61.2182 60.9491 61.7329Z" fill="#FFB5B5" stroke="black"/>
<path d="M1428.62 134.717L1434.97 126.832C1435.81 127.646 1438.14 129.17 1440.65 128.747L1440.93 138.867L1428.62 134.717Z" fill="#FFB5B5" stroke="black"/>
<path d="M1337.74 22.3225L1421.21 26.7008L1470.4 71.763L1456.66 71.8211L1442.93 71.8792L1432.03 104.212C1387.89 117.48 1357.73 90.9037 1348.16 75.9567L1358.81 44.3653L1337.74 22.3225Z" fill="#FFB5B5"/>
<path d="M1358.81 44.3653L1385.33 72.1229L1442.93 71.8792M1358.81 44.3653L1337.74 22.3225L1421.21 26.7008L1470.4 71.763L1456.66 71.8211M1358.81 44.3653L1348.16 75.9567C1357.73 90.9037 1387.89 117.48 1432.03 104.212L1442.93 71.8792M1442.93 71.8792L1456.66 71.8211M1456.66 71.8211L1441.48 116.891" stroke="black"/>
<circle cx="1439.56" cy="122.577" r="6" transform="rotate(18.6185 1439.56 122.577)" fill="#FFB5B5" stroke="black"/>
<path d="M1409.6 48.6417C1409.44 49.1305 1408.79 49.5721 1407.54 49.7067C1406.34 49.8362 1404.77 49.6506 1403.12 49.0952C1401.47 48.5399 1400.1 47.7356 1399.23 46.9057C1398.31 46.0436 1398.06 45.2993 1398.23 44.8105C1398.39 44.3216 1399.04 43.8801 1400.29 43.7455C1401.49 43.6159 1403.06 43.8016 1404.71 44.3569C1406.36 44.9122 1407.73 45.7166 1408.6 46.5465C1409.52 47.4086 1409.77 48.1528 1409.6 48.6417Z" fill="#FFB5B5" stroke="black"/>
<path d="M1356.65 140.366L1359.26 130.585C1360.37 130.987 1363.11 131.44 1365.24 130.035L1369.59 139.175L1356.65 140.366Z" fill="#FFB5B5" stroke="black"/>
<path d="M1228.06 74.3647L1306.16 44.5867L1369.38 65.8865L1356.84 71.4995L1344.3 77.1124L1347.43 111.087C1312.43 141.087 1274.09 128.991 1259.3 119.192L1256.24 85.9963L1228.06 74.3647Z" fill="#FFB5B5"/>
<path d="M1256.24 85.9963L1291.73 100.644L1344.3 77.1124M1256.24 85.9963L1228.06 74.3647L1306.16 44.5867L1369.38 65.8865L1356.84 71.4995M1256.24 85.9963L1259.3 119.192C1274.09 128.991 1312.43 141.087 1347.43 111.087L1344.3 77.1124M1344.3 77.1124L1356.84 71.4995M1356.84 71.4995L1361.2 118.859" stroke="black"/>
<circle cx="1361.74" cy="124.833" r="6" transform="rotate(-5.25478 1361.74 124.833)" fill="#FFB5B5" stroke="black"/>
<path d="M1304.42 69.3502C1304.47 69.8638 1304.05 70.5303 1302.97 71.1582C1301.92 71.7628 1300.41 72.2298 1298.68 72.3892C1296.94 72.5485 1295.37 72.3654 1294.23 71.9617C1293.05 71.5425 1292.52 70.9628 1292.47 70.4492C1292.43 69.9355 1292.84 69.269 1293.93 68.6411C1294.97 68.0365 1296.49 67.5695 1298.22 67.4102C1299.95 67.2509 1301.52 67.4339 1302.66 67.8376C1303.85 68.2569 1304.38 68.8365 1304.42 69.3502Z" fill="#FFB5B5" stroke="black"/>
<path d="M178.509 170.791L183.447 161.952C184.419 162.613 186.966 163.726 189.374 162.887L191.351 172.817L178.509 170.791Z" fill="#FFB5B5" stroke="black"/>
<path d="M70.0776 75.2251L153.1 65.5451L209.148 101.721L195.614 104.082L182.081 106.443L176.764 140.144C135.467 160.628 101.278 139.484 89.3453 126.352L94.5404 93.4237L70.0776 75.2251Z" fill="#FFB5B5"/>
<path d="M94.5404 93.4237L125.345 116.34L182.081 106.443M94.5404 93.4237L70.0776 75.2251L153.1 65.5451L209.148 101.721L195.614 104.082M94.5404 93.4237L89.3453 126.352C101.278 139.484 135.467 160.628 176.764 140.144L182.081 106.443M182.081 106.443L195.614 104.082M195.614 104.082L188.203 151.06" stroke="black"/>
<circle cx="187.268" cy="156.987" r="6" transform="rotate(8.9655 187.268 156.987)" fill="#FFB5B5" stroke="black"/>
<path d="M145.331 89.1225C145.251 89.6321 144.685 90.1762 143.478 90.5181C142.316 90.8472 140.733 90.928 139.015 90.6569C137.297 90.3859 135.816 89.8218 134.812 89.1508C133.768 88.4539 133.398 87.762 133.478 87.2524C133.558 86.7429 134.124 86.1988 135.331 85.8569C136.494 85.5278 138.076 85.447 139.794 85.718C141.512 85.9891 142.993 86.5532 143.998 87.2241C145.041 87.9211 145.412 88.613 145.331 89.1225Z" fill="#FFB5B5" stroke="black"/>
<path d="M678.53 116.902L759.722 97.0416L819.808 126.019L806.67 130.033L793.532 134.047L792.418 168.147C753.967 193.574 717.428 176.815 703.965 165.258L705.053 131.939L678.53 116.902Z" fill="#FFB5B5"/>
<path d="M705.053 131.939L738.453 150.876L793.532 134.047M705.053 131.939L678.53 116.902L759.722 97.0416L819.808 126.019L806.67 130.033M705.053 131.939L703.965 165.258C717.428 176.815 753.967 193.574 792.418 168.147L793.532 134.047M793.532 134.047L806.67 130.033M806.67 130.033L805.117 177.567" stroke="black"/>
<path d="M754.924 121.398C754.907 121.914 754.413 122.523 753.257 123.012C752.144 123.482 750.584 123.758 748.846 123.701C747.107 123.644 745.568 123.267 744.489 122.725C743.367 122.163 742.914 121.522 742.93 121.006C742.947 120.491 743.442 119.881 744.597 119.392C745.71 118.922 747.27 118.647 749.009 118.703C750.747 118.76 752.286 119.137 753.366 119.679C754.488 120.242 754.941 120.882 754.924 121.398Z" fill="#FFB5B5" stroke="black"/>
<path d="M17.9337 99.4923L101.487 101.821L151.765 145.663L138.033 146.058L124.301 146.454L114.205 179.044C70.3969 193.391 39.5939 167.563 29.6684 152.855L39.5331 121.012L17.9337 99.4923Z" fill="#FFB5B5"/>
<path d="M39.5331 121.012L66.7323 148.11L124.301 146.454M39.5331 121.012L17.9337 99.4923L101.487 101.821L151.765 145.663L138.033 146.058M39.5331 121.012L29.6684 152.855C39.5939 167.563 70.3969 193.391 114.205 179.044L124.301 146.454M124.301 146.454L138.033 146.058M138.033 146.058L123.959 191.487" stroke="black"/>
<path d="M90.4157 124.04C90.263 124.533 89.6251 124.991 88.3812 125.156C87.1837 125.315 85.6061 125.168 83.9446 124.653C82.2831 124.138 80.8987 123.368 80.0008 122.56C79.0681 121.72 78.8005 120.982 78.9531 120.489C79.1058 119.997 79.7437 119.539 80.9876 119.374C82.1851 119.215 83.7627 119.362 85.4242 119.877C87.0857 120.392 88.4701 121.162 89.368 121.97C90.3007 122.81 90.5683 123.548 90.4157 124.04Z" fill="#FFB5B5" stroke="black"/>
<path d="M-76.8538 119.063L3.68845 96.7153L64.6374 123.83L51.6291 128.247L38.6207 132.663L38.5564 166.781C0.906122 193.379 -36.1311 177.752 -49.9435 166.614L-49.8806 133.278L-76.8538 119.063Z" fill="#FFB5B5"/>
<path d="M-49.8806 133.278L-15.9143 151.178L38.6207 132.663M-49.8806 133.278L-76.8538 119.063L3.68845 96.7153L64.6374 123.83L51.6291 128.247M-49.8806 133.278L-49.9435 166.614C-36.1311 177.752 0.906122 193.379 38.5564 166.781L38.6207 132.663M38.6207 132.663L51.6291 128.247M51.6291 128.247L51.5394 175.806" stroke="black"/>
<path d="M-0.357732 121.208C-0.358705 121.723 -0.833903 122.348 -1.97421 122.872C-3.072 123.376 -4.62303 123.7 -6.36244 123.696C-8.10184 123.693 -9.65164 123.364 -10.7475 122.855C-11.8858 122.327 -12.3587 121.701 -12.3577 121.185C-12.3567 120.669 -11.8815 120.044 -10.7412 119.521C-9.64344 119.017 -8.09241 118.693 -6.35301 118.696C-4.6136 118.7 -3.0638 119.029 -1.96792 119.537C-0.829597 120.065 -0.356759 120.692 -0.357732 121.208Z" fill="#FFB5B5" stroke="black"/>
<path d="M756.123 101.822L839.703 100.924L891.637 142.792L877.93 143.717L864.224 144.642L855.393 177.597C812.172 193.626 780.395 169.006 769.909 154.692L778.537 122.492L756.123 101.822Z" fill="#FFB5B5"/>
<path d="M778.537 122.492L806.762 148.52L864.224 144.642M778.537 122.492L756.123 101.822L839.703 100.924L891.637 142.792L877.93 143.717M778.537 122.492L769.909 154.692C780.395 169.006 812.172 193.626 855.393 177.597L864.224 144.642M864.224 144.642L877.93 143.717M877.93 143.717L865.621 189.655" stroke="black"/>
<path d="M829.499 123.554C829.365 124.052 828.745 124.534 827.509 124.747C826.318 124.952 824.736 124.866 823.056 124.416C821.376 123.965 819.963 123.249 819.034 122.476C818.07 121.673 817.774 120.946 817.907 120.448C818.041 119.95 818.661 119.468 819.897 119.255C821.088 119.05 822.67 119.136 824.35 119.586C826.03 120.036 827.443 120.753 828.372 121.526C829.336 122.328 829.632 123.055 829.499 123.554Z" fill="#FFB5B5" stroke="black"/>
<path d="M833.124 118.173L913.942 96.8433L974.544 124.725L961.481 128.977L948.418 133.229L947.923 167.344C909.94 193.464 873.103 177.371 859.432 166.06L859.916 132.727L833.124 118.173Z" fill="#FFB5B5"/>
<path d="M859.916 132.727L893.653 151.055L948.418 133.229M859.916 132.727L833.124 118.173L913.942 96.8433L974.544 124.725L961.481 128.977M859.916 132.727L859.432 166.06C873.103 177.371 909.94 193.464 947.923 167.344L948.418 133.229M948.418 133.229L961.481 128.977M961.481 128.977L960.791 176.531" stroke="black"/>
<path d="M909.587 121.283C909.579 121.799 909.096 122.417 907.95 122.927C906.845 123.417 905.29 123.721 903.551 123.696C901.812 123.67 900.267 123.321 899.177 122.799C898.046 122.257 897.581 121.625 897.588 121.109C897.596 120.593 898.079 119.974 899.225 119.465C900.33 118.975 901.885 118.671 903.624 118.696C905.363 118.721 906.909 119.07 907.998 119.592C909.129 120.135 909.594 120.767 909.587 121.283Z" fill="#FFB5B5" stroke="black"/>
<path d="M730.11 182.968L731.233 172.906C732.386 173.138 735.165 173.176 737.059 171.469L742.732 179.855L730.11 182.968Z" fill="#FFB5B5" stroke="black"/>
<path d="M593.1 136.941L665.869 95.8169L731.56 107.422L720.002 114.847L708.444 122.273L716.615 155.398C686.496 190.295 646.782 184.068 630.69 176.593L622.707 144.227L593.1 136.941Z" fill="#FFB5B5"/>
<path d="M622.707 144.227L659.989 153.401L708.444 122.273M622.707 144.227L593.1 136.941L665.869 95.8169L731.56 107.422L720.002 114.847M622.707 144.227L630.69 176.593C646.782 184.068 686.496 190.295 716.615 155.398L708.444 122.273M708.444 122.273L720.002 114.847M720.002 114.847L731.392 161.022" stroke="black"/>
<circle cx="732.829" cy="166.848" r="6" transform="rotate(-13.8565 732.829 166.848)" fill="#FFB5B5" stroke="black"/>
<path d="M667.853 120.562C667.977 121.063 667.666 121.784 666.686 122.567C665.742 123.321 664.315 124.01 662.626 124.426C660.938 124.843 659.354 124.897 658.168 124.668C656.936 124.431 656.326 123.937 656.202 123.436C656.079 122.935 656.389 122.214 657.369 121.431C658.313 120.676 659.74 119.988 661.429 119.572C663.118 119.155 664.701 119.101 665.887 119.329C667.119 119.567 667.729 120.061 667.853 120.562Z" fill="#FFB5B5" stroke="black"/>
<path d="M184.6 115.94L266.059 97.2037L325.739 127.008L312.546 130.841L299.354 134.673L297.769 168.754C258.971 193.647 222.667 176.385 209.365 164.643L210.913 131.343L184.6 115.94Z" fill="#FFB5B5"/>
<path d="M210.913 131.343L244.048 150.739L299.354 134.673M210.913 131.343L184.6 115.94L266.059 97.2037L325.739 127.008L312.546 130.841M210.913 131.343L209.365 164.643C222.667 176.385 258.971 193.647 297.769 168.754L299.354 134.673M299.354 134.673L312.546 130.841M312.546 130.841L310.337 178.348" stroke="black"/>
<path d="M260.925 121.491C260.901 122.007 260.398 122.61 259.236 123.082C258.117 123.537 256.553 123.791 254.815 123.71C253.078 123.629 251.544 123.231 250.472 122.674C249.358 122.096 248.914 121.449 248.938 120.934C248.962 120.419 249.464 119.816 250.627 119.343C251.746 118.888 253.31 118.634 255.048 118.715C256.785 118.796 258.319 119.194 259.391 119.751C260.504 120.329 260.949 120.976 260.925 121.491Z" fill="#FFB5B5" stroke="black"/>
<path d="M496.6 115.94L578.059 97.2037L637.739 127.008L624.546 130.841L611.354 134.673L609.769 168.754C570.971 193.647 534.667 176.385 521.365 164.643L522.913 131.343L496.6 115.94Z" fill="#FFB5B5"/>
<path d="M522.913 131.343L556.048 150.739L611.354 134.673M522.913 131.343L496.6 115.94L578.059 97.2037L637.739 127.008L624.546 130.841M522.913 131.343L521.365 164.643C534.667 176.385 570.971 193.647 609.769 168.754L611.354 134.673M611.354 134.673L624.546 130.841M624.546 130.841L622.337 178.348" stroke="black"/>
<path d="M572.925 121.491C572.901 122.007 572.398 122.61 571.236 123.082C570.117 123.537 568.553 123.791 566.815 123.71C565.078 123.629 563.544 123.231 562.472 122.674C561.358 122.096 560.914 121.449 560.938 120.934C560.962 120.419 561.464 119.816 562.627 119.343C563.746 118.888 565.31 118.634 567.048 118.715C568.785 118.796 570.319 119.194 571.391 119.751C572.504 120.329 572.949 120.976 572.925 121.491Z" fill="#FFB5B5" stroke="black"/>
<path d="M260.532 109.245L343.441 98.6349L399.89 134.181L386.384 136.693L372.878 139.205L367.939 172.964C326.875 193.909 292.45 173.15 280.371 160.153L285.197 127.168L260.532 109.245Z" fill="#FFB5B5"/>
<path d="M285.197 127.168L316.257 149.738L372.878 139.205M285.197 127.168L260.532 109.245L343.441 98.6349L399.89 134.181L386.384 136.693M285.197 127.168L280.371 160.153C292.45 173.15 326.875 193.909 367.939 172.964L372.878 139.205M372.878 139.205L386.384 136.693M386.384 136.693L379.499 183.751" stroke="black"/>
<path d="M335.936 122.298C335.862 122.808 335.302 123.359 334.099 123.714C332.94 124.056 331.359 124.155 329.638 123.903C327.917 123.651 326.43 123.104 325.418 122.444C324.367 121.759 323.988 121.071 324.063 120.561C324.137 120.05 324.697 119.5 325.9 119.144C327.059 118.802 328.64 118.704 330.361 118.955C332.083 119.207 333.569 119.755 334.581 120.414C335.633 121.1 336.011 121.787 335.936 122.298Z" fill="#FFB5B5" stroke="black"/>
<path d="M422.219 109.245L505.128 98.6349L561.577 134.181L548.071 136.693L534.565 139.205L529.626 172.964C488.562 193.909 454.137 173.15 442.058 160.153L446.884 127.168L422.219 109.245Z" fill="#FFB5B5"/>
<path d="M446.884 127.168L477.944 149.738L534.565 139.205M446.884 127.168L422.219 109.245L505.128 98.6349L561.577 134.181L548.071 136.693M446.884 127.168L442.058 160.153C454.137 173.15 488.562 193.909 529.626 172.964L534.565 139.205M534.565 139.205L548.071 136.693M548.071 136.693L541.186 183.751" stroke="black"/>
<path d="M497.624 122.298C497.549 122.808 496.989 123.359 495.786 123.714C494.627 124.056 493.046 124.155 491.325 123.903C489.604 123.651 488.117 123.104 487.105 122.444C486.054 121.759 485.675 121.071 485.75 120.561C485.825 120.05 486.384 119.5 487.588 119.144C488.746 118.802 490.328 118.704 492.049 118.955C493.77 119.207 495.257 119.755 496.269 120.414C497.32 121.1 497.698 121.787 497.624 122.298Z" fill="#FFB5B5" stroke="black"/>
<path d="M1039.69 181.729L1040.61 171.646C1041.77 171.856 1044.55 171.838 1046.4 170.093L1052.24 178.364L1039.69 181.729Z" fill="#FFB5B5" stroke="black"/>
<path d="M901.786 138.445L973.72 95.877L1039.63 106.169L1028.22 113.823L1016.81 121.478L1025.64 154.433C996.228 189.925 956.398 184.492 940.16 177.339L931.532 145.138L901.786 138.445Z" fill="#FFB5B5"/>
<path d="M931.532 145.138L968.99 153.567L1016.81 121.478M931.532 145.138L901.786 138.445L973.72 95.877L1039.63 106.169L1028.22 113.823M931.532 145.138L940.16 177.339C956.398 184.492 996.228 189.925 1025.64 154.433L1016.81 121.478M1016.81 121.478L1028.22 113.823M1028.22 113.823L1040.53 159.762" stroke="black"/>
<circle cx="1042.08" cy="165.557" r="6" transform="rotate(-15 1042.08 165.557)" fill="#FFB5B5" stroke="black"/>
<path d="M976.197 120.577C976.33 121.076 976.035 121.803 975.07 122.605C974.142 123.378 972.729 124.095 971.048 124.545C969.368 124.995 967.786 125.081 966.596 124.876C965.359 124.663 964.739 124.181 964.606 123.683C964.472 123.185 964.768 122.458 965.733 121.655C966.661 120.882 968.074 120.166 969.754 119.715C971.435 119.265 973.017 119.179 974.207 119.384C975.444 119.597 976.063 120.079 976.197 120.577Z" fill="#FFB5B5" stroke="black"/>
<path d="M1191.43 96.397L1274.74 103.167L1322.62 149.622L1308.88 149.286L1295.15 148.95L1283.33 180.957C1238.83 192.954 1209.44 165.523 1200.31 150.308L1211.86 119.035L1191.43 96.397Z" fill="#FFB5B5"/>
<path d="M1211.86 119.035L1237.58 147.542L1295.15 148.95M1211.86 119.035L1191.43 96.397L1274.74 103.167L1322.62 149.622L1308.88 149.286M1211.86 119.035L1200.31 150.308C1209.44 165.523 1238.83 192.954 1283.33 180.957L1295.15 148.95M1295.15 148.95L1308.88 149.286M1308.88 149.286L1292.41 193.902" stroke="black"/>
<path d="M1262.51 124.766C1262.33 125.25 1261.67 125.673 1260.41 125.772C1259.21 125.867 1257.64 125.636 1256.01 125.033C1254.38 124.431 1253.04 123.588 1252.18 122.733C1251.3 121.845 1251.07 121.094 1251.25 120.61C1251.43 120.126 1252.09 119.704 1253.34 119.605C1254.54 119.51 1256.11 119.741 1257.74 120.343C1259.37 120.945 1260.72 121.788 1261.57 122.643C1262.46 123.531 1262.68 124.282 1262.51 124.766Z" fill="#FFB5B5" stroke="black"/>
<path d="M988.088 109.357L1070.98 98.6063L1127.49 134.056L1113.99 136.591L1100.49 139.127L1095.6 172.894C1054.58 193.909 1020.12 173.209 1008.01 160.232L1012.78 127.239L988.088 109.357Z" fill="#FFB5B5"/>
<path d="M1012.78 127.239L1043.88 149.756L1100.49 139.127M1012.78 127.239L988.088 109.357L1070.98 98.6063L1127.49 134.056L1113.99 136.591M1012.78 127.239L1008.01 160.232C1020.12 173.209 1054.58 193.909 1095.6 172.894L1100.49 139.127M1100.49 139.127L1113.99 136.591M1113.99 136.591L1107.18 183.661" stroke="black"/>
<path d="M1063.51 122.282C1063.44 122.793 1062.88 123.344 1061.68 123.701C1060.52 124.045 1058.94 124.147 1057.22 123.898C1055.5 123.649 1054.01 123.104 1053 122.446C1051.94 121.763 1051.56 121.076 1051.64 120.565C1051.71 120.055 1052.27 119.503 1053.47 119.146C1054.63 118.802 1056.21 118.7 1057.93 118.949C1059.66 119.198 1061.14 119.743 1062.16 120.401C1063.21 121.084 1063.59 121.771 1063.51 122.282Z" fill="#FFB5B5" stroke="black"/>
<path d="M1091.72 125.792L1169.82 96.0142L1233.03 117.314L1220.49 122.927L1207.96 128.54L1211.08 162.514C1176.08 192.515 1137.75 180.418 1122.95 170.62L1119.9 137.424L1091.72 125.792Z" fill="#FFB5B5"/>
<path d="M1119.9 137.424L1155.39 152.071L1207.96 128.54M1119.9 137.424L1091.72 125.792L1169.82 96.0142L1233.03 117.314L1220.49 122.927M1119.9 137.424L1122.95 170.62C1137.75 180.418 1176.08 192.515 1211.08 162.514L1207.96 128.54M1207.96 128.54L1220.49 122.927M1220.49 122.927L1224.85 170.286" stroke="black"/>
<circle cx="1225.4" cy="176.261" r="6" transform="rotate(-5.25478 1225.4 176.261)" fill="#FFB5B5" stroke="black"/>
<path d="M1168.08 120.778C1168.13 121.291 1167.71 121.958 1166.62 122.586C1165.58 123.19 1164.06 123.657 1162.33 123.817C1160.6 123.976 1159.03 123.793 1157.89 123.389C1156.7 122.97 1156.18 122.39 1156.13 121.877C1156.08 121.363 1156.5 120.697 1157.58 120.069C1158.63 119.464 1160.14 118.997 1161.87 118.838C1163.61 118.678 1165.18 118.861 1166.32 119.265C1167.5 119.684 1168.03 120.264 1168.08 120.778Z" fill="#FFB5B5" stroke="black"/>
<path d="M1402 169.449L1401.03 159.372C1402.2 159.361 1404.93 158.825 1406.43 156.764L1413.71 163.798L1402 169.449Z" fill="#FFB5B5" stroke="black"/>
<path d="M1258.45 152.685L1321.16 97.4296L1387.83 95.2298L1378.06 104.88L1368.28 114.531L1383.11 145.257C1360.84 185.618 1320.7 187.72 1303.41 183.726L1288.92 153.704L1258.45 152.685Z" fill="#FFB5B5"/>
<path d="M1288.92 153.704L1327.29 154.988L1368.28 114.531M1288.92 153.704L1258.45 152.685L1321.16 97.4296L1387.83 95.2298L1378.06 104.88M1288.92 153.704L1303.41 183.726C1320.7 187.72 1360.84 185.618 1383.11 145.257L1368.28 114.531M1368.28 114.531L1378.06 104.88M1378.06 104.88L1398.73 147.711" stroke="black"/>
<circle cx="1401.34" cy="153.115" r="6" transform="rotate(-25.765 1401.34 153.115)" fill="#FFB5B5" stroke="black"/>
<path d="M1328.21 121.233C1328.43 121.697 1328.28 122.467 1327.48 123.435C1326.71 124.368 1325.46 125.336 1323.89 126.092C1322.33 126.848 1320.79 127.228 1319.58 127.249C1318.33 127.271 1317.63 126.913 1317.4 126.449C1317.18 125.984 1317.33 125.215 1318.13 124.246C1318.9 123.313 1320.15 122.345 1321.72 121.589C1323.29 120.833 1324.82 120.453 1326.03 120.432C1327.29 120.411 1327.99 120.768 1328.21 121.233Z" fill="#FFB5B5" stroke="black"/>
<path d="M1350.96 101.091L1434.54 101.196L1485.97 143.684L1472.25 144.444L1458.53 145.205L1449.31 178.052C1405.9 193.561 1374.42 168.561 1364.11 154.122L1373.12 122.028L1350.96 101.091Z" fill="#FFB5B5"/>
<path d="M1373.12 122.028L1401.03 148.393L1458.53 145.205M1373.12 122.028L1350.96 101.091L1434.54 101.196L1485.97 143.684L1472.25 144.444M1373.12 122.028L1364.11 154.122C1374.42 168.561 1405.9 193.561 1449.31 178.052L1458.53 145.205M1458.53 145.205L1472.25 144.444M1472.25 144.444L1459.39 190.232" stroke="black"/>
<path d="M1424.06 123.702C1423.93 124.198 1423.3 124.672 1422.06 124.871C1420.87 125.061 1419.29 124.956 1417.61 124.486C1415.94 124.016 1414.53 123.282 1413.61 122.498C1412.66 121.684 1412.37 120.953 1412.51 120.457C1412.65 119.96 1413.28 119.486 1414.52 119.288C1415.71 119.097 1417.29 119.202 1418.96 119.672C1420.64 120.143 1422.04 120.876 1422.96 121.66C1423.92 122.474 1424.2 123.205 1424.06 123.702Z" fill="#FFB5B5" stroke="black"/>
<path d="M341.026 132.302L416.201 95.7591L481.048 111.407L469.052 118.103L457.057 124.798L463.162 158.366C430.942 191.333 391.69 182.66 376.091 174.203L370.125 141.405L341.026 132.302Z" fill="#FFB5B5"/>
<path d="M370.125 141.405L406.768 152.869L457.057 124.798M370.125 141.405L341.026 132.302L416.201 95.7591L481.048 111.407L469.052 118.103M370.125 141.405L376.091 174.203C391.69 182.66 430.942 191.333 463.162 158.366L457.057 124.798M457.057 124.798L469.052 118.103M469.052 118.103L477.563 164.894" stroke="black"/>
<circle cx="478.637" cy="170.797" r="6" transform="rotate(-10.3089 478.637 170.797)" fill="#FFB5B5" stroke="black"/>
<path d="M416.65 120.579C416.742 121.087 416.387 121.787 415.361 122.509C414.372 123.203 412.905 123.801 411.194 124.113C409.482 124.424 407.899 124.38 406.729 124.079C405.514 123.765 404.936 123.234 404.843 122.727C404.751 122.219 405.105 121.519 406.132 120.798C407.121 120.103 408.588 119.505 410.299 119.193C412.01 118.882 413.594 118.926 414.764 119.228C415.979 119.541 416.557 120.072 416.65 120.579Z" fill="#FFB5B5" stroke="black"/>
<path d="M238.399 182.968L239.522 172.906C240.674 173.138 243.453 173.176 245.347 171.469L251.02 179.855L238.399 182.968Z" fill="#FFB5B5" stroke="black"/>
<path d="M101.389 136.941L174.157 95.8169L239.848 107.422L228.29 114.847L216.732 122.273L224.903 155.398C194.784 190.295 155.071 184.068 138.979 176.593L130.995 144.227L101.389 136.941Z" fill="#FFB5B5"/>
<path d="M130.995 144.227L168.277 153.401L216.732 122.273M130.995 144.227L101.389 136.941L174.157 95.8169L239.848 107.422L228.29 114.847M130.995 144.227L138.979 176.593C155.071 184.068 194.784 190.295 224.903 155.398L216.732 122.273M216.732 122.273L228.29 114.847M228.29 114.847L239.68 161.022" stroke="black"/>
<circle cx="241.117" cy="166.848" r="6" transform="rotate(-13.8565 241.117 166.848)" fill="#FFB5B5" stroke="black"/>
<path d="M176.141 120.562C176.265 121.063 175.954 121.784 174.974 122.567C174.031 123.321 172.603 124.01 170.915 124.426C169.226 124.843 167.642 124.897 166.456 124.668C165.224 124.431 164.614 123.937 164.491 123.436C164.367 122.935 164.677 122.214 165.658 121.431C166.601 120.676 168.028 119.988 169.717 119.572C171.406 119.155 172.989 119.101 174.176 119.329C175.408 119.567 176.018 120.061 176.141 120.562Z" fill="#FFB5B5" stroke="black"/>
</svg>
