<svg width="375" height="138" viewBox="0 0 375 138" fill="none" xmlns="http://www.w3.org/2000/svg">
<path d="M126.011 102.71L127.042 92.6384C128.197 92.8602 130.976 92.8726 132.854 91.1485L138.604 99.4818L126.011 102.71Z" fill="#FFB5B5" stroke="black"/>
<path d="M-11.4127 57.9334L60.9785 16.1479L126.773 27.1543L115.283 34.6845L103.793 42.2146L112.265 75.2639C82.4653 110.434 42.6965 104.57 26.5371 97.2407L18.2589 64.9489L-11.4127 57.9334Z" fill="#FFB5B5"/>
<path d="M18.2589 64.9489L55.623 73.7832L103.793 42.2146M18.2589 64.9489L-11.4127 57.9334L60.9785 16.1479L126.773 27.1543L115.283 34.6845M18.2589 64.9489L26.5371 97.2407C42.6965 104.57 82.4653 110.434 112.265 75.2639L103.793 42.2146M103.793 42.2146L115.283 34.6845M115.283 34.6845L127.093 80.7537" stroke="black"/>
<circle cx="128.582" cy="86.5658" r="6" transform="rotate(-14.3785 128.582 86.5658)" fill="#FFB5B5" stroke="black"/>
<path d="M63.1879 40.8737C63.316 41.3734 63.0122 42.0972 62.0392 42.8895C61.1024 43.6522 59.6816 44.3534 57.9967 44.7854C56.3117 45.2173 54.7288 45.2861 53.5406 45.0681C52.3064 44.8417 51.6919 44.3533 51.5638 43.8536C51.4357 43.354 51.7395 42.6302 52.7125 41.8379C53.6493 41.0751 55.0701 40.3739 56.755 39.942C58.44 39.5101 60.0229 39.4412 61.2111 39.6593C62.4453 39.8857 63.0598 40.374 63.1879 40.8737Z" fill="#FFB5B5" stroke="black"/>
<path d="M275.999 54.1574L352.782 21.1296L416.836 39.7591L404.544 45.893L392.252 52.0269L396.799 85.8406C363.088 117.283 324.279 106.805 309.088 97.6353L304.645 64.5966L275.999 54.1574Z" fill="#FFB5B5"/>
<path d="M304.645 64.5966L340.719 77.7423L392.252 52.0269M304.645 64.5966L275.999 54.1574L352.782 21.1296L416.836 39.7591L404.544 45.893M304.645 64.5966L309.088 97.6353C324.279 106.805 363.088 117.283 396.799 85.8406L392.252 52.0269M392.252 52.0269L404.544 45.893M404.544 45.893L410.882 93.0278" stroke="black"/>
<path d="M352.083 45.9443C352.151 46.4555 351.765 47.1388 350.706 47.8118C349.686 48.4597 348.193 48.9898 346.469 49.2216C344.746 49.4534 343.165 49.3366 342.011 48.981C340.812 48.6117 340.259 48.0548 340.19 47.5436C340.121 47.0323 340.507 46.3491 341.567 45.6761C342.586 45.0282 344.079 44.498 345.803 44.2662C347.527 44.0344 349.107 44.1513 350.262 44.5068C351.461 44.8761 352.014 45.433 352.083 45.9443Z" fill="#FFB5B5" stroke="black"/>
<path d="M297.028 121.226L302.172 112.506C303.129 113.19 305.649 114.362 308.076 113.58L309.818 123.553L297.028 121.226Z" fill="#FFB5B5" stroke="black"/>
<path d="M190.874 23.1365L274.102 15.4118L329.282 52.8964L315.697 54.9383L302.112 56.9801L296.004 90.5469C254.237 110.053 220.555 88.1119 208.934 74.7028L214.902 41.9054L190.874 23.1365Z" fill="#FFB5B5"/>
<path d="M214.902 41.9054L245.16 65.5403L302.112 56.9801M214.902 41.9054L190.874 23.1365L274.102 15.4118L329.282 52.8964L315.697 54.9383M214.902 41.9054L208.934 74.7028C220.555 88.1119 254.237 110.053 296.004 90.5469L302.112 56.9801M302.112 56.9801L315.697 54.9383M315.697 54.9383L307.183 101.729" stroke="black"/>
<circle cx="306.109" cy="107.632" r="6" transform="rotate(10.3132 306.109 107.632)" fill="#FFB5B5" stroke="black"/>
<path d="M265.78 38.8C265.688 39.3075 265.109 39.8382 263.894 40.1516C262.724 40.4532 261.141 40.4968 259.429 40.1854C257.718 39.874 256.251 39.2753 255.263 38.5809C254.236 37.8596 253.882 37.1591 253.974 36.6516C254.066 36.1441 254.645 35.6134 255.86 35.3001C257.029 34.9984 258.613 34.9548 260.325 35.2662C262.036 35.5776 263.503 36.1763 264.491 36.8708C265.518 37.5921 265.872 38.2925 265.78 38.8Z" fill="#FFB5B5" stroke="black"/>
<path d="M200.919 124.395L204.764 115.03C205.809 115.57 208.47 116.37 210.76 115.249L213.91 124.871L200.919 124.395Z" fill="#FFB5B5" stroke="black"/>
<path d="M81.8352 42.4849L163.104 22.9444L223.076 52.1575L209.922 56.1201L196.768 60.0826L195.521 94.1778C156.97 119.453 120.497 102.551 107.08 90.9407L108.299 57.627L81.8352 42.4849Z" fill="#FFB5B5"/>
<path d="M108.299 57.627L141.624 76.6947L196.768 60.0826M108.299 57.627L81.8352 42.4849L163.104 22.9444L223.076 52.1575L209.922 56.1201M108.299 57.627L107.08 90.9407C120.497 102.551 156.97 119.453 195.521 94.1778L196.768 60.0826M196.768 60.0826L209.922 56.1201M209.922 56.1201L208.183 103.647" stroke="black"/>
<circle cx="207.963" cy="109.643" r="6" transform="rotate(2.09616 207.963 109.643)" fill="#FFB5B5" stroke="black"/>
<path d="M158.211 47.2816C158.192 47.7971 157.696 48.405 156.538 48.8888C155.423 49.3546 153.862 49.6241 152.124 49.5605C150.385 49.4969 148.848 49.1139 147.77 48.5679C146.651 48.0008 146.2 47.3582 146.219 46.8427C146.238 46.3272 146.734 45.7193 147.892 45.2355C149.007 44.7697 150.568 44.5002 152.306 44.5638C154.045 44.6275 155.582 45.0104 156.66 45.5564C157.779 46.1235 158.23 46.7661 158.211 47.2816Z" fill="#FFB5B5" stroke="black"/>
<path d="M143.431 72.4829L226.741 79.2534L274.616 125.708L260.883 125.372L247.149 125.036L235.334 157.043C190.825 169.04 161.439 141.609 152.31 126.394L163.855 95.1208L143.431 72.4829Z" fill="#FFB5B5"/>
<path d="M163.855 95.1208L189.574 123.628L247.149 125.036M163.855 95.1208L143.431 72.4829L226.741 79.2534L274.616 125.708L260.883 125.372M163.855 95.1208L152.31 126.394C161.439 141.609 190.825 169.04 235.334 157.043L247.149 125.036M247.149 125.036L260.883 125.372M260.883 125.372L244.412 169.988" stroke="black"/>
<path d="M214.504 100.852C214.325 101.336 213.664 101.759 212.413 101.857C211.209 101.953 209.641 101.722 208.009 101.119C206.378 100.517 205.036 99.6739 204.183 98.8191C203.296 97.9313 203.068 97.1802 203.247 96.6963C203.425 96.2123 204.087 95.7895 205.337 95.6908C206.542 95.5957 208.109 95.8264 209.741 96.4288C211.373 97.0312 212.714 97.8744 213.568 98.7291C214.455 99.617 214.683 100.368 214.504 100.852Z" fill="#FFB5B5" stroke="black"/>
<path d="M-59.9125 85.4433L22.9785 74.6922L79.4879 110.142L65.9863 112.677L52.4846 115.213L47.6033 148.98C6.5745 169.995 -27.8851 149.295 -39.9863 136.318L-35.2168 103.325L-59.9125 85.4433Z" fill="#FFB5B5"/>
<path d="M-35.2168 103.325L-4.11841 125.842L52.4846 115.213M-35.2168 103.325L-59.9125 85.4433L22.9785 74.6922L79.4879 110.142L65.9863 112.677M-35.2168 103.325L-39.9863 136.318C-27.8851 149.295 6.5745 169.995 47.6033 148.98L52.4846 115.213M52.4846 115.213L65.9863 112.677M65.9863 112.677L59.1819 159.747" stroke="black"/>
<path d="M15.5144 98.3679C15.4406 98.8784 14.882 99.4298 13.6792 99.7873C12.5212 100.131 10.94 100.233 9.21849 99.9837C7.49698 99.7349 6.00922 99.19 4.99609 98.532C3.94373 97.8486 3.5641 97.1616 3.6379 96.651C3.71171 96.1405 4.27036 95.5891 5.47319 95.2317C6.63118 94.8876 8.21235 94.7863 9.93386 95.0352C11.6554 95.284 13.1431 95.8289 14.1563 96.4869C15.2086 97.1703 15.5883 97.8574 15.5144 98.3679Z" fill="#FFB5B5" stroke="black"/>
<path d="M43.715 101.878L121.816 72.1001L185.032 93.4L172.494 99.0129L159.955 104.626L163.08 138.6C128.08 168.601 89.7446 156.504 74.9518 146.706L71.8987 113.51L43.715 101.878Z" fill="#FFB5B5"/>
<path d="M71.8987 113.51L107.389 128.157L159.955 104.626M71.8987 113.51L43.715 101.878L121.816 72.1001L185.032 93.4L172.494 99.0129M71.8987 113.51L74.9518 146.706C89.7446 156.504 128.08 168.601 163.08 138.6L159.955 104.626M159.955 104.626L172.494 99.0129M172.494 99.0129L176.849 146.372" stroke="black"/>
<path d="M120.077 96.8636C120.124 97.3773 119.709 98.0437 118.623 98.6717C117.577 99.2762 116.063 99.7433 114.331 99.9026C112.599 100.062 111.025 99.8788 109.886 99.4752C108.704 99.0559 108.174 98.4763 108.127 97.9626C108.08 97.4489 108.495 96.7825 109.581 96.1545C110.627 95.5499 112.141 95.0829 113.873 94.9236C115.605 94.7643 117.179 94.9473 118.317 95.351C119.5 95.7703 120.029 96.3499 120.077 96.8636Z" fill="#FFB5B5" stroke="black"/>
<path d="M354.003 145.535L353.026 135.458C354.202 135.447 356.929 134.911 358.43 132.85L365.711 139.884L354.003 145.535Z" fill="#FFB5B5" stroke="black"/>
<path d="M210.444 128.77L273.161 73.5155L339.833 71.3158L330.056 80.9661L320.279 90.6164L335.109 121.343C312.84 161.704 272.696 163.806 255.408 159.812L240.917 129.79L210.444 128.77Z" fill="#FFB5B5"/>
<path d="M240.917 129.79L279.29 131.074L320.279 90.6164M240.917 129.79L210.444 128.77L273.161 73.5155L339.833 71.3158L330.056 80.9661M240.917 129.79L255.408 159.812C272.696 163.806 312.84 161.704 335.109 121.343L320.279 90.6164M320.279 90.6164L330.056 80.9661M330.056 80.9661L350.729 123.797" stroke="black"/>
<circle cx="353.337" cy="129.2" r="6" transform="rotate(-25.765 353.337 129.2)" fill="#FFB5B5" stroke="black"/>
<path d="M280.208 97.3185C280.433 97.7831 280.278 98.5526 279.48 99.5214C278.712 100.454 277.458 101.422 275.892 102.178C274.325 102.934 272.787 103.314 271.579 103.335C270.324 103.357 269.626 102.999 269.401 102.535C269.177 102.07 269.332 101.301 270.129 100.332C270.897 99.3992 272.152 98.4312 273.718 97.6752C275.285 96.9191 276.823 96.5391 278.031 96.5182C279.285 96.4966 279.984 96.854 280.208 97.3185Z" fill="#FFB5B5" stroke="black"/>
<path d="M302.955 77.177L386.54 77.2817L437.968 119.77L424.251 120.53L410.535 121.291L401.309 154.138C357.899 169.647 326.419 144.647 316.106 130.208L325.12 98.1139L302.955 77.177Z" fill="#FFB5B5"/>
<path d="M325.12 98.1139L353.03 124.479L410.535 121.291M325.12 98.1139L302.955 77.177L386.54 77.2817L437.968 119.77L424.251 120.53M325.12 98.1139L316.106 130.208C326.419 144.647 357.899 169.647 401.309 154.138L410.535 121.291M410.535 121.291L424.251 120.53M424.251 120.53L411.391 166.318" stroke="black"/>
<path d="M376.065 99.7874C375.926 100.284 375.3 100.758 374.061 100.956C372.868 101.147 371.287 101.042 369.613 100.572C367.938 100.102 366.534 99.3682 365.614 98.5842C364.66 97.7699 364.373 97.0394 364.512 96.5427C364.651 96.0461 365.277 95.5719 366.516 95.3737C367.709 95.1829 369.29 95.2879 370.964 95.7582C372.639 96.2285 374.043 96.962 374.963 97.746C375.917 98.5603 376.204 99.2908 376.065 99.7874Z" fill="#FFB5B5" stroke="black"/>
</svg>
