<svg width="750" height="254" viewBox="0 0 750 254" fill="none" xmlns="http://www.w3.org/2000/svg">
<path d="M97.7584 101.925C99.0084 101.925 100.233 101.875 101.433 101.775C102.683 101.675 104.033 101.6 105.483 101.55C106.033 102.7 106.783 104.375 107.733 106.575C108.733 108.775 109.858 111.3 111.108 114.15C112.358 117 113.683 120.025 115.083 123.225C116.533 126.375 117.933 129.5 119.283 132.6C119.283 132.6 119.308 132.625 119.358 132.675C119.458 132.725 119.533 132.75 119.583 132.75C119.633 132.75 119.683 132.7 119.733 132.6C119.833 132.45 119.883 132.35 119.883 132.3C119.883 132.3 120.183 131.575 120.783 130.125C121.383 128.625 122.133 126.725 123.033 124.425C123.933 122.125 124.858 119.7 125.808 117.15C126.808 114.6 127.708 112.225 128.508 110.025C128.908 108.975 129.283 107.825 129.633 106.575C130.033 105.275 130.358 104.15 130.608 103.2C130.858 102.25 130.983 101.775 130.983 101.775C131.233 101.775 131.883 101.8 132.933 101.85C134.033 101.9 135.183 101.95 136.383 102C137.583 102 138.408 102 138.858 102C140.108 102 141.483 101.95 142.983 101.85C144.483 101.7 145.958 101.6 147.408 101.55C147.558 101.7 147.683 102.125 147.783 102.825C147.933 103.525 147.908 104.025 147.708 104.325C147.408 104.325 146.783 104.4 145.833 104.55C144.933 104.65 144.283 104.825 143.883 105.075C143.533 105.325 143.258 105.65 143.058 106.05C142.908 106.4 142.858 107.075 142.908 108.075C142.958 109.325 143.008 111.2 143.058 113.7C143.158 116.15 143.258 118.875 143.358 121.875C143.458 124.875 143.558 127.875 143.658 130.875C143.758 133.875 143.858 136.55 143.958 138.9C144.058 140.3 144.158 141.65 144.258 142.95C144.358 144.2 144.583 145.3 144.933 146.25C145.083 146.6 145.483 146.875 146.133 147.075C146.833 147.275 147.533 147.425 148.233 147.525C148.933 147.575 149.383 147.6 149.583 147.6C149.983 148.45 150.033 149.35 149.733 150.3C148.283 150.2 146.658 150.075 144.858 149.925C143.058 149.775 141.358 149.7 139.758 149.7C138.058 149.7 136.133 149.775 133.983 149.925C131.833 150.075 129.908 150.2 128.208 150.3C128.058 150.15 127.958 149.75 127.908 149.1C127.908 148.4 127.958 147.9 128.058 147.6C128.358 147.6 128.883 147.55 129.633 147.45C130.383 147.35 131.108 147.2 131.808 147C132.558 146.8 133.033 146.525 133.233 146.175C133.433 145.875 133.583 145.475 133.683 144.975C133.783 144.425 133.833 143.975 133.833 143.625C133.833 143.225 133.833 142.55 133.833 141.6C133.833 140.6 133.808 139.775 133.758 139.125L133.008 113.625C133.008 113.525 132.983 113.175 132.933 112.575C132.883 111.975 132.733 111.675 132.483 111.675C132.383 111.675 132.258 111.85 132.108 112.2L119.208 147.075C119.158 147.275 118.958 147.625 118.608 148.125C118.258 148.625 117.858 149.1 117.408 149.55C116.958 149.95 116.508 150.15 116.058 150.15C115.908 150.15 115.683 150.1 115.383 150L99.1084 111.675C99.0084 114.725 98.9084 117.325 98.8084 119.475C98.7584 121.575 98.7084 123.425 98.6584 125.025C98.6084 126.575 98.5584 128.075 98.5084 129.525C98.4584 130.975 98.4084 132.55 98.3584 134.25C98.3084 135.9 98.2334 137.875 98.1334 140.175C98.0834 140.975 98.1084 141.975 98.2084 143.175C98.3084 144.325 98.3834 145.025 98.4334 145.275C98.5334 145.675 98.8834 146.025 99.4834 146.325C100.083 146.625 100.758 146.875 101.508 147.075C102.308 147.225 103.008 147.35 103.608 147.45C104.258 147.55 104.658 147.6 104.808 147.6C104.908 147.85 104.983 148.275 105.033 148.875C105.083 149.425 105.058 149.9 104.958 150.3C103.508 150.2 102.033 150.075 100.533 149.925C99.0334 149.775 97.4834 149.7 95.8834 149.7C94.1834 149.7 92.6584 149.775 91.3084 149.925C89.9584 150.075 88.4334 150.2 86.7334 150.3C86.5834 150.05 86.5084 149.65 86.5084 149.1C86.5084 148.5 86.5584 148.025 86.6584 147.675C86.9584 147.675 87.5584 147.6 88.4584 147.45C89.3584 147.25 90.2584 146.95 91.1584 146.55C92.0584 146.15 92.6334 145.65 92.8834 145.05C92.9834 144.8 93.0834 144.25 93.1834 143.4C93.3334 142.5 93.4584 141.575 93.5584 140.625C93.6584 139.675 93.7084 139 93.7084 138.6C93.8084 136.9 93.9084 134.85 94.0084 132.45C94.1084 130.05 94.2084 127.55 94.3084 124.95C94.4084 122.35 94.5084 119.85 94.6084 117.45C94.7084 115.05 94.7834 112.975 94.8334 111.225C94.8834 109.425 94.9334 108.175 94.9834 107.475C94.9834 107.225 94.9584 106.95 94.9084 106.65C94.9084 106.35 94.8084 106.075 94.6084 105.825C94.3084 105.425 93.6084 105.075 92.5084 104.775C91.4084 104.425 90.5334 104.25 89.8834 104.25C89.6834 103.95 89.6084 103.45 89.6584 102.75C89.7584 102 89.8334 101.6 89.8834 101.55C91.0334 101.6 91.9584 101.65 92.6584 101.7C93.4084 101.75 94.1584 101.8 94.9084 101.85C95.7084 101.9 96.6584 101.925 97.7584 101.925ZM175.741 102C177.291 102 179.041 101.975 180.991 101.925C182.941 101.825 184.616 101.7 186.016 101.55C186.166 101.75 186.241 102.2 186.241 102.9C186.291 103.55 186.216 104 186.016 104.25C185.716 104.25 185.216 104.3 184.516 104.4C183.816 104.45 183.141 104.575 182.491 104.775C181.891 104.925 181.516 105.175 181.366 105.525C181.066 106.275 180.891 107.225 180.841 108.375C180.791 109.475 180.766 110.825 180.766 112.425V125.85C180.766 128.3 180.866 130.525 181.066 132.525C181.266 134.475 181.766 136.425 182.566 138.375C183.516 140.525 184.666 142.1 186.016 143.1C187.416 144.05 188.816 144.675 190.216 144.975C191.616 145.225 192.791 145.35 193.741 145.35C195.691 145.35 197.566 144.75 199.366 143.55C201.166 142.3 202.641 140.35 203.791 137.7C204.991 135.05 205.591 131.6 205.591 127.35V114.9C205.591 113.3 205.491 111.6 205.291 109.8C205.091 108 204.841 106.725 204.541 105.975C204.341 105.475 203.866 105.125 203.116 104.925C202.366 104.675 201.591 104.5 200.791 104.4C199.991 104.3 199.416 104.25 199.066 104.25C198.866 104 198.766 103.55 198.766 102.9C198.816 102.2 198.916 101.75 199.066 101.55C200.816 101.7 202.341 101.825 203.641 101.925C204.991 101.975 206.516 102 208.216 102C209.816 102 211.266 101.95 212.566 101.85C213.866 101.7 215.266 101.6 216.766 101.55C216.916 101.75 216.991 102.2 216.991 102.9C217.041 103.55 216.966 104 216.766 104.25C216.466 104.25 215.891 104.3 215.041 104.4C214.191 104.45 213.366 104.6 212.566 104.85C211.816 105.05 211.341 105.425 211.141 105.975C210.841 106.725 210.591 108 210.391 109.8C210.191 111.55 210.091 113.225 210.091 114.825V129.075C210.091 134.025 209.141 138.1 207.241 141.3C205.391 144.5 202.941 146.875 199.891 148.425C196.891 149.925 193.616 150.675 190.066 150.675C187.016 150.675 184.116 150.15 181.366 149.1C178.616 148.05 176.366 146.425 174.616 144.225C173.216 142.425 172.166 140.225 171.466 137.625C170.816 134.975 170.491 131.75 170.491 127.95V112.425C170.491 110.825 170.466 109.475 170.416 108.375C170.366 107.225 170.191 106.275 169.891 105.525C169.791 105.175 169.416 104.925 168.766 104.775C168.116 104.575 167.441 104.45 166.741 104.4C166.091 104.3 165.591 104.25 165.241 104.25C165.041 104 164.941 103.55 164.941 102.9C164.991 102.2 165.091 101.75 165.241 101.55C166.691 101.7 168.416 101.825 170.416 101.925C172.416 101.975 174.191 102 175.741 102ZM247.359 139.65C247.359 139.65 247.359 139.7 247.359 139.8C247.359 140.05 247.359 140.55 247.359 141.3C247.359 142 247.384 142.75 247.434 143.55C247.534 144.35 247.684 144.975 247.884 145.425C248.134 145.925 248.759 146.3 249.759 146.55C250.759 146.8 251.734 146.925 252.684 146.925H257.484C258.884 146.925 260.159 146.725 261.309 146.325C262.509 145.925 263.509 145.325 264.309 144.525C265.109 143.725 265.809 142.775 266.409 141.675C267.009 140.575 267.634 139.2 268.284 137.55C268.384 137.25 268.709 137.1 269.259 137.1C269.659 137.1 270.109 137.15 270.609 137.25C271.109 137.35 271.409 137.45 271.509 137.55C271.059 138.85 270.559 140.275 270.009 141.825C269.459 143.375 268.959 144.875 268.509 146.325C268.059 147.775 267.734 149.05 267.534 150.15H242.259C239.659 150.15 237.384 150.15 235.434 150.15C233.484 150.2 232.259 150.225 231.759 150.225C231.609 149.975 231.509 149.525 231.459 148.875C231.459 148.225 231.559 147.775 231.759 147.525C232.109 147.475 232.634 147.425 233.334 147.375C234.034 147.275 234.709 147.15 235.359 147C236.009 146.8 236.384 146.55 236.484 146.25C236.784 145.5 236.959 144.55 237.009 143.4C237.059 142.25 237.084 140.9 237.084 139.35V112.425C237.084 110.825 237.059 109.475 237.009 108.375C236.959 107.225 236.784 106.275 236.484 105.525C236.384 105.175 236.009 104.925 235.359 104.775C234.709 104.575 234.034 104.45 233.334 104.4C232.634 104.3 232.109 104.25 231.759 104.25C231.559 104 231.459 103.55 231.459 102.9C231.509 102.2 231.609 101.75 231.759 101.55C233.209 101.7 234.934 101.825 236.934 101.925C238.934 101.975 240.709 102 242.259 102C243.809 102 245.559 101.975 247.509 101.925C249.509 101.825 251.209 101.7 252.609 101.55C252.759 101.75 252.834 102.2 252.834 102.9C252.884 103.55 252.809 104 252.609 104.25C252.309 104.25 251.784 104.3 251.034 104.4C250.334 104.45 249.659 104.575 249.009 104.775C248.409 104.925 248.034 105.175 247.884 105.525C247.634 106.175 247.484 107 247.434 108C247.384 109 247.359 110.15 247.359 111.45C247.359 111.6 247.359 111.775 247.359 111.975C247.359 112.125 247.359 112.275 247.359 112.425V139.65ZM314.251 101.85C316.001 101.85 317.326 101.75 318.226 101.55C319.176 101.3 319.901 101.075 320.401 100.875C320.901 100.625 321.376 100.5 321.826 100.5C322.126 100.5 322.301 100.525 322.351 100.575C322.451 100.575 322.576 100.625 322.726 100.725L324.676 114.15C324.576 114.25 324.276 114.375 323.776 114.525C323.326 114.625 322.926 114.675 322.576 114.675C322.126 114.675 321.876 114.55 321.826 114.3C321.576 112.7 321.076 111.2 320.326 109.8C319.576 108.4 318.651 107.275 317.551 106.425C316.451 105.525 315.276 105.075 314.026 105.075H307.201V139.35C307.201 140.9 307.226 142.25 307.276 143.4C307.326 144.55 307.501 145.5 307.801 146.25C307.951 146.55 308.326 146.8 308.926 147C309.576 147.2 310.251 147.35 310.951 147.45C311.651 147.5 312.151 147.55 312.451 147.6C312.651 147.85 312.726 148.3 312.676 148.95C312.676 149.6 312.601 150.05 312.451 150.3C311.051 150.15 309.351 150.025 307.351 149.925C305.351 149.825 303.576 149.775 302.026 149.775C300.476 149.775 298.726 149.825 296.776 149.925C294.826 150.025 293.126 150.15 291.676 150.3C291.526 150.05 291.426 149.6 291.376 148.95C291.376 148.3 291.476 147.85 291.676 147.6C292.026 147.55 292.526 147.5 293.176 147.45C293.876 147.35 294.551 147.2 295.201 147C295.851 146.8 296.226 146.55 296.326 146.25C296.626 145.5 296.801 144.55 296.851 143.4C296.901 142.25 296.926 140.9 296.926 139.35V105.075H290.101C288.851 105.075 287.676 105.525 286.576 106.425C285.476 107.275 284.551 108.4 283.801 109.8C283.051 111.2 282.551 112.7 282.301 114.3C282.251 114.55 282.001 114.675 281.551 114.675C281.201 114.675 280.776 114.625 280.276 114.525C279.826 114.375 279.551 114.25 279.451 114.15L281.401 100.725C281.551 100.625 281.651 100.575 281.701 100.575C281.801 100.525 282.001 100.5 282.301 100.5C282.751 100.5 283.226 100.625 283.726 100.875C284.226 101.075 284.926 101.3 285.826 101.55C286.776 101.75 288.126 101.85 289.876 101.85H314.251ZM350.561 102C352.111 102 353.861 101.975 355.811 101.925C357.811 101.825 359.511 101.7 360.911 101.55C361.061 101.75 361.136 102.2 361.136 102.9C361.186 103.55 361.111 104 360.911 104.25C360.611 104.25 360.086 104.3 359.336 104.4C358.636 104.45 357.961 104.575 357.311 104.775C356.711 104.925 356.336 105.175 356.186 105.525C355.936 106.175 355.786 107 355.736 108C355.686 109 355.661 110.15 355.661 111.45C355.661 111.6 355.661 111.775 355.661 111.975C355.661 112.125 355.661 112.275 355.661 112.425V139.35C355.661 139.5 355.661 139.675 355.661 139.875C355.661 140.025 355.661 140.175 355.661 140.325C355.661 141.625 355.686 142.775 355.736 143.775C355.786 144.775 355.936 145.6 356.186 146.25C356.336 146.55 356.711 146.8 357.311 147C357.961 147.2 358.636 147.35 359.336 147.45C360.086 147.5 360.611 147.55 360.911 147.6C361.111 147.85 361.186 148.3 361.136 148.95C361.136 149.6 361.061 150.05 360.911 150.3C359.511 150.15 357.786 150.025 355.736 149.925C353.736 149.825 351.961 149.775 350.411 149.775C348.861 149.775 347.111 149.825 345.161 149.925C343.211 150.025 341.511 150.15 340.061 150.3C339.911 150.05 339.811 149.6 339.761 148.95C339.761 148.3 339.861 147.85 340.061 147.6C340.411 147.55 340.936 147.5 341.636 147.45C342.336 147.35 343.011 147.2 343.661 147C344.311 146.8 344.686 146.55 344.786 146.25C345.086 145.5 345.261 144.55 345.311 143.4C345.361 142.25 345.386 140.9 345.386 139.35V112.425C345.386 110.825 345.361 109.475 345.311 108.375C345.261 107.225 345.086 106.275 344.786 105.525C344.686 105.175 344.311 104.925 343.661 104.775C343.011 104.575 342.336 104.45 341.636 104.4C340.936 104.3 340.411 104.25 340.061 104.25C339.861 104 339.761 103.55 339.761 102.9C339.811 102.2 339.911 101.75 340.061 101.55C341.511 101.7 343.236 101.825 345.236 101.925C347.236 101.975 349.011 102 350.561 102ZM388.105 101.925C389.355 101.925 390.58 101.875 391.78 101.775C393.03 101.675 394.38 101.6 395.83 101.55C396.38 102.7 397.13 104.375 398.08 106.575C399.08 108.775 400.205 111.3 401.455 114.15C402.705 117 404.03 120.025 405.43 123.225C406.88 126.375 408.28 129.5 409.63 132.6C409.63 132.6 409.655 132.625 409.705 132.675C409.805 132.725 409.88 132.75 409.93 132.75C409.98 132.75 410.03 132.7 410.08 132.6C410.18 132.45 410.23 132.35 410.23 132.3C410.23 132.3 410.53 131.575 411.13 130.125C411.73 128.625 412.48 126.725 413.38 124.425C414.28 122.125 415.205 119.7 416.155 117.15C417.155 114.6 418.055 112.225 418.855 110.025C419.255 108.975 419.63 107.825 419.98 106.575C420.38 105.275 420.705 104.15 420.955 103.2C421.205 102.25 421.33 101.775 421.33 101.775C421.58 101.775 422.23 101.8 423.28 101.85C424.38 101.9 425.53 101.95 426.73 102C427.93 102 428.755 102 429.205 102C430.455 102 431.83 101.95 433.33 101.85C434.83 101.7 436.305 101.6 437.755 101.55C437.905 101.7 438.03 102.125 438.13 102.825C438.28 103.525 438.255 104.025 438.055 104.325C437.755 104.325 437.13 104.4 436.18 104.55C435.28 104.65 434.63 104.825 434.23 105.075C433.88 105.325 433.605 105.65 433.405 106.05C433.255 106.4 433.205 107.075 433.255 108.075C433.305 109.325 433.355 111.2 433.405 113.7C433.505 116.15 433.605 118.875 433.705 121.875C433.805 124.875 433.905 127.875 434.005 130.875C434.105 133.875 434.205 136.55 434.305 138.9C434.405 140.3 434.505 141.65 434.605 142.95C434.705 144.2 434.93 145.3 435.28 146.25C435.43 146.6 435.83 146.875 436.48 147.075C437.18 147.275 437.88 147.425 438.58 147.525C439.28 147.575 439.73 147.6 439.93 147.6C440.33 148.45 440.38 149.35 440.08 150.3C438.63 150.2 437.005 150.075 435.205 149.925C433.405 149.775 431.705 149.7 430.105 149.7C428.405 149.7 426.48 149.775 424.33 149.925C422.18 150.075 420.255 150.2 418.555 150.3C418.405 150.15 418.305 149.75 418.255 149.1C418.255 148.4 418.305 147.9 418.405 147.6C418.705 147.6 419.23 147.55 419.98 147.45C420.73 147.35 421.455 147.2 422.155 147C422.905 146.8 423.38 146.525 423.58 146.175C423.78 145.875 423.93 145.475 424.03 144.975C424.13 144.425 424.18 143.975 424.18 143.625C424.18 143.225 424.18 142.55 424.18 141.6C424.18 140.6 424.155 139.775 424.105 139.125L423.355 113.625C423.355 113.525 423.33 113.175 423.28 112.575C423.23 111.975 423.08 111.675 422.83 111.675C422.73 111.675 422.605 111.85 422.455 112.2L409.555 147.075C409.505 147.275 409.305 147.625 408.955 148.125C408.605 148.625 408.205 149.1 407.755 149.55C407.305 149.95 406.855 150.15 406.405 150.15C406.255 150.15 406.03 150.1 405.73 150L389.455 111.675C389.355 114.725 389.255 117.325 389.155 119.475C389.105 121.575 389.055 123.425 389.005 125.025C388.955 126.575 388.905 128.075 388.855 129.525C388.805 130.975 388.755 132.55 388.705 134.25C388.655 135.9 388.58 137.875 388.48 140.175C388.43 140.975 388.455 141.975 388.555 143.175C388.655 144.325 388.73 145.025 388.78 145.275C388.88 145.675 389.23 146.025 389.83 146.325C390.43 146.625 391.105 146.875 391.855 147.075C392.655 147.225 393.355 147.35 393.955 147.45C394.605 147.55 395.005 147.6 395.155 147.6C395.255 147.85 395.33 148.275 395.38 148.875C395.43 149.425 395.405 149.9 395.305 150.3C393.855 150.2 392.38 150.075 390.88 149.925C389.38 149.775 387.83 149.7 386.23 149.7C384.53 149.7 383.005 149.775 381.655 149.925C380.305 150.075 378.78 150.2 377.08 150.3C376.93 150.05 376.855 149.65 376.855 149.1C376.855 148.5 376.905 148.025 377.005 147.675C377.305 147.675 377.905 147.6 378.805 147.45C379.705 147.25 380.605 146.95 381.505 146.55C382.405 146.15 382.98 145.65 383.23 145.05C383.33 144.8 383.43 144.25 383.53 143.4C383.68 142.5 383.805 141.575 383.905 140.625C384.005 139.675 384.055 139 384.055 138.6C384.155 136.9 384.255 134.85 384.355 132.45C384.455 130.05 384.555 127.55 384.655 124.95C384.755 122.35 384.855 119.85 384.955 117.45C385.055 115.05 385.13 112.975 385.18 111.225C385.23 109.425 385.28 108.175 385.33 107.475C385.33 107.225 385.305 106.95 385.255 106.65C385.255 106.35 385.155 106.075 384.955 105.825C384.655 105.425 383.955 105.075 382.855 104.775C381.755 104.425 380.88 104.25 380.23 104.25C380.03 103.95 379.955 103.45 380.005 102.75C380.105 102 380.18 101.6 380.23 101.55C381.38 101.6 382.305 101.65 383.005 101.7C383.755 101.75 384.505 101.8 385.255 101.85C386.055 101.9 387.005 101.925 388.105 101.925ZM467.213 101.85C467.813 101.85 468.863 101.85 470.363 101.85C471.913 101.8 473.663 101.75 475.613 101.7C477.613 101.65 479.638 101.625 481.688 101.625C483.738 101.575 485.588 101.525 487.238 101.475C488.938 101.425 490.213 101.4 491.063 101.4C491.313 103.25 491.638 105.1 492.038 106.95C492.438 108.8 492.813 110.55 493.163 112.2C493.063 112.3 492.813 112.4 492.413 112.5C492.013 112.55 491.687 112.575 491.438 112.575C490.838 112.575 490.463 112.375 490.313 111.975C489.513 109.925 488.538 108.2 487.388 106.8C486.288 105.35 484.613 104.625 482.363 104.625H476.288C475.488 104.625 474.713 104.675 473.963 104.775C473.263 104.825 472.813 105.05 472.613 105.45C472.463 105.85 472.363 106.35 472.313 106.95C472.313 107.55 472.313 108.25 472.313 109.05C472.313 109.2 472.313 109.35 472.313 109.5C472.313 109.65 472.313 109.8 472.313 109.95V123.075C472.313 123.275 472.638 123.45 473.288 123.6C473.938 123.75 474.663 123.825 475.463 123.825H479.288C480.738 123.825 481.838 123.7 482.588 123.45C483.388 123.2 484.013 122.7 484.463 121.95C484.913 121.2 485.338 120.125 485.738 118.725C485.838 118.325 486.138 118.125 486.638 118.125C487.288 118.125 487.738 118.25 487.988 118.5V132.6C487.938 132.65 487.763 132.7 487.463 132.75C487.213 132.8 486.963 132.825 486.713 132.825C486.063 132.825 485.713 132.65 485.663 132.3C485.213 130.55 484.763 129.4 484.313 128.85C483.863 128.3 483.463 127.95 483.113 127.8C482.263 127.45 480.413 127.275 477.563 127.275C476.913 127.275 476.163 127.3 475.313 127.35C474.513 127.4 473.813 127.5 473.212 127.65C472.613 127.8 472.313 128.025 472.313 128.325V139.65C472.313 139.65 472.313 139.7 472.313 139.8C472.313 140.05 472.313 140.55 472.313 141.3C472.313 142 472.338 142.75 472.388 143.55C472.488 144.35 472.638 144.975 472.838 145.425C473.088 145.925 473.713 146.3 474.713 146.55C475.713 146.8 476.688 146.925 477.638 146.925H482.438C483.838 146.925 485.113 146.725 486.263 146.325C487.463 145.925 488.463 145.325 489.263 144.525C490.063 143.725 490.763 142.775 491.363 141.675C491.963 140.575 492.588 139.2 493.238 137.55C493.338 137.25 493.663 137.1 494.213 137.1C494.613 137.1 495.063 137.15 495.563 137.25C496.063 137.35 496.363 137.45 496.463 137.55C496.013 138.85 495.513 140.275 494.963 141.825C494.413 143.375 493.913 144.875 493.463 146.325C493.013 147.775 492.688 149.05 492.487 150.15C491.988 150.15 490.838 150.15 489.038 150.15C487.238 150.15 485.063 150.15 482.513 150.15C479.963 150.15 477.288 150.15 474.488 150.15C471.738 150.15 469.088 150.15 466.538 150.15C464.038 150.15 461.888 150.15 460.088 150.15C458.338 150.2 457.213 150.225 456.713 150.225C456.563 149.975 456.463 149.525 456.412 148.875C456.412 148.225 456.513 147.775 456.713 147.525C457.063 147.475 457.588 147.425 458.288 147.375C458.988 147.275 459.663 147.15 460.313 147C460.963 146.8 461.338 146.55 461.438 146.25C461.738 145.5 461.913 144.55 461.963 143.4C462.013 142.25 462.038 140.9 462.038 139.35V112.425C462.038 110.825 462.013 109.475 461.963 108.375C461.913 107.225 461.738 106.275 461.438 105.525C461.338 105.175 460.963 104.925 460.313 104.775C459.663 104.625 458.988 104.525 458.288 104.475C457.588 104.425 457.063 104.4 456.713 104.4C456.513 104.15 456.412 103.675 456.412 102.975C456.463 102.275 456.563 101.825 456.713 101.625C458.363 101.725 460.138 101.8 462.038 101.85C463.938 101.85 465.663 101.85 467.213 101.85ZM534.481 101.625C540.131 101.625 545.056 102.575 549.256 104.475C553.506 106.325 556.781 109.025 559.081 112.575C561.431 116.125 562.606 120.4 562.606 125.4C562.606 129.7 561.856 133.425 560.356 136.575C558.906 139.675 556.856 142.25 554.206 144.3C551.606 146.3 548.556 147.8 545.056 148.8C541.606 149.75 537.906 150.225 533.956 150.225C533.556 150.225 532.981 150.225 532.231 150.225C531.531 150.225 530.681 150.225 529.681 150.225C528.281 150.225 526.706 150.225 524.956 150.225C523.256 150.225 521.556 150.225 519.856 150.225C518.206 150.225 516.731 150.225 515.431 150.225C514.181 150.225 513.281 150.225 512.731 150.225C512.581 149.975 512.481 149.525 512.431 148.875C512.431 148.225 512.531 147.775 512.731 147.525C513.081 147.475 513.606 147.425 514.306 147.375C515.006 147.275 515.681 147.15 516.331 147C516.981 146.8 517.356 146.55 517.456 146.25C517.756 145.5 517.931 144.55 517.981 143.4C518.031 142.25 518.056 140.9 518.056 139.35V112.425C518.056 110.825 518.031 109.475 517.981 108.375C517.931 107.225 517.756 106.275 517.456 105.525C517.356 105.175 516.981 104.925 516.331 104.775C515.681 104.625 515.006 104.525 514.306 104.475C513.606 104.425 513.081 104.4 512.731 104.4C512.531 104.15 512.431 103.675 512.431 102.975C512.481 102.275 512.581 101.825 512.731 101.625C514.381 101.725 516.156 101.8 518.056 101.85C519.956 101.85 521.681 101.85 523.231 101.85C524.781 101.85 526.506 101.825 528.406 101.775C530.306 101.725 532.331 101.675 534.481 101.625ZM528.331 109.95V139.65C528.331 139.65 528.331 139.7 528.331 139.8C528.331 140.05 528.331 140.55 528.331 141.3C528.331 142 528.356 142.75 528.406 143.55C528.506 144.35 528.656 144.975 528.856 145.425C529.106 145.925 529.706 146.35 530.656 146.7C531.606 147 532.556 147.15 533.506 147.15C539.456 147.15 543.831 145.45 546.631 142.05C549.481 138.6 550.906 133.325 550.906 126.225C550.906 121.425 550.106 117.425 548.506 114.225C546.906 111.025 544.706 108.625 541.906 107.025C539.156 105.425 535.956 104.625 532.306 104.625C531.506 104.625 530.731 104.675 529.981 104.775C529.281 104.825 528.831 105.05 528.631 105.45C528.481 105.85 528.381 106.35 528.331 106.95C528.331 107.55 528.331 108.25 528.331 109.05C528.331 109.2 528.331 109.35 528.331 109.5C528.331 109.65 528.331 109.8 528.331 109.95ZM590.309 102C591.859 102 593.609 101.975 595.559 101.925C597.559 101.825 599.259 101.7 600.659 101.55C600.809 101.75 600.884 102.2 600.884 102.9C600.934 103.55 600.859 104 600.659 104.25C600.359 104.25 599.834 104.3 599.084 104.4C598.384 104.45 597.709 104.575 597.059 104.775C596.459 104.925 596.084 105.175 595.934 105.525C595.684 106.175 595.534 107 595.484 108C595.434 109 595.409 110.15 595.409 111.45C595.409 111.6 595.409 111.775 595.409 111.975C595.409 112.125 595.409 112.275 595.409 112.425V139.35C595.409 139.5 595.409 139.675 595.409 139.875C595.409 140.025 595.409 140.175 595.409 140.325C595.409 141.625 595.434 142.775 595.484 143.775C595.534 144.775 595.684 145.6 595.934 146.25C596.084 146.55 596.459 146.8 597.059 147C597.709 147.2 598.384 147.35 599.084 147.45C599.834 147.5 600.359 147.55 600.659 147.6C600.859 147.85 600.934 148.3 600.884 148.95C600.884 149.6 600.809 150.05 600.659 150.3C599.259 150.15 597.534 150.025 595.484 149.925C593.484 149.825 591.709 149.775 590.159 149.775C588.609 149.775 586.859 149.825 584.909 149.925C582.959 150.025 581.259 150.15 579.809 150.3C579.659 150.05 579.559 149.6 579.509 148.95C579.509 148.3 579.609 147.85 579.809 147.6C580.159 147.55 580.684 147.5 581.384 147.45C582.084 147.35 582.759 147.2 583.409 147C584.059 146.8 584.434 146.55 584.534 146.25C584.834 145.5 585.009 144.55 585.059 143.4C585.109 142.25 585.134 140.9 585.134 139.35V112.425C585.134 110.825 585.109 109.475 585.059 108.375C585.009 107.225 584.834 106.275 584.534 105.525C584.434 105.175 584.059 104.925 583.409 104.775C582.759 104.575 582.084 104.45 581.384 104.4C580.684 104.3 580.159 104.25 579.809 104.25C579.609 104 579.509 103.55 579.509 102.9C579.559 102.2 579.659 101.75 579.809 101.55C581.259 101.7 582.984 101.825 584.984 101.925C586.984 101.975 588.759 102 590.309 102ZM622.228 140.175L637.828 104.325C638.078 103.825 638.478 103.25 639.028 102.6C639.628 101.9 640.128 101.55 640.528 101.55C641.378 101.55 641.903 101.7 642.103 102L657.103 139.125C657.603 140.225 657.978 141.2 658.228 142.05C658.478 142.85 658.778 143.65 659.128 144.45C659.578 145.45 660.203 146.175 661.003 146.625C661.853 147.075 662.653 147.35 663.403 147.45C664.203 147.55 664.703 147.6 664.903 147.6C665.103 147.95 665.203 148.45 665.203 149.1C665.253 149.75 665.203 150.15 665.053 150.3C663.603 150.2 662.003 150.075 660.253 149.925C658.503 149.775 656.828 149.7 655.228 149.7C654.128 149.7 652.878 149.75 651.478 149.85C650.078 149.9 648.728 149.975 647.428 150.075C646.178 150.175 645.103 150.25 644.203 150.3C644.103 150.15 644.028 149.875 643.978 149.475C643.928 149.025 643.928 148.6 643.978 148.2C644.028 147.8 644.103 147.6 644.203 147.6C644.853 147.6 645.603 147.5 646.453 147.3C647.353 147.05 648.053 146.7 648.553 146.25C648.953 145.9 649.153 145.5 649.153 145.05C649.153 144.9 649.003 144.45 648.703 143.7C648.403 142.9 648.028 141.95 647.578 140.85C647.178 139.75 646.753 138.675 646.303 137.625C645.903 136.525 645.553 135.625 645.253 134.925C644.953 134.225 644.803 133.875 644.803 133.875C644.803 133.875 644.728 133.825 644.578 133.725C644.478 133.625 644.378 133.575 644.278 133.575C643.228 133.525 642.203 133.5 641.203 133.5C640.253 133.5 639.378 133.5 638.578 133.5C638.328 133.5 638.078 133.5 637.828 133.5C637.628 133.5 637.428 133.5 637.228 133.5C635.728 133.5 634.403 133.5 633.253 133.5C632.153 133.5 630.953 133.525 629.653 133.575C629.453 133.575 629.278 133.7 629.128 133.95C629.128 133.95 628.953 134.325 628.603 135.075C628.303 135.825 627.953 136.675 627.553 137.625C627.153 138.575 626.803 139.4 626.503 140.1C626.153 141 625.778 142 625.378 143.1C625.028 144.2 624.853 144.875 624.853 145.125C624.853 145.725 625.278 146.225 626.128 146.625C626.978 146.975 627.853 147.225 628.753 147.375C629.703 147.525 630.278 147.6 630.478 147.6C630.728 147.85 630.828 148.325 630.778 149.025C630.728 149.725 630.653 150.15 630.553 150.3C629.303 150.15 628.078 150.025 626.878 149.925C625.678 149.775 624.278 149.7 622.678 149.7C620.978 149.7 619.528 149.775 618.328 149.925C617.178 150.025 615.953 150.15 614.653 150.3C614.503 150.15 614.403 149.775 614.353 149.175C614.303 148.575 614.353 148.075 614.503 147.675C614.803 147.675 615.303 147.575 616.003 147.375C616.753 147.125 617.478 146.825 618.178 146.475C618.928 146.125 619.428 145.75 619.678 145.35C620.328 144.35 620.803 143.5 621.103 142.8C621.403 142.05 621.778 141.175 622.228 140.175ZM636.928 115.125L630.703 129.525C630.703 129.525 630.703 129.575 630.703 129.675C630.753 129.725 630.803 129.75 630.853 129.75C631.603 129.8 632.603 129.85 633.853 129.9C635.103 129.95 636.128 129.975 636.928 129.975C638.078 129.975 639.053 129.975 639.853 129.975C640.703 129.925 641.678 129.875 642.778 129.825C642.878 129.825 642.928 129.775 642.928 129.675C642.978 129.575 643.003 129.525 643.003 129.525L636.928 115.125Z" fill="#0D9D63"/>
<path d="M686.303 110.593L686.413 122.148L669.018 131.254L668.387 135.13L686.891 128.99L686.938 140.933L683.27 143.916L683.666 146.368L689.723 143.375L695.483 147.097L696.249 144.834L692.04 141.365L691.993 129.422L710.408 133.611L709.75 130.321L691.578 122.193L691.144 110.187C690.969 109.628 690.221 108.525 688.62 108.583C687.019 108.641 686.409 109.947 686.303 110.593Z" stroke="#0D9D63" stroke-width="2"/>
<path d="M56.3035 110.593L56.4129 122.148L39.0177 131.254L38.3872 135.13L56.8914 128.99L56.9378 140.933L53.2696 143.916L53.6665 146.368L59.7233 143.375L65.4834 147.097L66.2493 144.834L62.0395 141.365L61.9931 129.422L80.4083 133.611L79.75 130.321L61.5777 122.193L61.1437 110.187C60.9694 109.628 60.2206 108.525 58.6198 108.583C57.019 108.641 56.4086 109.947 56.3035 110.593Z" stroke="#0D9D63" stroke-width="2"/>
<line x1="158" y1="180" x2="591" y2="180" stroke="#0D9D63" stroke-width="2"/>
<line x1="162" y1="72" x2="588" y2="72" stroke="#0D9D63" stroke-width="2"/>
<path d="M731 126C731 140.511 721.805 154.859 703.939 168.37C686.123 181.845 660.152 194.108 627.791 204.46C563.103 225.153 473.551 238 374.5 238C275.449 238 185.897 225.153 121.209 204.46C88.848 194.108 62.8774 181.845 45.0609 168.37C27.1955 154.859 18 140.511 18 126C18 111.489 27.1955 97.1412 45.0609 83.6296C62.8774 70.1549 88.848 57.892 121.209 47.5401C185.897 26.8471 275.449 14 374.5 14C473.551 14 563.103 26.8471 627.791 47.5401C660.152 57.892 686.123 70.1549 703.939 83.6296C721.805 97.1412 731 111.489 731 126Z" stroke="#0D9D63" stroke-width="6"/>
<path d="M747 127C747 143.242 737.285 159.176 718.656 174.092C700.055 188.986 672.956 202.53 639.203 213.961C571.727 236.813 478.317 251 375 251C271.683 251 178.273 236.813 110.797 213.961C77.0441 202.53 49.9448 188.986 31.3444 174.092C12.7155 159.176 3 143.242 3 127C3 110.758 12.7155 94.8239 31.3444 79.9077C49.9448 65.0144 77.0441 51.47 110.797 40.0389C178.273 17.187 271.683 3 375 3C478.317 3 571.727 17.187 639.203 40.0389C672.956 51.47 700.055 65.0144 718.656 79.9077C737.285 94.8239 747 110.758 747 127Z" stroke="#0D9D63" stroke-width="6"/>
<path d="M355.165 205.488C355.101 205.76 354.997 206.128 354.853 206.592C354.709 207.04 354.557 207.504 354.397 207.984C354.253 208.464 354.117 208.896 353.989 209.28C353.861 209.648 353.781 209.888 353.749 210H345.205C345.141 209.936 345.093 209.864 345.061 209.784C345.045 209.704 345.029 209.632 345.013 209.568C345.621 208.896 346.189 208.272 346.717 207.696C347.245 207.12 347.765 206.512 348.277 205.872C348.805 205.232 349.341 204.488 349.885 203.64C350.429 202.792 350.789 202.024 350.965 201.336C351.141 200.632 351.229 200.016 351.229 199.488C351.229 198.976 351.109 198.52 350.869 198.12C350.629 197.704 350.317 197.376 349.933 197.136C349.565 196.896 349.165 196.776 348.733 196.776C348.189 196.776 347.725 196.904 347.341 197.16C346.973 197.416 346.677 197.68 346.453 197.952C346.245 198.224 346.109 198.392 346.045 198.456C345.981 198.456 345.877 198.408 345.733 198.312C345.605 198.2 345.541 198.056 345.541 197.88C345.637 197.656 345.813 197.384 346.069 197.064C346.325 196.728 346.653 196.4 347.053 196.08C347.453 195.76 347.917 195.496 348.445 195.288C348.973 195.064 349.565 194.952 350.221 194.952C350.973 194.952 351.653 195.104 352.261 195.408C352.885 195.712 353.381 196.16 353.749 196.752C354.117 197.328 354.301 198.04 354.301 198.888C354.301 199.608 354.141 200.312 353.821 201C353.501 201.672 353.069 202.328 352.525 202.968C351.885 203.704 351.189 204.472 350.437 205.272C349.701 206.072 348.933 206.848 348.133 207.6H352.165C352.645 207.6 353.013 207.488 353.269 207.264C353.541 207.024 353.757 206.744 353.917 206.424C354.077 206.088 354.221 205.784 354.349 205.512C354.381 205.416 354.493 205.368 354.685 205.368C354.765 205.368 354.845 205.376 354.925 205.392C355.021 205.408 355.101 205.44 355.165 205.488ZM366.763 195.36C367.707 195.36 368.563 195.648 369.331 196.224C370.099 196.8 370.707 197.632 371.155 198.72C371.619 199.808 371.851 201.136 371.851 202.704C371.851 204.064 371.619 205.304 371.155 206.424C370.707 207.528 370.099 208.416 369.331 209.088C368.563 209.744 367.707 210.072 366.763 210.072C365.835 210.072 364.971 209.784 364.171 209.208C363.371 208.632 362.731 207.792 362.251 206.688C361.771 205.584 361.531 204.256 361.531 202.704C361.531 201.68 361.667 200.728 361.939 199.848C362.227 198.952 362.611 198.168 363.091 197.496C363.571 196.824 364.123 196.304 364.747 195.936C365.387 195.552 366.059 195.36 366.763 195.36ZM366.787 196.344C366.291 196.344 365.875 196.64 365.539 197.232C365.219 197.808 364.979 198.592 364.819 199.584C364.659 200.576 364.579 201.688 364.579 202.92C364.579 204.136 364.675 205.208 364.867 206.136C365.075 207.064 365.347 207.792 365.683 208.32C366.019 208.832 366.387 209.088 366.787 209.088C367.299 209.088 367.699 208.784 367.987 208.176C368.275 207.552 368.483 206.728 368.611 205.704C368.739 204.664 368.803 203.536 368.803 202.32C368.803 200.48 368.627 199.024 368.275 197.952C367.939 196.88 367.443 196.344 366.787 196.344ZM388.392 205.488C388.328 205.76 388.224 206.128 388.08 206.592C387.936 207.04 387.784 207.504 387.624 207.984C387.48 208.464 387.344 208.896 387.216 209.28C387.088 209.648 387.008 209.888 386.976 210H378.432C378.368 209.936 378.32 209.864 378.288 209.784C378.272 209.704 378.256 209.632 378.24 209.568C378.848 208.896 379.416 208.272 379.944 207.696C380.472 207.12 380.992 206.512 381.504 205.872C382.032 205.232 382.568 204.488 383.112 203.64C383.656 202.792 384.016 202.024 384.192 201.336C384.368 200.632 384.456 200.016 384.456 199.488C384.456 198.976 384.336 198.52 384.096 198.12C383.856 197.704 383.544 197.376 383.16 197.136C382.792 196.896 382.392 196.776 381.96 196.776C381.416 196.776 380.952 196.904 380.568 197.16C380.2 197.416 379.904 197.68 379.68 197.952C379.472 198.224 379.336 198.392 379.272 198.456C379.208 198.456 379.104 198.408 378.96 198.312C378.832 198.2 378.768 198.056 378.768 197.88C378.864 197.656 379.04 197.384 379.296 197.064C379.552 196.728 379.88 196.4 380.28 196.08C380.68 195.76 381.144 195.496 381.672 195.288C382.2 195.064 382.792 194.952 383.448 194.952C384.2 194.952 384.88 195.104 385.488 195.408C386.112 195.712 386.608 196.16 386.976 196.752C387.344 197.328 387.528 198.04 387.528 198.888C387.528 199.608 387.368 200.312 387.048 201C386.728 201.672 386.296 202.328 385.752 202.968C385.112 203.704 384.416 204.472 383.664 205.272C382.928 206.072 382.16 206.848 381.36 207.6H385.392C385.872 207.6 386.24 207.488 386.496 207.264C386.768 207.024 386.984 206.744 387.144 206.424C387.304 206.088 387.448 205.784 387.576 205.512C387.608 205.416 387.72 205.368 387.912 205.368C387.992 205.368 388.072 205.376 388.152 205.392C388.248 205.408 388.328 205.44 388.392 205.488ZM398.765 206.592V198.696C398.765 198.184 398.725 197.856 398.645 197.712C398.581 197.552 398.453 197.472 398.261 197.472C398.149 197.472 397.901 197.528 397.517 197.64C397.149 197.736 396.837 197.856 396.581 198C396.373 197.888 396.269 197.736 396.269 197.544C396.269 197.544 396.269 197.536 396.269 197.52C396.269 197.472 396.269 197.424 396.269 197.376C396.269 197.328 396.285 197.296 396.317 197.28C397.213 196.896 398.061 196.528 398.861 196.176C399.677 195.808 400.349 195.512 400.877 195.288C401.405 195.048 401.677 194.928 401.693 194.928H401.741C401.821 194.928 401.885 194.992 401.933 195.12C401.981 195.232 402.013 195.32 402.029 195.384C402.029 195.384 401.989 195.56 401.909 195.912C401.845 196.264 401.813 196.816 401.813 197.568V206.592C401.813 207.088 401.821 207.52 401.837 207.888C401.853 208.256 401.909 208.56 402.005 208.8C402.053 208.896 402.173 208.976 402.365 209.04C402.573 209.104 402.789 209.152 403.013 209.184C403.237 209.2 403.397 209.216 403.493 209.232C403.557 209.312 403.581 209.456 403.565 209.664C403.565 209.872 403.541 210.016 403.493 210.096C403.045 210.048 402.517 210.008 401.909 209.976C401.317 209.944 400.773 209.928 400.277 209.928C399.781 209.928 399.237 209.944 398.645 209.976C398.053 210.008 397.525 210.048 397.061 210.096C397.013 210.016 396.981 209.872 396.965 209.664C396.965 209.456 396.997 209.312 397.061 209.232C397.173 209.216 397.341 209.2 397.565 209.184C397.789 209.152 398.005 209.104 398.213 209.04C398.421 208.976 398.541 208.896 398.573 208.8C398.669 208.56 398.725 208.256 398.741 207.888C398.757 207.52 398.765 207.088 398.765 206.592Z" fill="#0D9D63"/>
<path d="M341.55 40.64C342.046 40.64 342.606 40.632 343.23 40.616C343.854 40.584 344.39 40.544 344.838 40.496C344.886 40.56 344.91 40.704 344.91 40.928C344.926 41.136 344.902 41.28 344.838 41.36C344.742 41.36 344.582 41.376 344.358 41.408C344.134 41.424 343.918 41.464 343.71 41.528C343.518 41.576 343.398 41.656 343.35 41.768C343.254 42.008 343.198 42.312 343.182 42.68C343.166 43.032 343.158 43.464 343.158 43.976V48.272C343.158 49.056 343.19 49.768 343.254 50.408C343.318 51.032 343.478 51.656 343.734 52.28C344.038 52.968 344.406 53.472 344.838 53.792C345.286 54.096 345.734 54.296 346.182 54.392C346.63 54.472 347.006 54.512 347.31 54.512C347.934 54.512 348.534 54.32 349.11 53.936C349.686 53.536 350.158 52.912 350.526 52.064C350.91 51.216 351.102 50.112 351.102 48.752V44.768C351.102 44.256 351.07 43.712 351.006 43.136C350.942 42.56 350.862 42.152 350.766 41.912C350.702 41.752 350.55 41.64 350.31 41.576C350.07 41.496 349.822 41.44 349.566 41.408C349.31 41.376 349.126 41.36 349.014 41.36C348.95 41.28 348.918 41.136 348.918 40.928C348.934 40.704 348.966 40.56 349.014 40.496C349.574 40.544 350.062 40.584 350.478 40.616C350.91 40.632 351.398 40.64 351.942 40.64C352.454 40.64 352.918 40.624 353.334 40.592C353.75 40.544 354.198 40.512 354.678 40.496C354.726 40.56 354.75 40.704 354.75 40.928C354.766 41.136 354.742 41.28 354.678 41.36C354.582 41.36 354.398 41.376 354.126 41.408C353.854 41.424 353.59 41.472 353.334 41.552C353.094 41.616 352.942 41.736 352.878 41.912C352.782 42.152 352.702 42.56 352.638 43.136C352.574 43.696 352.542 44.232 352.542 44.744V49.304C352.542 50.888 352.238 52.192 351.63 53.216C351.038 54.24 350.254 55 349.278 55.496C348.318 55.976 347.27 56.216 346.134 56.216C345.158 56.216 344.23 56.048 343.35 55.712C342.47 55.376 341.75 54.856 341.19 54.152C340.742 53.576 340.406 52.872 340.182 52.04C339.974 51.192 339.87 50.16 339.87 48.944V43.976C339.87 43.464 339.862 43.032 339.846 42.68C339.83 42.312 339.774 42.008 339.678 41.768C339.646 41.656 339.526 41.576 339.318 41.528C339.11 41.464 338.894 41.424 338.67 41.408C338.462 41.376 338.302 41.36 338.19 41.36C338.126 41.28 338.094 41.136 338.094 40.928C338.11 40.704 338.142 40.56 338.19 40.496C338.654 40.544 339.206 40.584 339.846 40.616C340.486 40.632 341.054 40.64 341.55 40.64ZM367.519 40.376C368.287 40.376 369.119 40.416 370.015 40.496C370.911 40.56 371.703 40.664 372.391 40.808C372.407 40.872 372.455 41.08 372.535 41.432C372.615 41.768 372.703 42.152 372.799 42.584C372.911 43 372.999 43.384 373.063 43.736C373.143 44.072 373.183 44.28 373.183 44.36C373.183 44.424 373.119 44.496 372.991 44.576C372.863 44.656 372.727 44.696 372.583 44.696C372.519 44.696 372.455 44.696 372.391 44.696C372.343 44.68 372.295 44.648 372.247 44.6C372.183 44.376 372.063 44.088 371.887 43.736C371.727 43.368 371.479 43.008 371.143 42.656C370.807 42.288 370.359 41.984 369.799 41.744C369.255 41.504 368.567 41.384 367.735 41.384C366.631 41.384 365.743 41.688 365.071 42.296C364.399 42.888 363.911 43.672 363.607 44.648C363.303 45.608 363.151 46.64 363.151 47.744C363.151 48.656 363.247 49.552 363.439 50.432C363.631 51.312 363.927 52.104 364.327 52.808C364.743 53.512 365.271 54.08 365.911 54.512C366.551 54.928 367.311 55.136 368.191 55.136C368.895 55.136 369.479 55.04 369.943 54.848C370.407 54.656 370.791 54.416 371.095 54.128C371.431 53.824 371.719 53.456 371.959 53.024C372.199 52.592 372.383 52.2 372.511 51.848C372.655 51.496 372.735 51.288 372.751 51.224C373.087 51.224 373.359 51.312 373.567 51.488C373.567 51.552 373.535 51.768 373.471 52.136C373.407 52.488 373.319 52.888 373.207 53.336C373.111 53.768 373.007 54.16 372.895 54.512C372.799 54.848 372.703 55.032 372.607 55.064C371.871 55.32 371.103 55.568 370.303 55.808C369.503 56.048 368.559 56.168 367.471 56.168C366.367 56.168 365.327 55.976 364.351 55.592C363.375 55.208 362.519 54.672 361.783 53.984C361.047 53.296 360.463 52.48 360.031 51.536C359.615 50.592 359.407 49.568 359.407 48.464C359.407 47.328 359.615 46.272 360.031 45.296C360.463 44.32 361.047 43.464 361.783 42.728C362.535 41.992 363.399 41.416 364.375 41C365.351 40.584 366.399 40.376 367.519 40.376ZM383.987 52.688C383.987 52.688 383.987 52.704 383.987 52.736C383.987 52.816 383.987 52.976 383.987 53.216C383.987 53.44 383.995 53.68 384.011 53.936C384.043 54.192 384.091 54.392 384.155 54.536C384.235 54.696 384.435 54.816 384.755 54.896C385.075 54.976 385.387 55.016 385.691 55.016H387.227C387.675 55.016 388.083 54.952 388.451 54.824C388.835 54.696 389.155 54.504 389.411 54.248C389.667 53.992 389.891 53.688 390.083 53.336C390.275 52.984 390.475 52.544 390.683 52.016C390.715 51.92 390.819 51.872 390.995 51.872C391.123 51.872 391.267 51.888 391.427 51.92C391.587 51.952 391.683 51.984 391.715 52.016C391.571 52.432 391.411 52.888 391.235 53.384C391.059 53.88 390.899 54.36 390.755 54.824C390.611 55.288 390.507 55.696 390.443 56.048H382.355C381.523 56.048 380.795 56.048 380.171 56.048C379.547 56.064 379.155 56.072 378.995 56.072C378.947 55.992 378.915 55.848 378.899 55.64C378.899 55.432 378.931 55.288 378.995 55.208C379.107 55.192 379.275 55.176 379.499 55.16C379.723 55.128 379.939 55.088 380.147 55.04C380.355 54.976 380.475 54.896 380.507 54.8C380.603 54.56 380.659 54.256 380.675 53.888C380.691 53.52 380.699 53.088 380.699 52.592V43.976C380.699 43.464 380.691 43.032 380.675 42.68C380.659 42.312 380.603 42.008 380.507 41.768C380.475 41.656 380.355 41.576 380.147 41.528C379.939 41.464 379.723 41.424 379.499 41.408C379.275 41.376 379.107 41.36 378.995 41.36C378.931 41.28 378.899 41.136 378.899 40.928C378.915 40.704 378.947 40.56 378.995 40.496C379.459 40.544 380.011 40.584 380.651 40.616C381.291 40.632 381.859 40.64 382.355 40.64C382.851 40.64 383.411 40.632 384.035 40.616C384.675 40.584 385.219 40.544 385.667 40.496C385.715 40.56 385.739 40.704 385.739 40.928C385.755 41.136 385.731 41.28 385.667 41.36C385.571 41.36 385.403 41.376 385.163 41.408C384.939 41.424 384.723 41.464 384.515 41.528C384.323 41.576 384.203 41.656 384.155 41.768C384.075 41.976 384.027 42.24 384.011 42.56C383.995 42.88 383.987 43.248 383.987 43.664C383.987 43.712 383.987 43.768 383.987 43.832C383.987 43.88 383.987 43.928 383.987 43.976V52.688ZM397.726 52.856L402.718 41.384C402.798 41.224 402.926 41.04 403.102 40.832C403.294 40.608 403.454 40.496 403.582 40.496C403.854 40.496 404.022 40.544 404.086 40.64L408.886 52.52C409.046 52.872 409.166 53.184 409.246 53.456C409.326 53.712 409.422 53.968 409.534 54.224C409.678 54.544 409.878 54.776 410.134 54.92C410.406 55.064 410.662 55.152 410.902 55.184C411.158 55.216 411.318 55.232 411.382 55.232C411.446 55.344 411.478 55.504 411.478 55.712C411.494 55.92 411.478 56.048 411.43 56.096C410.966 56.064 410.454 56.024 409.894 55.976C409.334 55.928 408.798 55.904 408.286 55.904C407.934 55.904 407.534 55.92 407.086 55.952C406.638 55.968 406.206 55.992 405.79 56.024C405.39 56.056 405.046 56.08 404.758 56.096C404.726 56.048 404.702 55.96 404.686 55.832C404.67 55.688 404.67 55.552 404.686 55.424C404.702 55.296 404.726 55.232 404.758 55.232C404.966 55.232 405.206 55.2 405.478 55.136C405.766 55.056 405.99 54.944 406.15 54.8C406.278 54.688 406.342 54.56 406.342 54.416C406.342 54.368 406.294 54.224 406.198 53.984C406.102 53.728 405.982 53.424 405.838 53.072C405.71 52.72 405.574 52.376 405.43 52.04C405.302 51.688 405.19 51.4 405.094 51.176C404.998 50.952 404.95 50.84 404.95 50.84C404.95 50.84 404.926 50.824 404.878 50.792C404.846 50.76 404.814 50.744 404.782 50.744C404.446 50.728 404.118 50.72 403.798 50.72C403.494 50.72 403.214 50.72 402.958 50.72C402.878 50.72 402.798 50.72 402.718 50.72C402.654 50.72 402.59 50.72 402.526 50.72C402.046 50.72 401.622 50.72 401.254 50.72C400.902 50.72 400.518 50.728 400.102 50.744C400.038 50.744 399.982 50.784 399.934 50.864C399.934 50.864 399.878 50.984 399.766 51.224C399.67 51.464 399.558 51.736 399.43 52.04C399.302 52.344 399.19 52.608 399.094 52.832C398.982 53.12 398.862 53.44 398.734 53.792C398.622 54.144 398.566 54.36 398.566 54.44C398.566 54.632 398.702 54.792 398.974 54.92C399.246 55.032 399.526 55.112 399.814 55.16C400.118 55.208 400.302 55.232 400.366 55.232C400.446 55.312 400.478 55.464 400.462 55.688C400.446 55.912 400.422 56.048 400.39 56.096C399.99 56.048 399.598 56.008 399.214 55.976C398.83 55.928 398.382 55.904 397.87 55.904C397.326 55.904 396.862 55.928 396.478 55.976C396.11 56.008 395.718 56.048 395.302 56.096C395.254 56.048 395.222 55.928 395.206 55.736C395.19 55.544 395.206 55.384 395.254 55.256C395.35 55.256 395.51 55.224 395.734 55.16C395.974 55.08 396.206 54.984 396.43 54.872C396.67 54.76 396.83 54.64 396.91 54.512C397.118 54.192 397.27 53.92 397.366 53.696C397.462 53.456 397.582 53.176 397.726 52.856ZM402.43 44.84L400.438 49.448C400.438 49.448 400.438 49.464 400.438 49.496C400.454 49.512 400.47 49.52 400.486 49.52C400.726 49.536 401.046 49.552 401.446 49.568C401.846 49.584 402.174 49.592 402.43 49.592C402.798 49.592 403.11 49.592 403.366 49.592C403.638 49.576 403.95 49.56 404.302 49.544C404.334 49.544 404.35 49.528 404.35 49.496C404.366 49.464 404.374 49.448 404.374 49.448L402.43 44.84Z" fill="#0D9D63"/>
</svg>
