<svg width="403" height="190" viewBox="0 0 403 190" fill="none" xmlns="http://www.w3.org/2000/svg">
<path d="M189.731 116.921L203.241 125.259C211.944 119.724 212.402 119.312 213.94 121.309C215.382 123.181 213.585 124.442 212.551 125.017L205.854 128.89L207.546 144.999L205.674 146.44L200.96 132.246L192.503 137.291L192.692 141.022L190.775 141.81L190.147 136.467L185.731 133.353L187.141 131.877L190.273 133.502L198.268 128.424L187.047 118.024L189.731 116.921Z" fill="#006FC3"/>
<rect x="24" y="22" width="356" height="146" rx="37" stroke="#006FC3" stroke-width="6"/>
<rect x="3" y="3" width="397" height="184" rx="47" stroke="#006FC3" stroke-width="6"/>
<path d="M91.7662 49C93.0662 49 94.4412 48.975 95.8912 48.925C97.3412 48.825 98.6412 48.7 99.7912 48.55C100.491 49.95 101.666 51.8 103.316 54.1C105.016 56.35 106.966 58.875 109.166 61.675C111.416 64.425 113.766 67.275 116.216 70.225C118.666 73.175 121.016 76.05 123.266 78.85C123.366 78.6 123.416 78.175 123.416 77.575C123.416 76.925 123.416 76.35 123.416 75.85V62.125C123.416 61.175 123.366 60.05 123.266 58.75C123.216 57.4 123.141 56.15 123.041 55C122.941 53.85 122.791 53.1 122.591 52.75C122.391 52.3 121.866 51.975 121.016 51.775C120.166 51.525 119.291 51.375 118.391 51.325C117.541 51.225 116.966 51.175 116.666 51.175C116.616 51.175 116.541 50.825 116.441 50.125C116.391 49.375 116.466 48.825 116.666 48.475C118.366 48.525 119.841 48.625 121.091 48.775C122.391 48.925 123.891 49 125.591 49C127.191 49 128.766 48.925 130.316 48.775C131.866 48.625 133.366 48.525 134.816 48.475C134.916 48.675 134.966 49.1 134.966 49.75C135.016 50.35 134.916 50.85 134.666 51.25C134.466 51.25 133.916 51.275 133.016 51.325C132.116 51.375 131.191 51.525 130.241 51.775C129.341 51.975 128.791 52.35 128.591 52.9C128.491 53.25 128.366 53.975 128.216 55.075C128.116 56.175 128.041 57.375 127.991 58.675C127.941 59.925 127.916 61 127.916 61.9V86.8C127.916 88.95 127.941 90.725 127.991 92.125C128.091 93.525 128.166 95.175 128.216 97.075C128.116 97.175 127.791 97.25 127.241 97.3C126.741 97.35 126.441 97.375 126.341 97.375C125.991 97.375 125.616 97.225 125.216 96.925C124.866 96.575 124.491 96.15 124.091 95.65L94.2412 58.975V85.525C94.2412 86.825 94.3162 88.2 94.4662 89.65C94.6662 91.05 94.8662 92.025 95.0662 92.575C95.2662 93.025 95.8162 93.4 96.7162 93.7C97.6162 94 98.5162 94.225 99.4162 94.375C100.316 94.475 100.866 94.525 101.066 94.525C101.316 94.875 101.416 95.375 101.366 96.025C101.366 96.625 101.316 97.05 101.216 97.3C99.7662 97.2 98.2662 97.075 96.7162 96.925C95.1662 96.775 93.5912 96.7 91.9912 96.7C90.2912 96.7 88.7912 96.775 87.4912 96.925C86.2412 97.075 84.7662 97.2 83.0662 97.3C82.8662 96.95 82.7912 96.425 82.8412 95.725C82.9412 94.975 83.0162 94.6 83.0662 94.6C83.3662 94.6 83.9412 94.525 84.7912 94.375C85.6912 94.225 86.5412 94.025 87.3412 93.775C88.1912 93.475 88.7162 93.1 88.9162 92.65C89.1662 92.1 89.3662 91.1 89.5162 89.65C89.7162 88.15 89.8162 86.7 89.8162 85.3V59.35C89.8162 58.35 89.7162 57.175 89.5162 55.825C89.3162 54.475 88.9662 53.45 88.4662 52.75C88.2662 52.4 87.8162 52.125 87.1162 51.925C86.4662 51.725 85.7912 51.575 85.0912 51.475C84.4412 51.325 83.9662 51.25 83.6662 51.25C83.5662 51.25 83.4662 51.05 83.3662 50.65C83.3162 50.25 83.2912 49.825 83.2912 49.375C83.3412 48.925 83.4162 48.65 83.5162 48.55C84.6662 48.6 85.8912 48.7 87.1912 48.85C88.5412 48.95 90.0662 49 91.7662 49ZM161.68 48.85C162.28 48.85 163.33 48.85 164.83 48.85C166.38 48.8 168.13 48.75 170.08 48.7C172.08 48.65 174.105 48.625 176.155 48.625C178.205 48.575 180.055 48.525 181.705 48.475C183.405 48.425 184.68 48.4 185.53 48.4C185.78 50.25 186.105 52.1 186.505 53.95C186.905 55.8 187.28 57.55 187.63 59.2C187.53 59.3 187.28 59.4 186.88 59.5C186.48 59.55 186.155 59.575 185.905 59.575C185.305 59.575 184.93 59.375 184.78 58.975C183.98 56.925 183.005 55.2 181.855 53.8C180.755 52.35 179.08 51.625 176.83 51.625H170.755C169.955 51.625 169.18 51.675 168.43 51.775C167.73 51.825 167.28 52.05 167.08 52.45C166.93 52.85 166.83 53.35 166.78 53.95C166.78 54.55 166.78 55.25 166.78 56.05C166.78 56.2 166.78 56.35 166.78 56.5C166.78 56.65 166.78 56.8 166.78 56.95V70.075C166.78 70.275 167.105 70.45 167.755 70.6C168.405 70.75 169.13 70.825 169.93 70.825H173.755C175.205 70.825 176.305 70.7 177.055 70.45C177.855 70.2 178.48 69.7 178.93 68.95C179.38 68.2 179.805 67.125 180.205 65.725C180.305 65.325 180.605 65.125 181.105 65.125C181.755 65.125 182.205 65.25 182.455 65.5V79.6C182.405 79.65 182.23 79.7 181.93 79.75C181.68 79.8 181.43 79.825 181.18 79.825C180.53 79.825 180.18 79.65 180.13 79.3C179.68 77.55 179.23 76.4 178.78 75.85C178.33 75.3 177.93 74.95 177.58 74.8C176.73 74.45 174.88 74.275 172.03 74.275C171.38 74.275 170.63 74.3 169.78 74.35C168.98 74.4 168.28 74.5 167.68 74.65C167.08 74.8 166.78 75.025 166.78 75.325V86.65C166.78 86.65 166.78 86.7 166.78 86.8C166.78 87.05 166.78 87.55 166.78 88.3C166.78 89 166.805 89.75 166.855 90.55C166.955 91.35 167.105 91.975 167.305 92.425C167.555 92.925 168.18 93.3 169.18 93.55C170.18 93.8 171.155 93.925 172.105 93.925H176.905C178.305 93.925 179.58 93.725 180.73 93.325C181.93 92.925 182.93 92.325 183.73 91.525C184.53 90.725 185.23 89.775 185.83 88.675C186.43 87.575 187.055 86.2 187.705 84.55C187.805 84.25 188.13 84.1 188.68 84.1C189.08 84.1 189.53 84.15 190.03 84.25C190.53 84.35 190.83 84.45 190.93 84.55C190.48 85.85 189.98 87.275 189.43 88.825C188.88 90.375 188.38 91.875 187.93 93.325C187.48 94.775 187.155 96.05 186.955 97.15C186.455 97.15 185.305 97.15 183.505 97.15C181.705 97.15 179.53 97.15 176.98 97.15C174.43 97.15 171.755 97.15 168.955 97.15C166.205 97.15 163.555 97.15 161.005 97.15C158.505 97.15 156.355 97.15 154.555 97.15C152.805 97.2 151.68 97.225 151.18 97.225C151.03 96.975 150.93 96.525 150.88 95.875C150.88 95.225 150.98 94.775 151.18 94.525C151.53 94.475 152.055 94.425 152.755 94.375C153.455 94.275 154.13 94.15 154.78 94C155.43 93.8 155.805 93.55 155.905 93.25C156.205 92.5 156.38 91.55 156.43 90.4C156.48 89.25 156.505 87.9 156.505 86.35V59.425C156.505 57.825 156.48 56.475 156.43 55.375C156.38 54.225 156.205 53.275 155.905 52.525C155.805 52.175 155.43 51.925 154.78 51.775C154.13 51.625 153.455 51.525 152.755 51.475C152.055 51.425 151.53 51.4 151.18 51.4C150.98 51.15 150.88 50.675 150.88 49.975C150.93 49.275 151.03 48.825 151.18 48.625C152.83 48.725 154.605 48.8 156.505 48.85C158.405 48.85 160.13 48.85 161.68 48.85ZM213.82 49C215.37 49 217.12 48.975 219.07 48.925C221.07 48.825 222.77 48.7 224.17 48.55C224.32 48.75 224.395 49.2 224.395 49.9C224.445 50.55 224.37 51 224.17 51.25C223.87 51.25 223.345 51.3 222.595 51.4C221.895 51.45 221.245 51.625 220.645 51.925C220.045 52.175 219.745 52.6 219.745 53.2C219.745 53.8 219.92 54.6 220.27 55.6C220.67 56.6 221.07 57.625 221.47 58.675C222.27 60.925 223.095 63.225 223.945 65.575C224.795 67.875 225.57 70.025 226.27 72.025C226.97 73.975 227.545 75.575 227.995 76.825C228.445 78.025 228.67 78.625 228.67 78.625C228.67 78.625 228.87 78.075 229.27 76.975C229.67 75.875 230.17 74.425 230.77 72.625C231.42 70.825 232.12 68.875 232.87 66.775C233.62 64.625 234.37 62.525 235.12 60.475C235.87 58.375 236.52 56.525 237.07 54.925C237.67 53.275 238.12 52.05 238.42 51.25C238.67 50.55 238.995 49.925 239.395 49.375C239.845 48.825 240.27 48.55 240.67 48.55C241.02 48.55 241.32 48.925 241.57 49.675C242.52 52.125 243.545 54.775 244.645 57.625C245.795 60.475 246.92 63.3 248.02 66.1C249.12 68.9 250.12 71.45 251.02 73.75C251.97 76.05 252.72 77.9 253.27 79.3C253.82 80.65 254.095 81.325 254.095 81.325C254.095 81.325 254.245 80.85 254.545 79.9C254.845 78.9 255.245 77.625 255.745 76.075C256.245 74.475 256.77 72.775 257.32 70.975C257.92 69.125 258.495 67.35 259.045 65.65C259.595 63.95 260.07 62.5 260.47 61.3C260.87 60.05 261.12 59.225 261.22 58.825C261.52 57.875 261.845 56.875 262.195 55.825C262.545 54.725 262.72 53.775 262.72 52.975C262.72 52.525 262.295 52.175 261.445 51.925C260.645 51.675 259.795 51.5 258.895 51.4C257.995 51.3 257.37 51.25 257.02 51.25C256.82 51 256.72 50.55 256.72 49.9C256.77 49.2 256.87 48.75 257.02 48.55C258.77 48.7 260.22 48.825 261.37 48.925C262.57 48.975 264.02 49 265.72 49C267.32 49 268.695 48.95 269.845 48.85C271.045 48.7 272.395 48.6 273.895 48.55C274.045 48.75 274.12 49.2 274.12 49.9C274.17 50.55 274.095 51 273.895 51.25C273.595 51.25 273.095 51.275 272.395 51.325C271.695 51.375 270.995 51.5 270.295 51.7C269.595 51.85 269.095 52.125 268.795 52.525C268.245 53.275 267.695 54.15 267.145 55.15C266.645 56.15 266.195 57.3 265.795 58.6C264.645 62.05 263.595 65.225 262.645 68.125C261.695 70.975 260.745 73.75 259.795 76.45C258.895 79.15 257.945 81.925 256.945 84.775C255.995 87.575 254.945 90.675 253.795 94.075C253.445 94.975 252.97 95.825 252.37 96.625C251.82 97.425 251.32 97.825 250.87 97.825C250.52 97.825 250.245 97.7 250.045 97.45C249.845 97.25 249.645 97.025 249.445 96.775L237.37 66.4C237.37 66.4 237.17 67 236.77 68.2C236.37 69.4 235.82 71 235.12 73C234.47 75 233.72 77.2 232.87 79.6C232.07 82 231.245 84.45 230.395 86.95C229.545 89.4 228.77 91.675 228.07 93.775C227.97 94.025 227.77 94.5 227.47 95.2C227.17 95.85 226.845 96.45 226.495 97C226.145 97.55 225.82 97.825 225.52 97.825C225.17 97.825 224.895 97.7 224.695 97.45C224.495 97.25 224.295 97.025 224.095 96.775L210.895 59.65C210.545 58.55 210.12 57.475 209.62 56.425C209.12 55.325 208.695 54.4 208.345 53.65C208.045 53 207.545 52.525 206.845 52.225C206.195 51.875 205.545 51.625 204.895 51.475C204.245 51.325 203.745 51.25 203.395 51.25C203.195 51 203.12 50.55 203.17 49.9C203.17 49.2 203.245 48.75 203.395 48.55C204.845 48.7 206.545 48.825 208.495 48.925C210.495 48.975 212.27 49 213.82 49ZM303.748 47.95C305.948 47.95 307.973 48.175 309.823 48.625C311.723 49.025 313.798 49.475 316.048 49.975C316.248 51.925 316.398 53.875 316.498 55.825C316.648 57.775 316.773 59.875 316.873 62.125C316.673 62.425 316.398 62.575 316.048 62.575C316.048 62.575 316.023 62.575 315.973 62.575C315.773 62.575 315.373 62.575 314.773 62.575C314.223 62.525 313.923 62.35 313.873 62.05C313.723 61 313.398 59.85 312.898 58.6C312.398 57.35 311.723 56.15 310.873 55C310.023 53.85 309.023 52.9 307.873 52.15C306.773 51.4 305.523 51.025 304.123 51.025C303.173 51.025 302.223 51.225 301.273 51.625C300.323 51.975 299.523 52.625 298.873 53.575C298.223 54.475 297.898 55.75 297.898 57.4C297.898 58.9 298.473 60.375 299.623 61.825C300.773 63.225 302.148 64.55 303.748 65.8C305.398 67 306.973 68.1 308.473 69.1C310.073 70.15 311.698 71.3 313.348 72.55C315.048 73.75 316.448 75.275 317.548 77.125C318.698 78.925 319.273 81.275 319.273 84.175C319.273 86.825 318.498 89.175 316.948 91.225C315.398 93.275 313.398 94.875 310.948 96.025C308.548 97.175 305.998 97.75 303.298 97.75C301.148 97.75 298.823 97.55 296.323 97.15C293.873 96.75 291.548 96.3 289.348 95.8C289.098 94.7 288.848 93.3 288.598 91.6C288.348 89.9 288.123 88.275 287.923 86.725C287.773 85.125 287.673 84 287.623 83.35C287.773 83.1 288.098 82.875 288.598 82.675C289.148 82.475 289.523 82.375 289.723 82.375C290.323 82.375 290.648 82.55 290.698 82.9C290.848 83.9 291.248 85.075 291.898 86.425C292.548 87.725 293.373 89.025 294.373 90.325C295.423 91.575 296.623 92.625 297.973 93.475C299.373 94.275 300.898 94.675 302.548 94.675C304.448 94.675 306.098 94.15 307.498 93.1C308.948 92 309.673 90.15 309.673 87.55C309.673 86.25 309.273 85.025 308.473 83.875C307.723 82.675 306.773 81.575 305.623 80.575C304.473 79.575 303.273 78.65 302.023 77.8C300.773 76.95 299.698 76.225 298.798 75.625C297.048 74.425 295.348 73.2 293.698 71.95C292.048 70.7 290.698 69.225 289.648 67.525C288.648 65.825 288.148 63.7 288.148 61.15C288.148 58.6 288.923 56.35 290.473 54.4C292.023 52.4 293.998 50.825 296.398 49.675C298.798 48.525 301.248 47.95 303.748 47.95Z" fill="#006FC3"/>
<line x1="27" y1="129.5" x2="377" y2="129.5" stroke="#006FC3" stroke-dasharray="2 2"/>
<path d="M189.731 116.921L203.241 125.259C211.944 119.724 212.402 119.312 213.94 121.309C215.382 123.181 213.585 124.442 212.551 125.017L205.854 128.89L207.546 144.999L205.674 146.44L200.96 132.246L192.503 137.291L192.692 141.022L190.775 141.81L190.147 136.467L185.731 133.353L187.141 131.877L190.273 133.502L198.268 128.424L187.047 118.024L189.731 116.921Z" fill="#006FC3"/>
<rect x="24" y="22" width="356" height="146" rx="37" stroke="#006FC3" stroke-width="6"/>
<rect x="3" y="3" width="397" height="184" rx="47" stroke="#006FC3" stroke-width="6"/>
<path d="M91.7662 49C93.0662 49 94.4412 48.975 95.8912 48.925C97.3412 48.825 98.6412 48.7 99.7912 48.55C100.491 49.95 101.666 51.8 103.316 54.1C105.016 56.35 106.966 58.875 109.166 61.675C111.416 64.425 113.766 67.275 116.216 70.225C118.666 73.175 121.016 76.05 123.266 78.85C123.366 78.6 123.416 78.175 123.416 77.575C123.416 76.925 123.416 76.35 123.416 75.85V62.125C123.416 61.175 123.366 60.05 123.266 58.75C123.216 57.4 123.141 56.15 123.041 55C122.941 53.85 122.791 53.1 122.591 52.75C122.391 52.3 121.866 51.975 121.016 51.775C120.166 51.525 119.291 51.375 118.391 51.325C117.541 51.225 116.966 51.175 116.666 51.175C116.616 51.175 116.541 50.825 116.441 50.125C116.391 49.375 116.466 48.825 116.666 48.475C118.366 48.525 119.841 48.625 121.091 48.775C122.391 48.925 123.891 49 125.591 49C127.191 49 128.766 48.925 130.316 48.775C131.866 48.625 133.366 48.525 134.816 48.475C134.916 48.675 134.966 49.1 134.966 49.75C135.016 50.35 134.916 50.85 134.666 51.25C134.466 51.25 133.916 51.275 133.016 51.325C132.116 51.375 131.191 51.525 130.241 51.775C129.341 51.975 128.791 52.35 128.591 52.9C128.491 53.25 128.366 53.975 128.216 55.075C128.116 56.175 128.041 57.375 127.991 58.675C127.941 59.925 127.916 61 127.916 61.9V86.8C127.916 88.95 127.941 90.725 127.991 92.125C128.091 93.525 128.166 95.175 128.216 97.075C128.116 97.175 127.791 97.25 127.241 97.3C126.741 97.35 126.441 97.375 126.341 97.375C125.991 97.375 125.616 97.225 125.216 96.925C124.866 96.575 124.491 96.15 124.091 95.65L94.2412 58.975V85.525C94.2412 86.825 94.3162 88.2 94.4662 89.65C94.6662 91.05 94.8662 92.025 95.0662 92.575C95.2662 93.025 95.8162 93.4 96.7162 93.7C97.6162 94 98.5162 94.225 99.4162 94.375C100.316 94.475 100.866 94.525 101.066 94.525C101.316 94.875 101.416 95.375 101.366 96.025C101.366 96.625 101.316 97.05 101.216 97.3C99.7662 97.2 98.2662 97.075 96.7162 96.925C95.1662 96.775 93.5912 96.7 91.9912 96.7C90.2912 96.7 88.7912 96.775 87.4912 96.925C86.2412 97.075 84.7662 97.2 83.0662 97.3C82.8662 96.95 82.7912 96.425 82.8412 95.725C82.9412 94.975 83.0162 94.6 83.0662 94.6C83.3662 94.6 83.9412 94.525 84.7912 94.375C85.6912 94.225 86.5412 94.025 87.3412 93.775C88.1912 93.475 88.7162 93.1 88.9162 92.65C89.1662 92.1 89.3662 91.1 89.5162 89.65C89.7162 88.15 89.8162 86.7 89.8162 85.3V59.35C89.8162 58.35 89.7162 57.175 89.5162 55.825C89.3162 54.475 88.9662 53.45 88.4662 52.75C88.2662 52.4 87.8162 52.125 87.1162 51.925C86.4662 51.725 85.7912 51.575 85.0912 51.475C84.4412 51.325 83.9662 51.25 83.6662 51.25C83.5662 51.25 83.4662 51.05 83.3662 50.65C83.3162 50.25 83.2912 49.825 83.2912 49.375C83.3412 48.925 83.4162 48.65 83.5162 48.55C84.6662 48.6 85.8912 48.7 87.1912 48.85C88.5412 48.95 90.0662 49 91.7662 49ZM161.68 48.85C162.28 48.85 163.33 48.85 164.83 48.85C166.38 48.8 168.13 48.75 170.08 48.7C172.08 48.65 174.105 48.625 176.155 48.625C178.205 48.575 180.055 48.525 181.705 48.475C183.405 48.425 184.68 48.4 185.53 48.4C185.78 50.25 186.105 52.1 186.505 53.95C186.905 55.8 187.28 57.55 187.63 59.2C187.53 59.3 187.28 59.4 186.88 59.5C186.48 59.55 186.155 59.575 185.905 59.575C185.305 59.575 184.93 59.375 184.78 58.975C183.98 56.925 183.005 55.2 181.855 53.8C180.755 52.35 179.08 51.625 176.83 51.625H170.755C169.955 51.625 169.18 51.675 168.43 51.775C167.73 51.825 167.28 52.05 167.08 52.45C166.93 52.85 166.83 53.35 166.78 53.95C166.78 54.55 166.78 55.25 166.78 56.05C166.78 56.2 166.78 56.35 166.78 56.5C166.78 56.65 166.78 56.8 166.78 56.95V70.075C166.78 70.275 167.105 70.45 167.755 70.6C168.405 70.75 169.13 70.825 169.93 70.825H173.755C175.205 70.825 176.305 70.7 177.055 70.45C177.855 70.2 178.48 69.7 178.93 68.95C179.38 68.2 179.805 67.125 180.205 65.725C180.305 65.325 180.605 65.125 181.105 65.125C181.755 65.125 182.205 65.25 182.455 65.5V79.6C182.405 79.65 182.23 79.7 181.93 79.75C181.68 79.8 181.43 79.825 181.18 79.825C180.53 79.825 180.18 79.65 180.13 79.3C179.68 77.55 179.23 76.4 178.78 75.85C178.33 75.3 177.93 74.95 177.58 74.8C176.73 74.45 174.88 74.275 172.03 74.275C171.38 74.275 170.63 74.3 169.78 74.35C168.98 74.4 168.28 74.5 167.68 74.65C167.08 74.8 166.78 75.025 166.78 75.325V86.65C166.78 86.65 166.78 86.7 166.78 86.8C166.78 87.05 166.78 87.55 166.78 88.3C166.78 89 166.805 89.75 166.855 90.55C166.955 91.35 167.105 91.975 167.305 92.425C167.555 92.925 168.18 93.3 169.18 93.55C170.18 93.8 171.155 93.925 172.105 93.925H176.905C178.305 93.925 179.58 93.725 180.73 93.325C181.93 92.925 182.93 92.325 183.73 91.525C184.53 90.725 185.23 89.775 185.83 88.675C186.43 87.575 187.055 86.2 187.705 84.55C187.805 84.25 188.13 84.1 188.68 84.1C189.08 84.1 189.53 84.15 190.03 84.25C190.53 84.35 190.83 84.45 190.93 84.55C190.48 85.85 189.98 87.275 189.43 88.825C188.88 90.375 188.38 91.875 187.93 93.325C187.48 94.775 187.155 96.05 186.955 97.15C186.455 97.15 185.305 97.15 183.505 97.15C181.705 97.15 179.53 97.15 176.98 97.15C174.43 97.15 171.755 97.15 168.955 97.15C166.205 97.15 163.555 97.15 161.005 97.15C158.505 97.15 156.355 97.15 154.555 97.15C152.805 97.2 151.68 97.225 151.18 97.225C151.03 96.975 150.93 96.525 150.88 95.875C150.88 95.225 150.98 94.775 151.18 94.525C151.53 94.475 152.055 94.425 152.755 94.375C153.455 94.275 154.13 94.15 154.78 94C155.43 93.8 155.805 93.55 155.905 93.25C156.205 92.5 156.38 91.55 156.43 90.4C156.48 89.25 156.505 87.9 156.505 86.35V59.425C156.505 57.825 156.48 56.475 156.43 55.375C156.38 54.225 156.205 53.275 155.905 52.525C155.805 52.175 155.43 51.925 154.78 51.775C154.13 51.625 153.455 51.525 152.755 51.475C152.055 51.425 151.53 51.4 151.18 51.4C150.98 51.15 150.88 50.675 150.88 49.975C150.93 49.275 151.03 48.825 151.18 48.625C152.83 48.725 154.605 48.8 156.505 48.85C158.405 48.85 160.13 48.85 161.68 48.85ZM213.82 49C215.37 49 217.12 48.975 219.07 48.925C221.07 48.825 222.77 48.7 224.17 48.55C224.32 48.75 224.395 49.2 224.395 49.9C224.445 50.55 224.37 51 224.17 51.25C223.87 51.25 223.345 51.3 222.595 51.4C221.895 51.45 221.245 51.625 220.645 51.925C220.045 52.175 219.745 52.6 219.745 53.2C219.745 53.8 219.92 54.6 220.27 55.6C220.67 56.6 221.07 57.625 221.47 58.675C222.27 60.925 223.095 63.225 223.945 65.575C224.795 67.875 225.57 70.025 226.27 72.025C226.97 73.975 227.545 75.575 227.995 76.825C228.445 78.025 228.67 78.625 228.67 78.625C228.67 78.625 228.87 78.075 229.27 76.975C229.67 75.875 230.17 74.425 230.77 72.625C231.42 70.825 232.12 68.875 232.87 66.775C233.62 64.625 234.37 62.525 235.12 60.475C235.87 58.375 236.52 56.525 237.07 54.925C237.67 53.275 238.12 52.05 238.42 51.25C238.67 50.55 238.995 49.925 239.395 49.375C239.845 48.825 240.27 48.55 240.67 48.55C241.02 48.55 241.32 48.925 241.57 49.675C242.52 52.125 243.545 54.775 244.645 57.625C245.795 60.475 246.92 63.3 248.02 66.1C249.12 68.9 250.12 71.45 251.02 73.75C251.97 76.05 252.72 77.9 253.27 79.3C253.82 80.65 254.095 81.325 254.095 81.325C254.095 81.325 254.245 80.85 254.545 79.9C254.845 78.9 255.245 77.625 255.745 76.075C256.245 74.475 256.77 72.775 257.32 70.975C257.92 69.125 258.495 67.35 259.045 65.65C259.595 63.95 260.07 62.5 260.47 61.3C260.87 60.05 261.12 59.225 261.22 58.825C261.52 57.875 261.845 56.875 262.195 55.825C262.545 54.725 262.72 53.775 262.72 52.975C262.72 52.525 262.295 52.175 261.445 51.925C260.645 51.675 259.795 51.5 258.895 51.4C257.995 51.3 257.37 51.25 257.02 51.25C256.82 51 256.72 50.55 256.72 49.9C256.77 49.2 256.87 48.75 257.02 48.55C258.77 48.7 260.22 48.825 261.37 48.925C262.57 48.975 264.02 49 265.72 49C267.32 49 268.695 48.95 269.845 48.85C271.045 48.7 272.395 48.6 273.895 48.55C274.045 48.75 274.12 49.2 274.12 49.9C274.17 50.55 274.095 51 273.895 51.25C273.595 51.25 273.095 51.275 272.395 51.325C271.695 51.375 270.995 51.5 270.295 51.7C269.595 51.85 269.095 52.125 268.795 52.525C268.245 53.275 267.695 54.15 267.145 55.15C266.645 56.15 266.195 57.3 265.795 58.6C264.645 62.05 263.595 65.225 262.645 68.125C261.695 70.975 260.745 73.75 259.795 76.45C258.895 79.15 257.945 81.925 256.945 84.775C255.995 87.575 254.945 90.675 253.795 94.075C253.445 94.975 252.97 95.825 252.37 96.625C251.82 97.425 251.32 97.825 250.87 97.825C250.52 97.825 250.245 97.7 250.045 97.45C249.845 97.25 249.645 97.025 249.445 96.775L237.37 66.4C237.37 66.4 237.17 67 236.77 68.2C236.37 69.4 235.82 71 235.12 73C234.47 75 233.72 77.2 232.87 79.6C232.07 82 231.245 84.45 230.395 86.95C229.545 89.4 228.77 91.675 228.07 93.775C227.97 94.025 227.77 94.5 227.47 95.2C227.17 95.85 226.845 96.45 226.495 97C226.145 97.55 225.82 97.825 225.52 97.825C225.17 97.825 224.895 97.7 224.695 97.45C224.495 97.25 224.295 97.025 224.095 96.775L210.895 59.65C210.545 58.55 210.12 57.475 209.62 56.425C209.12 55.325 208.695 54.4 208.345 53.65C208.045 53 207.545 52.525 206.845 52.225C206.195 51.875 205.545 51.625 204.895 51.475C204.245 51.325 203.745 51.25 203.395 51.25C203.195 51 203.12 50.55 203.17 49.9C203.17 49.2 203.245 48.75 203.395 48.55C204.845 48.7 206.545 48.825 208.495 48.925C210.495 48.975 212.27 49 213.82 49ZM303.748 47.95C305.948 47.95 307.973 48.175 309.823 48.625C311.723 49.025 313.798 49.475 316.048 49.975C316.248 51.925 316.398 53.875 316.498 55.825C316.648 57.775 316.773 59.875 316.873 62.125C316.673 62.425 316.398 62.575 316.048 62.575C316.048 62.575 316.023 62.575 315.973 62.575C315.773 62.575 315.373 62.575 314.773 62.575C314.223 62.525 313.923 62.35 313.873 62.05C313.723 61 313.398 59.85 312.898 58.6C312.398 57.35 311.723 56.15 310.873 55C310.023 53.85 309.023 52.9 307.873 52.15C306.773 51.4 305.523 51.025 304.123 51.025C303.173 51.025 302.223 51.225 301.273 51.625C300.323 51.975 299.523 52.625 298.873 53.575C298.223 54.475 297.898 55.75 297.898 57.4C297.898 58.9 298.473 60.375 299.623 61.825C300.773 63.225 302.148 64.55 303.748 65.8C305.398 67 306.973 68.1 308.473 69.1C310.073 70.15 311.698 71.3 313.348 72.55C315.048 73.75 316.448 75.275 317.548 77.125C318.698 78.925 319.273 81.275 319.273 84.175C319.273 86.825 318.498 89.175 316.948 91.225C315.398 93.275 313.398 94.875 310.948 96.025C308.548 97.175 305.998 97.75 303.298 97.75C301.148 97.75 298.823 97.55 296.323 97.15C293.873 96.75 291.548 96.3 289.348 95.8C289.098 94.7 288.848 93.3 288.598 91.6C288.348 89.9 288.123 88.275 287.923 86.725C287.773 85.125 287.673 84 287.623 83.35C287.773 83.1 288.098 82.875 288.598 82.675C289.148 82.475 289.523 82.375 289.723 82.375C290.323 82.375 290.648 82.55 290.698 82.9C290.848 83.9 291.248 85.075 291.898 86.425C292.548 87.725 293.373 89.025 294.373 90.325C295.423 91.575 296.623 92.625 297.973 93.475C299.373 94.275 300.898 94.675 302.548 94.675C304.448 94.675 306.098 94.15 307.498 93.1C308.948 92 309.673 90.15 309.673 87.55C309.673 86.25 309.273 85.025 308.473 83.875C307.723 82.675 306.773 81.575 305.623 80.575C304.473 79.575 303.273 78.65 302.023 77.8C300.773 76.95 299.698 76.225 298.798 75.625C297.048 74.425 295.348 73.2 293.698 71.95C292.048 70.7 290.698 69.225 289.648 67.525C288.648 65.825 288.148 63.7 288.148 61.15C288.148 58.6 288.923 56.35 290.473 54.4C292.023 52.4 293.998 50.825 296.398 49.675C298.798 48.525 301.248 47.95 303.748 47.95Z" fill="#006FC3"/>
<line x1="27" y1="129" x2="377" y2="129" stroke="#006FC3" stroke-width="2" stroke-dasharray="2 2"/>
</svg>
