<svg width="473" height="282" viewBox="0 0 473 282" fill="none" xmlns="http://www.w3.org/2000/svg">
<path d="M138.735 123.675C138.735 126.575 138.01 129.1 136.56 131.25C135.16 133.4 133.335 135.075 131.085 136.275C128.885 137.425 126.535 138 124.035 138C122.735 138 121.61 137.775 120.66 137.325C119.76 136.875 119.185 136.525 118.935 136.275C118.785 136.125 118.66 135.875 118.56 135.525C118.46 135.125 118.41 134.775 118.41 134.475C118.41 134.125 118.51 133.95 118.71 133.95C119.11 134.05 119.56 134.125 120.06 134.175C120.61 134.225 121.16 134.25 121.71 134.25C123.51 134.25 124.985 133.375 126.135 131.625C127.285 129.825 127.86 127.525 127.86 124.725C127.86 122.775 127.51 120.975 126.81 119.325C126.16 117.625 125.21 116.25 123.96 115.2C122.76 114.15 121.335 113.625 119.685 113.625C118.885 113.625 118.11 113.675 117.36 113.775C116.66 113.825 116.21 114.05 116.01 114.45C115.86 114.85 115.76 115.35 115.71 115.95C115.71 116.55 115.71 117.25 115.71 118.05C115.71 118.2 115.71 118.35 115.71 118.5C115.71 118.65 115.71 118.8 115.71 118.95V148.35C115.71 148.5 115.71 148.675 115.71 148.875C115.71 149.025 115.71 149.175 115.71 149.325C115.71 150.625 115.735 151.775 115.785 152.775C115.835 153.775 115.985 154.6 116.235 155.25C116.385 155.55 116.76 155.8 117.36 156C118.01 156.2 118.685 156.35 119.385 156.45C120.135 156.5 120.66 156.55 120.96 156.6C121.16 156.85 121.235 157.3 121.185 157.95C121.185 158.6 121.11 159.05 120.96 159.3C119.56 159.15 117.835 159.025 115.785 158.925C113.785 158.825 112.01 158.775 110.46 158.775C108.91 158.775 107.16 158.825 105.21 158.925C103.26 159.025 101.56 159.15 100.11 159.3C99.9604 159.05 99.8604 158.6 99.8104 157.95C99.8104 157.3 99.9104 156.85 100.11 156.6C100.46 156.55 100.985 156.5 101.685 156.45C102.385 156.35 103.06 156.2 103.71 156C104.36 155.8 104.735 155.55 104.835 155.25C105.135 154.5 105.31 153.55 105.36 152.4C105.41 151.25 105.435 149.9 105.435 148.35V121.425C105.435 119.825 105.41 118.475 105.36 117.375C105.31 116.225 105.135 115.275 104.835 114.525C104.735 114.175 104.36 113.925 103.71 113.775C103.06 113.625 102.385 113.525 101.685 113.475C100.985 113.425 100.46 113.4 100.11 113.4C99.9104 113.15 99.8104 112.675 99.8104 111.975C99.8604 111.275 99.9604 110.825 100.11 110.625C101.76 110.725 103.535 110.8 105.435 110.85C107.335 110.85 109.06 110.85 110.61 110.85C112.16 110.85 113.885 110.825 115.785 110.775C117.735 110.675 119.785 110.625 121.935 110.625C124.985 110.625 127.785 111.15 130.335 112.2C132.885 113.2 134.91 114.675 136.41 116.625C137.96 118.525 138.735 120.875 138.735 123.675ZM176.782 110.625C179.832 110.625 182.557 111.125 184.957 112.125C187.357 113.125 189.257 114.625 190.657 116.625C192.057 118.575 192.757 121.025 192.757 123.975C192.757 125.475 192.407 126.9 191.707 128.25C191.057 129.55 190.207 130.75 189.157 131.85C188.107 132.9 187.007 133.775 185.857 134.475C184.757 135.125 183.757 135.575 182.857 135.825C184.657 138.225 186.357 140.475 187.957 142.575C189.557 144.625 190.857 146.3 191.857 147.6C192.907 148.85 193.432 149.475 193.432 149.475C195.232 151.775 197.032 153.425 198.832 154.425C200.632 155.425 202.157 156.05 203.407 156.3C204.657 156.5 205.382 156.6 205.582 156.6C205.782 156.85 205.832 157.35 205.732 158.1C205.682 158.8 205.632 159.2 205.582 159.3C204.532 159.35 203.032 159.4 201.082 159.45C199.182 159.55 197.482 159.6 195.982 159.6C193.182 159.6 190.832 159 188.932 157.8C187.082 156.6 185.707 155.375 184.807 154.125L172.957 138.225C172.957 138.225 172.807 138.05 172.507 137.7C172.207 137.3 171.907 137.1 171.607 137.1H170.557V148.35C170.557 148.5 170.557 148.675 170.557 148.875C170.557 149.025 170.557 149.175 170.557 149.325C170.557 150.625 170.582 151.775 170.632 152.775C170.682 153.775 170.832 154.6 171.082 155.25C171.232 155.55 171.607 155.8 172.207 156C172.857 156.2 173.532 156.35 174.232 156.45C174.982 156.5 175.507 156.55 175.807 156.6C176.007 156.85 176.082 157.3 176.032 157.95C176.032 158.6 175.957 159.05 175.807 159.3C174.407 159.15 172.682 159.025 170.632 158.925C168.632 158.825 166.857 158.775 165.307 158.775C163.757 158.775 162.007 158.825 160.057 158.925C158.107 159.025 156.407 159.15 154.957 159.3C154.807 159.05 154.707 158.6 154.657 157.95C154.657 157.3 154.757 156.85 154.957 156.6C155.307 156.55 155.832 156.5 156.532 156.45C157.232 156.35 157.907 156.2 158.557 156C159.207 155.8 159.582 155.55 159.682 155.25C159.982 154.5 160.157 153.55 160.207 152.4C160.257 151.25 160.282 149.9 160.282 148.35V121.425C160.282 119.825 160.257 118.475 160.207 117.375C160.157 116.225 159.982 115.275 159.682 114.525C159.582 114.175 159.207 113.925 158.557 113.775C157.907 113.625 157.232 113.525 156.532 113.475C155.832 113.425 155.307 113.4 154.957 113.4C154.757 113.15 154.657 112.675 154.657 111.975C154.707 111.275 154.807 110.825 154.957 110.625C156.607 110.725 158.382 110.8 160.282 110.85C162.182 110.85 163.907 110.85 165.457 110.85C167.007 110.85 168.732 110.825 170.632 110.775C172.582 110.675 174.632 110.625 176.782 110.625ZM181.882 124.725C181.882 122.775 181.682 120.975 181.282 119.325C180.882 117.625 180.157 116.25 179.107 115.2C178.057 114.15 176.532 113.625 174.532 113.625C173.732 113.625 172.957 113.675 172.207 113.775C171.507 113.825 171.057 114.05 170.857 114.45C170.707 114.85 170.607 115.35 170.557 115.95C170.557 116.55 170.557 117.25 170.557 118.05C170.557 118.2 170.557 118.35 170.557 118.5C170.557 118.65 170.557 118.8 170.557 118.95V134.25H173.857C175.257 134.25 176.557 133.85 177.757 133.05C179.007 132.25 180.007 131.125 180.757 129.675C181.507 128.225 181.882 126.575 181.882 124.725ZM228.141 111C229.691 111 231.441 110.975 233.391 110.925C235.391 110.825 237.091 110.7 238.491 110.55C238.641 110.75 238.716 111.2 238.716 111.9C238.766 112.55 238.691 113 238.491 113.25C238.191 113.25 237.666 113.3 236.916 113.4C236.216 113.45 235.541 113.575 234.891 113.775C234.291 113.925 233.916 114.175 233.766 114.525C233.516 115.175 233.366 116 233.316 117C233.266 118 233.241 119.15 233.241 120.45C233.241 120.6 233.241 120.775 233.241 120.975C233.241 121.125 233.241 121.275 233.241 121.425V148.35C233.241 148.5 233.241 148.675 233.241 148.875C233.241 149.025 233.241 149.175 233.241 149.325C233.241 150.625 233.266 151.775 233.316 152.775C233.366 153.775 233.516 154.6 233.766 155.25C233.916 155.55 234.291 155.8 234.891 156C235.541 156.2 236.216 156.35 236.916 156.45C237.666 156.5 238.191 156.55 238.491 156.6C238.691 156.85 238.766 157.3 238.716 157.95C238.716 158.6 238.641 159.05 238.491 159.3C237.091 159.15 235.366 159.025 233.316 158.925C231.316 158.825 229.541 158.775 227.991 158.775C226.441 158.775 224.691 158.825 222.741 158.925C220.791 159.025 219.091 159.15 217.641 159.3C217.491 159.05 217.391 158.6 217.341 157.95C217.341 157.3 217.441 156.85 217.641 156.6C217.991 156.55 218.516 156.5 219.216 156.45C219.916 156.35 220.591 156.2 221.241 156C221.891 155.8 222.266 155.55 222.366 155.25C222.666 154.5 222.841 153.55 222.891 152.4C222.941 151.25 222.966 149.9 222.966 148.35V121.425C222.966 119.825 222.941 118.475 222.891 117.375C222.841 116.225 222.666 115.275 222.366 114.525C222.266 114.175 221.891 113.925 221.241 113.775C220.591 113.575 219.916 113.45 219.216 113.4C218.516 113.3 217.991 113.25 217.641 113.25C217.441 113 217.341 112.55 217.341 111.9C217.391 111.2 217.491 110.75 217.641 110.55C219.091 110.7 220.816 110.825 222.816 110.925C224.816 110.975 226.591 111 228.141 111ZM265.685 110.925C266.935 110.925 268.16 110.875 269.36 110.775C270.61 110.675 271.96 110.6 273.41 110.55C273.96 111.7 274.71 113.375 275.66 115.575C276.66 117.775 277.785 120.3 279.035 123.15C280.285 126 281.61 129.025 283.01 132.225C284.46 135.375 285.86 138.5 287.21 141.6C287.21 141.6 287.235 141.625 287.285 141.675C287.385 141.725 287.46 141.75 287.51 141.75C287.56 141.75 287.61 141.7 287.66 141.6C287.76 141.45 287.81 141.35 287.81 141.3C287.81 141.3 288.11 140.575 288.71 139.125C289.31 137.625 290.06 135.725 290.96 133.425C291.86 131.125 292.785 128.7 293.735 126.15C294.735 123.6 295.635 121.225 296.435 119.025C296.835 117.975 297.21 116.825 297.56 115.575C297.96 114.275 298.285 113.15 298.535 112.2C298.785 111.25 298.91 110.775 298.91 110.775C299.16 110.775 299.81 110.8 300.86 110.85C301.96 110.9 303.11 110.95 304.31 111C305.51 111 306.335 111 306.785 111C308.035 111 309.41 110.95 310.91 110.85C312.41 110.7 313.885 110.6 315.335 110.55C315.485 110.7 315.61 111.125 315.71 111.825C315.86 112.525 315.835 113.025 315.635 113.325C315.335 113.325 314.71 113.4 313.76 113.55C312.86 113.65 312.21 113.825 311.81 114.075C311.46 114.325 311.185 114.65 310.985 115.05C310.835 115.4 310.785 116.075 310.835 117.075C310.885 118.325 310.935 120.2 310.985 122.7C311.085 125.15 311.185 127.875 311.285 130.875C311.385 133.875 311.485 136.875 311.585 139.875C311.685 142.875 311.785 145.55 311.885 147.9C311.985 149.3 312.085 150.65 312.185 151.95C312.285 153.2 312.51 154.3 312.86 155.25C313.01 155.6 313.41 155.875 314.06 156.075C314.76 156.275 315.46 156.425 316.16 156.525C316.86 156.575 317.31 156.6 317.51 156.6C317.91 157.45 317.96 158.35 317.66 159.3C316.21 159.2 314.585 159.075 312.785 158.925C310.985 158.775 309.285 158.7 307.685 158.7C305.985 158.7 304.06 158.775 301.91 158.925C299.76 159.075 297.835 159.2 296.135 159.3C295.985 159.15 295.885 158.75 295.835 158.1C295.835 157.4 295.885 156.9 295.985 156.6C296.285 156.6 296.81 156.55 297.56 156.45C298.31 156.35 299.035 156.2 299.735 156C300.485 155.8 300.96 155.525 301.16 155.175C301.36 154.875 301.51 154.475 301.61 153.975C301.71 153.425 301.76 152.975 301.76 152.625C301.76 152.225 301.76 151.55 301.76 150.6C301.76 149.6 301.735 148.775 301.685 148.125L300.935 122.625C300.935 122.525 300.91 122.175 300.86 121.575C300.81 120.975 300.66 120.675 300.41 120.675C300.31 120.675 300.185 120.85 300.035 121.2L287.135 156.075C287.085 156.275 286.885 156.625 286.535 157.125C286.185 157.625 285.785 158.1 285.335 158.55C284.885 158.95 284.435 159.15 283.985 159.15C283.835 159.15 283.61 159.1 283.31 159L267.035 120.675C266.935 123.725 266.835 126.325 266.735 128.475C266.685 130.575 266.635 132.425 266.585 134.025C266.535 135.575 266.485 137.075 266.435 138.525C266.385 139.975 266.335 141.55 266.285 143.25C266.235 144.9 266.16 146.875 266.06 149.175C266.01 149.975 266.035 150.975 266.135 152.175C266.235 153.325 266.31 154.025 266.36 154.275C266.46 154.675 266.81 155.025 267.41 155.325C268.01 155.625 268.685 155.875 269.435 156.075C270.235 156.225 270.935 156.35 271.535 156.45C272.185 156.55 272.585 156.6 272.735 156.6C272.835 156.85 272.91 157.275 272.96 157.875C273.01 158.425 272.985 158.9 272.885 159.3C271.435 159.2 269.96 159.075 268.46 158.925C266.96 158.775 265.41 158.7 263.81 158.7C262.11 158.7 260.585 158.775 259.235 158.925C257.885 159.075 256.36 159.2 254.66 159.3C254.51 159.05 254.435 158.65 254.435 158.1C254.435 157.5 254.485 157.025 254.585 156.675C254.885 156.675 255.485 156.6 256.385 156.45C257.285 156.25 258.185 155.95 259.085 155.55C259.985 155.15 260.56 154.65 260.81 154.05C260.91 153.8 261.01 153.25 261.11 152.4C261.26 151.5 261.385 150.575 261.485 149.625C261.585 148.675 261.635 148 261.635 147.6C261.735 145.9 261.835 143.85 261.935 141.45C262.035 139.05 262.135 136.55 262.235 133.95C262.335 131.35 262.435 128.85 262.535 126.45C262.635 124.05 262.71 121.975 262.76 120.225C262.81 118.425 262.86 117.175 262.91 116.475C262.91 116.225 262.885 115.95 262.835 115.65C262.835 115.35 262.735 115.075 262.535 114.825C262.235 114.425 261.535 114.075 260.435 113.775C259.335 113.425 258.46 113.25 257.81 113.25C257.61 112.95 257.535 112.45 257.585 111.75C257.685 111 257.76 110.6 257.81 110.55C258.96 110.6 259.885 110.65 260.585 110.7C261.335 110.75 262.085 110.8 262.835 110.85C263.635 110.9 264.585 110.925 265.685 110.925ZM344.792 110.85C345.392 110.85 346.442 110.85 347.942 110.85C349.492 110.8 351.242 110.75 353.192 110.7C355.192 110.65 357.217 110.625 359.267 110.625C361.317 110.575 363.167 110.525 364.817 110.475C366.517 110.425 367.792 110.4 368.642 110.4C368.892 112.25 369.217 114.1 369.617 115.95C370.017 117.8 370.392 119.55 370.742 121.2C370.642 121.3 370.392 121.4 369.992 121.5C369.592 121.55 369.267 121.575 369.017 121.575C368.417 121.575 368.042 121.375 367.892 120.975C367.092 118.925 366.117 117.2 364.967 115.8C363.867 114.35 362.192 113.625 359.942 113.625H353.867C353.067 113.625 352.292 113.675 351.542 113.775C350.842 113.825 350.392 114.05 350.192 114.45C350.042 114.85 349.942 115.35 349.892 115.95C349.892 116.55 349.892 117.25 349.892 118.05C349.892 118.2 349.892 118.35 349.892 118.5C349.892 118.65 349.892 118.8 349.892 118.95V132.075C349.892 132.275 350.217 132.45 350.867 132.6C351.517 132.75 352.242 132.825 353.042 132.825H356.867C358.317 132.825 359.417 132.7 360.167 132.45C360.967 132.2 361.592 131.7 362.042 130.95C362.492 130.2 362.917 129.125 363.317 127.725C363.417 127.325 363.717 127.125 364.217 127.125C364.867 127.125 365.317 127.25 365.567 127.5V141.6C365.517 141.65 365.342 141.7 365.042 141.75C364.792 141.8 364.542 141.825 364.292 141.825C363.642 141.825 363.292 141.65 363.242 141.3C362.792 139.55 362.342 138.4 361.892 137.85C361.442 137.3 361.042 136.95 360.692 136.8C359.842 136.45 357.992 136.275 355.142 136.275C354.492 136.275 353.742 136.3 352.892 136.35C352.092 136.4 351.392 136.5 350.792 136.65C350.192 136.8 349.892 137.025 349.892 137.325V148.65C349.892 148.65 349.892 148.7 349.892 148.8C349.892 149.05 349.892 149.55 349.892 150.3C349.892 151 349.917 151.75 349.967 152.55C350.067 153.35 350.217 153.975 350.417 154.425C350.667 154.925 351.292 155.3 352.292 155.55C353.292 155.8 354.267 155.925 355.217 155.925H360.017C361.417 155.925 362.692 155.725 363.842 155.325C365.042 154.925 366.042 154.325 366.842 153.525C367.642 152.725 368.342 151.775 368.942 150.675C369.542 149.575 370.167 148.2 370.817 146.55C370.917 146.25 371.242 146.1 371.792 146.1C372.192 146.1 372.642 146.15 373.142 146.25C373.642 146.35 373.942 146.45 374.042 146.55C373.592 147.85 373.092 149.275 372.542 150.825C371.992 152.375 371.492 153.875 371.042 155.325C370.592 156.775 370.267 158.05 370.067 159.15C369.567 159.15 368.417 159.15 366.617 159.15C364.817 159.15 362.642 159.15 360.092 159.15C357.542 159.15 354.867 159.15 352.067 159.15C349.317 159.15 346.667 159.15 344.117 159.15C341.617 159.15 339.467 159.15 337.667 159.15C335.917 159.2 334.792 159.225 334.292 159.225C334.142 158.975 334.042 158.525 333.992 157.875C333.992 157.225 334.092 156.775 334.292 156.525C334.642 156.475 335.167 156.425 335.867 156.375C336.567 156.275 337.242 156.15 337.892 156C338.542 155.8 338.917 155.55 339.017 155.25C339.317 154.5 339.492 153.55 339.542 152.4C339.592 151.25 339.617 149.9 339.617 148.35V121.425C339.617 119.825 339.592 118.475 339.542 117.375C339.492 116.225 339.317 115.275 339.017 114.525C338.917 114.175 338.542 113.925 337.892 113.775C337.242 113.625 336.567 113.525 335.867 113.475C335.167 113.425 334.642 113.4 334.292 113.4C334.092 113.15 333.992 112.675 333.992 111.975C334.042 111.275 334.142 110.825 334.292 110.625C335.942 110.725 337.717 110.8 339.617 110.85C341.517 110.85 343.242 110.85 344.792 110.85Z" fill="#FFB902"/>
<path d="M69.2766 121.711L62.056 132.746L39.7768 130.361L36.7217 133.64L58.1738 139.542L50.6477 150.905L45.2753 151.411L44.098 153.99L51.743 154.988L54.85 162.171L57.0109 160.51L55.2153 154.549L62.7413 143.186L77.5616 158.834L79.0221 155.294L66.9291 136.062L74.1273 124.394C74.3161 123.753 74.3047 122.231 72.7489 121.272C71.1931 120.312 69.7857 121.165 69.2766 121.711Z" stroke="#FFB902" stroke-width="2"/>
<path d="M422.277 121.711L415.056 132.746L392.777 130.361L389.722 133.64L411.174 139.542L403.648 150.905L398.275 151.411L397.098 153.99L404.743 154.988L407.85 162.171L410.011 160.51L408.215 154.549L415.741 143.186L430.562 158.834L432.022 155.294L419.929 136.062L427.127 124.394C427.316 123.753 427.305 122.231 425.749 121.272C424.193 120.312 422.786 121.165 422.277 121.711Z" stroke="#FFB902" stroke-width="2"/>
<line x1="30" y1="181" x2="443" y2="181" stroke="#FFB902" stroke-width="2"/>
<line x1="30" y1="90" x2="443" y2="90" stroke="#FFB902" stroke-width="2"/>
<path d="M237 17L17 77.9145V199.949L237 265L457 199.949V77.9145L237 17Z" stroke="#FFB902" stroke-width="4"/>
<path d="M236.5 3L2 69.0513V208.231L236.5 279L471 208.231V69.0513L236.5 3Z" stroke="#FFB902" stroke-width="4"/>
<path d="M216.665 210.488C216.601 210.76 216.497 211.128 216.353 211.592C216.209 212.04 216.057 212.504 215.897 212.984C215.753 213.464 215.617 213.896 215.489 214.28C215.361 214.648 215.281 214.888 215.249 215H206.705C206.641 214.936 206.593 214.864 206.561 214.784C206.545 214.704 206.529 214.632 206.513 214.568C207.121 213.896 207.689 213.272 208.217 212.696C208.745 212.12 209.265 211.512 209.777 210.872C210.305 210.232 210.841 209.488 211.385 208.64C211.929 207.792 212.289 207.024 212.465 206.336C212.641 205.632 212.729 205.016 212.729 204.488C212.729 203.976 212.609 203.52 212.369 203.12C212.129 202.704 211.817 202.376 211.433 202.136C211.065 201.896 210.665 201.776 210.233 201.776C209.689 201.776 209.225 201.904 208.841 202.16C208.473 202.416 208.177 202.68 207.953 202.952C207.745 203.224 207.609 203.392 207.545 203.456C207.481 203.456 207.377 203.408 207.233 203.312C207.105 203.2 207.041 203.056 207.041 202.88C207.137 202.656 207.313 202.384 207.569 202.064C207.825 201.728 208.153 201.4 208.553 201.08C208.953 200.76 209.417 200.496 209.945 200.288C210.473 200.064 211.065 199.952 211.721 199.952C212.473 199.952 213.153 200.104 213.761 200.408C214.385 200.712 214.881 201.16 215.249 201.752C215.617 202.328 215.801 203.04 215.801 203.888C215.801 204.608 215.641 205.312 215.321 206C215.001 206.672 214.569 207.328 214.025 207.968C213.385 208.704 212.689 209.472 211.937 210.272C211.201 211.072 210.433 211.848 209.633 212.6H213.665C214.145 212.6 214.513 212.488 214.769 212.264C215.041 212.024 215.257 211.744 215.417 211.424C215.577 211.088 215.721 210.784 215.849 210.512C215.881 210.416 215.993 210.368 216.185 210.368C216.265 210.368 216.345 210.376 216.425 210.392C216.521 210.408 216.601 210.44 216.665 210.488ZM228.263 200.36C229.207 200.36 230.063 200.648 230.831 201.224C231.599 201.8 232.207 202.632 232.655 203.72C233.119 204.808 233.351 206.136 233.351 207.704C233.351 209.064 233.119 210.304 232.655 211.424C232.207 212.528 231.599 213.416 230.831 214.088C230.063 214.744 229.207 215.072 228.263 215.072C227.335 215.072 226.471 214.784 225.671 214.208C224.871 213.632 224.231 212.792 223.751 211.688C223.271 210.584 223.031 209.256 223.031 207.704C223.031 206.68 223.167 205.728 223.439 204.848C223.727 203.952 224.111 203.168 224.591 202.496C225.071 201.824 225.623 201.304 226.247 200.936C226.887 200.552 227.559 200.36 228.263 200.36ZM228.287 201.344C227.791 201.344 227.375 201.64 227.039 202.232C226.719 202.808 226.479 203.592 226.319 204.584C226.159 205.576 226.079 206.688 226.079 207.92C226.079 209.136 226.175 210.208 226.367 211.136C226.575 212.064 226.847 212.792 227.183 213.32C227.519 213.832 227.887 214.088 228.287 214.088C228.799 214.088 229.199 213.784 229.487 213.176C229.775 212.552 229.983 211.728 230.111 210.704C230.239 209.664 230.303 208.536 230.303 207.32C230.303 205.48 230.127 204.024 229.775 202.952C229.439 201.88 228.943 201.344 228.287 201.344ZM249.892 210.488C249.828 210.76 249.724 211.128 249.58 211.592C249.436 212.04 249.284 212.504 249.124 212.984C248.98 213.464 248.844 213.896 248.716 214.28C248.588 214.648 248.508 214.888 248.476 215H239.932C239.868 214.936 239.82 214.864 239.788 214.784C239.772 214.704 239.756 214.632 239.74 214.568C240.348 213.896 240.916 213.272 241.444 212.696C241.972 212.12 242.492 211.512 243.004 210.872C243.532 210.232 244.068 209.488 244.612 208.64C245.156 207.792 245.516 207.024 245.692 206.336C245.868 205.632 245.956 205.016 245.956 204.488C245.956 203.976 245.836 203.52 245.596 203.12C245.356 202.704 245.044 202.376 244.66 202.136C244.292 201.896 243.892 201.776 243.46 201.776C242.916 201.776 242.452 201.904 242.068 202.16C241.7 202.416 241.404 202.68 241.18 202.952C240.972 203.224 240.836 203.392 240.772 203.456C240.708 203.456 240.604 203.408 240.46 203.312C240.332 203.2 240.268 203.056 240.268 202.88C240.364 202.656 240.54 202.384 240.796 202.064C241.052 201.728 241.38 201.4 241.78 201.08C242.18 200.76 242.644 200.496 243.172 200.288C243.7 200.064 244.292 199.952 244.948 199.952C245.7 199.952 246.38 200.104 246.988 200.408C247.612 200.712 248.108 201.16 248.476 201.752C248.844 202.328 249.028 203.04 249.028 203.888C249.028 204.608 248.868 205.312 248.548 206C248.228 206.672 247.796 207.328 247.252 207.968C246.612 208.704 245.916 209.472 245.164 210.272C244.428 211.072 243.66 211.848 242.86 212.6H246.892C247.372 212.6 247.74 212.488 247.996 212.264C248.268 212.024 248.484 211.744 248.644 211.424C248.804 211.088 248.948 210.784 249.076 210.512C249.108 210.416 249.22 210.368 249.412 210.368C249.492 210.368 249.572 210.376 249.652 210.392C249.748 210.408 249.828 210.44 249.892 210.488ZM260.265 211.592V203.696C260.265 203.184 260.225 202.856 260.145 202.712C260.081 202.552 259.953 202.472 259.761 202.472C259.649 202.472 259.401 202.528 259.017 202.64C258.649 202.736 258.337 202.856 258.081 203C257.873 202.888 257.769 202.736 257.769 202.544C257.769 202.544 257.769 202.536 257.769 202.52C257.769 202.472 257.769 202.424 257.769 202.376C257.769 202.328 257.785 202.296 257.817 202.28C258.713 201.896 259.561 201.528 260.361 201.176C261.177 200.808 261.849 200.512 262.377 200.288C262.905 200.048 263.177 199.928 263.193 199.928H263.241C263.321 199.928 263.385 199.992 263.433 200.12C263.481 200.232 263.513 200.32 263.529 200.384C263.529 200.384 263.489 200.56 263.409 200.912C263.345 201.264 263.313 201.816 263.313 202.568V211.592C263.313 212.088 263.321 212.52 263.337 212.888C263.353 213.256 263.409 213.56 263.505 213.8C263.553 213.896 263.673 213.976 263.865 214.04C264.073 214.104 264.289 214.152 264.513 214.184C264.737 214.2 264.897 214.216 264.993 214.232C265.057 214.312 265.081 214.456 265.065 214.664C265.065 214.872 265.041 215.016 264.993 215.096C264.545 215.048 264.017 215.008 263.409 214.976C262.817 214.944 262.273 214.928 261.777 214.928C261.281 214.928 260.737 214.944 260.145 214.976C259.553 215.008 259.025 215.048 258.561 215.096C258.513 215.016 258.481 214.872 258.465 214.664C258.465 214.456 258.497 214.312 258.561 214.232C258.673 214.216 258.841 214.2 259.065 214.184C259.289 214.152 259.505 214.104 259.713 214.04C259.921 213.976 260.041 213.896 260.073 213.8C260.169 213.56 260.225 213.256 260.241 212.888C260.257 212.52 260.265 212.088 260.265 211.592Z" fill="#FFB902"/>
<path d="M203.55 54.64C204.046 54.64 204.606 54.632 205.23 54.616C205.854 54.584 206.39 54.544 206.838 54.496C206.886 54.56 206.91 54.704 206.91 54.928C206.926 55.136 206.902 55.28 206.838 55.36C206.742 55.36 206.582 55.376 206.358 55.408C206.134 55.424 205.918 55.464 205.71 55.528C205.518 55.576 205.398 55.656 205.35 55.768C205.254 56.008 205.198 56.312 205.182 56.68C205.166 57.032 205.158 57.464 205.158 57.976V62.272C205.158 63.056 205.19 63.768 205.254 64.408C205.318 65.032 205.478 65.656 205.734 66.28C206.038 66.968 206.406 67.472 206.838 67.792C207.286 68.096 207.734 68.296 208.182 68.392C208.63 68.472 209.006 68.512 209.31 68.512C209.934 68.512 210.534 68.32 211.11 67.936C211.686 67.536 212.158 66.912 212.526 66.064C212.91 65.216 213.102 64.112 213.102 62.752V58.768C213.102 58.256 213.07 57.712 213.006 57.136C212.942 56.56 212.862 56.152 212.766 55.912C212.702 55.752 212.55 55.64 212.31 55.576C212.07 55.496 211.822 55.44 211.566 55.408C211.31 55.376 211.126 55.36 211.014 55.36C210.95 55.28 210.918 55.136 210.918 54.928C210.934 54.704 210.966 54.56 211.014 54.496C211.574 54.544 212.062 54.584 212.478 54.616C212.91 54.632 213.398 54.64 213.942 54.64C214.454 54.64 214.918 54.624 215.334 54.592C215.75 54.544 216.198 54.512 216.678 54.496C216.726 54.56 216.75 54.704 216.75 54.928C216.766 55.136 216.742 55.28 216.678 55.36C216.582 55.36 216.398 55.376 216.126 55.408C215.854 55.424 215.59 55.472 215.334 55.552C215.094 55.616 214.942 55.736 214.878 55.912C214.782 56.152 214.702 56.56 214.638 57.136C214.574 57.696 214.542 58.232 214.542 58.744V63.304C214.542 64.888 214.238 66.192 213.63 67.216C213.038 68.24 212.254 69 211.278 69.496C210.318 69.976 209.27 70.216 208.134 70.216C207.158 70.216 206.23 70.048 205.35 69.712C204.47 69.376 203.75 68.856 203.19 68.152C202.742 67.576 202.406 66.872 202.182 66.04C201.974 65.192 201.87 64.16 201.87 62.944V57.976C201.87 57.464 201.862 57.032 201.846 56.68C201.83 56.312 201.774 56.008 201.678 55.768C201.646 55.656 201.526 55.576 201.318 55.528C201.11 55.464 200.894 55.424 200.67 55.408C200.462 55.376 200.302 55.36 200.19 55.36C200.126 55.28 200.094 55.136 200.094 54.928C200.11 54.704 200.142 54.56 200.19 54.496C200.654 54.544 201.206 54.584 201.846 54.616C202.486 54.632 203.054 54.64 203.55 54.64ZM229.519 54.376C230.287 54.376 231.119 54.416 232.015 54.496C232.911 54.56 233.703 54.664 234.391 54.808C234.407 54.872 234.455 55.08 234.535 55.432C234.615 55.768 234.703 56.152 234.799 56.584C234.911 57 234.999 57.384 235.063 57.736C235.143 58.072 235.183 58.28 235.183 58.36C235.183 58.424 235.119 58.496 234.991 58.576C234.863 58.656 234.727 58.696 234.583 58.696C234.519 58.696 234.455 58.696 234.391 58.696C234.343 58.68 234.295 58.648 234.247 58.6C234.183 58.376 234.063 58.088 233.887 57.736C233.727 57.368 233.479 57.008 233.143 56.656C232.807 56.288 232.359 55.984 231.799 55.744C231.255 55.504 230.567 55.384 229.735 55.384C228.631 55.384 227.743 55.688 227.071 56.296C226.399 56.888 225.911 57.672 225.607 58.648C225.303 59.608 225.151 60.64 225.151 61.744C225.151 62.656 225.247 63.552 225.439 64.432C225.631 65.312 225.927 66.104 226.327 66.808C226.743 67.512 227.271 68.08 227.911 68.512C228.551 68.928 229.311 69.136 230.191 69.136C230.895 69.136 231.479 69.04 231.943 68.848C232.407 68.656 232.791 68.416 233.095 68.128C233.431 67.824 233.719 67.456 233.959 67.024C234.199 66.592 234.383 66.2 234.511 65.848C234.655 65.496 234.735 65.288 234.751 65.224C235.087 65.224 235.359 65.312 235.567 65.488C235.567 65.552 235.535 65.768 235.471 66.136C235.407 66.488 235.319 66.888 235.207 67.336C235.111 67.768 235.007 68.16 234.895 68.512C234.799 68.848 234.703 69.032 234.607 69.064C233.871 69.32 233.103 69.568 232.303 69.808C231.503 70.048 230.559 70.168 229.471 70.168C228.367 70.168 227.327 69.976 226.351 69.592C225.375 69.208 224.519 68.672 223.783 67.984C223.047 67.296 222.463 66.48 222.031 65.536C221.615 64.592 221.407 63.568 221.407 62.464C221.407 61.328 221.615 60.272 222.031 59.296C222.463 58.32 223.047 57.464 223.783 56.728C224.535 55.992 225.399 55.416 226.375 55C227.351 54.584 228.399 54.376 229.519 54.376ZM245.987 66.688C245.987 66.688 245.987 66.704 245.987 66.736C245.987 66.816 245.987 66.976 245.987 67.216C245.987 67.44 245.995 67.68 246.011 67.936C246.043 68.192 246.091 68.392 246.155 68.536C246.235 68.696 246.435 68.816 246.755 68.896C247.075 68.976 247.387 69.016 247.691 69.016H249.227C249.675 69.016 250.083 68.952 250.451 68.824C250.835 68.696 251.155 68.504 251.411 68.248C251.667 67.992 251.891 67.688 252.083 67.336C252.275 66.984 252.475 66.544 252.683 66.016C252.715 65.92 252.819 65.872 252.995 65.872C253.123 65.872 253.267 65.888 253.427 65.92C253.587 65.952 253.683 65.984 253.715 66.016C253.571 66.432 253.411 66.888 253.235 67.384C253.059 67.88 252.899 68.36 252.755 68.824C252.611 69.288 252.507 69.696 252.443 70.048H244.355C243.523 70.048 242.795 70.048 242.171 70.048C241.547 70.064 241.155 70.072 240.995 70.072C240.947 69.992 240.915 69.848 240.899 69.64C240.899 69.432 240.931 69.288 240.995 69.208C241.107 69.192 241.275 69.176 241.499 69.16C241.723 69.128 241.939 69.088 242.147 69.04C242.355 68.976 242.475 68.896 242.507 68.8C242.603 68.56 242.659 68.256 242.675 67.888C242.691 67.52 242.699 67.088 242.699 66.592V57.976C242.699 57.464 242.691 57.032 242.675 56.68C242.659 56.312 242.603 56.008 242.507 55.768C242.475 55.656 242.355 55.576 242.147 55.528C241.939 55.464 241.723 55.424 241.499 55.408C241.275 55.376 241.107 55.36 240.995 55.36C240.931 55.28 240.899 55.136 240.899 54.928C240.915 54.704 240.947 54.56 240.995 54.496C241.459 54.544 242.011 54.584 242.651 54.616C243.291 54.632 243.859 54.64 244.355 54.64C244.851 54.64 245.411 54.632 246.035 54.616C246.675 54.584 247.219 54.544 247.667 54.496C247.715 54.56 247.739 54.704 247.739 54.928C247.755 55.136 247.731 55.28 247.667 55.36C247.571 55.36 247.403 55.376 247.163 55.408C246.939 55.424 246.723 55.464 246.515 55.528C246.323 55.576 246.203 55.656 246.155 55.768C246.075 55.976 246.027 56.24 246.011 56.56C245.995 56.88 245.987 57.248 245.987 57.664C245.987 57.712 245.987 57.768 245.987 57.832C245.987 57.88 245.987 57.928 245.987 57.976V66.688ZM259.726 66.856L264.718 55.384C264.798 55.224 264.926 55.04 265.102 54.832C265.294 54.608 265.454 54.496 265.582 54.496C265.854 54.496 266.022 54.544 266.086 54.64L270.886 66.52C271.046 66.872 271.166 67.184 271.246 67.456C271.326 67.712 271.422 67.968 271.534 68.224C271.678 68.544 271.878 68.776 272.134 68.92C272.406 69.064 272.662 69.152 272.902 69.184C273.158 69.216 273.318 69.232 273.382 69.232C273.446 69.344 273.478 69.504 273.478 69.712C273.494 69.92 273.478 70.048 273.43 70.096C272.966 70.064 272.454 70.024 271.894 69.976C271.334 69.928 270.798 69.904 270.286 69.904C269.934 69.904 269.534 69.92 269.086 69.952C268.638 69.968 268.206 69.992 267.79 70.024C267.39 70.056 267.046 70.08 266.758 70.096C266.726 70.048 266.702 69.96 266.686 69.832C266.67 69.688 266.67 69.552 266.686 69.424C266.702 69.296 266.726 69.232 266.758 69.232C266.966 69.232 267.206 69.2 267.478 69.136C267.766 69.056 267.99 68.944 268.15 68.8C268.278 68.688 268.342 68.56 268.342 68.416C268.342 68.368 268.294 68.224 268.198 67.984C268.102 67.728 267.982 67.424 267.838 67.072C267.71 66.72 267.574 66.376 267.43 66.04C267.302 65.688 267.19 65.4 267.094 65.176C266.998 64.952 266.95 64.84 266.95 64.84C266.95 64.84 266.926 64.824 266.878 64.792C266.846 64.76 266.814 64.744 266.782 64.744C266.446 64.728 266.118 64.72 265.798 64.72C265.494 64.72 265.214 64.72 264.958 64.72C264.878 64.72 264.798 64.72 264.718 64.72C264.654 64.72 264.59 64.72 264.526 64.72C264.046 64.72 263.622 64.72 263.254 64.72C262.902 64.72 262.518 64.728 262.102 64.744C262.038 64.744 261.982 64.784 261.934 64.864C261.934 64.864 261.878 64.984 261.766 65.224C261.67 65.464 261.558 65.736 261.43 66.04C261.302 66.344 261.19 66.608 261.094 66.832C260.982 67.12 260.862 67.44 260.734 67.792C260.622 68.144 260.566 68.36 260.566 68.44C260.566 68.632 260.702 68.792 260.974 68.92C261.246 69.032 261.526 69.112 261.814 69.16C262.118 69.208 262.302 69.232 262.366 69.232C262.446 69.312 262.478 69.464 262.462 69.688C262.446 69.912 262.422 70.048 262.39 70.096C261.99 70.048 261.598 70.008 261.214 69.976C260.83 69.928 260.382 69.904 259.87 69.904C259.326 69.904 258.862 69.928 258.478 69.976C258.11 70.008 257.718 70.048 257.302 70.096C257.254 70.048 257.222 69.928 257.206 69.736C257.19 69.544 257.206 69.384 257.254 69.256C257.35 69.256 257.51 69.224 257.734 69.16C257.974 69.08 258.206 68.984 258.43 68.872C258.67 68.76 258.83 68.64 258.91 68.512C259.118 68.192 259.27 67.92 259.366 67.696C259.462 67.456 259.582 67.176 259.726 66.856ZM264.43 58.84L262.438 63.448C262.438 63.448 262.438 63.464 262.438 63.496C262.454 63.512 262.47 63.52 262.486 63.52C262.726 63.536 263.046 63.552 263.446 63.568C263.846 63.584 264.174 63.592 264.43 63.592C264.798 63.592 265.11 63.592 265.366 63.592C265.638 63.576 265.95 63.56 266.302 63.544C266.334 63.544 266.35 63.528 266.35 63.496C266.366 63.464 266.374 63.448 266.374 63.448L264.43 58.84Z" fill="#FFB902"/>
</svg>
