<svg width="540" height="184" viewBox="0 0 540 184" fill="none" xmlns="http://www.w3.org/2000/svg">
<path d="M37.6669 32.9212L51.0063 41.2591C59.5999 35.7244 60.0516 35.3116 61.5704 37.3089C62.9939 39.1809 61.2199 40.4423 60.1993 41.0166L53.5862 44.8901L55.2574 60.9986L53.409 62.4403L48.7541 48.2463L40.4041 53.2911L40.5911 57.0222L38.6986 57.8101L38.0785 52.4668L33.7176 49.3532L35.1096 47.8774L38.2026 49.5024L46.0964 44.4235L35.0175 34.0243L37.6669 32.9212Z" fill="#006FC3"/>
<rect x="20.7222" y="19" width="497.556" height="146" stroke="#006FC3" stroke-width="6"/>
<rect x="3" y="3" width="534" height="178" stroke="#006FC3" stroke-width="6"/>
<path d="M70.0782 73.85C71.8282 73.85 73.1532 73.75 74.0532 73.55C75.0032 73.3 75.7282 73.075 76.2282 72.875C76.7282 72.625 77.2032 72.5 77.6532 72.5C77.9532 72.5 78.1282 72.525 78.1782 72.575C78.2782 72.575 78.4032 72.625 78.5532 72.725L80.5032 86.15C80.4032 86.25 80.1032 86.375 79.6032 86.525C79.1532 86.625 78.7532 86.675 78.4032 86.675C77.9532 86.675 77.7032 86.55 77.6532 86.3C77.4032 84.7 76.9032 83.2 76.1532 81.8C75.4032 80.4 74.4782 79.275 73.3782 78.425C72.2782 77.525 71.1032 77.075 69.8532 77.075H63.0282V111.35C63.0282 112.9 63.0532 114.25 63.1032 115.4C63.1532 116.55 63.3282 117.5 63.6282 118.25C63.7782 118.55 64.1532 118.8 64.7532 119C65.4032 119.2 66.0782 119.35 66.7782 119.45C67.4782 119.5 67.9782 119.55 68.2782 119.6C68.4782 119.85 68.5532 120.3 68.5032 120.95C68.5032 121.6 68.4282 122.05 68.2782 122.3C66.8782 122.15 65.1782 122.025 63.1782 121.925C61.1782 121.825 59.4032 121.775 57.8532 121.775C56.3032 121.775 54.5532 121.825 52.6032 121.925C50.6532 122.025 48.9532 122.15 47.5032 122.3C47.3532 122.05 47.2532 121.6 47.2032 120.95C47.2032 120.3 47.3032 119.85 47.5032 119.6C47.8532 119.55 48.3532 119.5 49.0032 119.45C49.7032 119.35 50.3782 119.2 51.0282 119C51.6782 118.8 52.0532 118.55 52.1532 118.25C52.4532 117.5 52.6282 116.55 52.6782 115.4C52.7282 114.25 52.7532 112.9 52.7532 111.35V77.075H45.9282C44.6782 77.075 43.5032 77.525 42.4032 78.425C41.3032 79.275 40.3782 80.4 39.6282 81.8C38.8782 83.2 38.3782 84.7 38.1282 86.3C38.0782 86.55 37.8282 86.675 37.3782 86.675C37.0282 86.675 36.6032 86.625 36.1032 86.525C35.6532 86.375 35.3782 86.25 35.2782 86.15L37.2282 72.725C37.3782 72.625 37.4782 72.575 37.5282 72.575C37.6282 72.525 37.8282 72.5 38.1282 72.5C38.5782 72.5 39.0532 72.625 39.5532 72.875C40.0532 73.075 40.7532 73.3 41.6532 73.55C42.6032 73.75 43.9532 73.85 45.7032 73.85H70.0782ZM106.389 74C107.939 74 109.689 73.975 111.639 73.925C113.639 73.825 115.339 73.7 116.739 73.55C116.889 73.75 116.964 74.2 116.964 74.9C117.014 75.55 116.939 76 116.739 76.25C116.439 76.25 115.914 76.3 115.164 76.4C114.464 76.45 113.789 76.575 113.139 76.775C112.539 76.925 112.164 77.175 112.014 77.525C111.764 78.175 111.614 79 111.564 80C111.514 81 111.489 82.15 111.489 83.45C111.489 83.6 111.489 83.775 111.489 83.975C111.489 84.125 111.489 84.275 111.489 84.425V94.85C111.489 94.9 111.489 94.95 111.489 95C111.539 95.05 111.564 95.075 111.564 95.075C113.014 95.125 114.439 95.175 115.839 95.225C117.289 95.275 118.839 95.3 120.489 95.3C121.839 95.3 123.264 95.275 124.764 95.225C126.314 95.175 127.739 95.125 129.039 95.075C129.039 95.075 129.064 95.05 129.114 95C129.164 94.9 129.189 94.825 129.189 94.775L129.114 84.425C129.114 82.825 129.089 81.475 129.039 80.375C128.989 79.225 128.814 78.275 128.514 77.525C128.414 77.175 128.039 76.925 127.389 76.775C126.739 76.575 126.064 76.45 125.364 76.4C124.714 76.3 124.214 76.25 123.864 76.25C123.664 76 123.564 75.55 123.564 74.9C123.614 74.2 123.714 73.75 123.864 73.55C125.314 73.7 127.014 73.825 128.964 73.925C130.964 73.975 132.739 74 134.289 74C135.839 74 137.589 73.975 139.539 73.925C141.539 73.825 143.239 73.7 144.639 73.55C144.789 73.75 144.864 74.2 144.864 74.9C144.914 75.55 144.839 76 144.639 76.25C144.339 76.25 143.814 76.3 143.064 76.4C142.364 76.45 141.689 76.575 141.039 76.775C140.439 76.925 140.064 77.175 139.914 77.525C139.664 78.175 139.514 79 139.464 80C139.414 81 139.389 82.15 139.389 83.45C139.389 83.6 139.389 83.775 139.389 83.975C139.389 84.125 139.389 84.275 139.389 84.425V111.35C139.389 111.5 139.389 111.675 139.389 111.875C139.389 112.025 139.389 112.175 139.389 112.325C139.389 113.625 139.414 114.775 139.464 115.775C139.514 116.775 139.664 117.6 139.914 118.25C140.064 118.55 140.439 118.8 141.039 119C141.689 119.2 142.364 119.35 143.064 119.45C143.814 119.5 144.339 119.55 144.639 119.6C144.839 119.85 144.914 120.3 144.864 120.95C144.864 121.6 144.789 122.05 144.639 122.3C143.239 122.15 141.514 122.025 139.464 121.925C137.464 121.825 135.689 121.775 134.139 121.775C132.589 121.775 130.839 121.825 128.889 121.925C126.989 122.025 125.314 122.15 123.864 122.3C123.714 122.05 123.614 121.6 123.564 120.95C123.564 120.3 123.664 119.85 123.864 119.6C124.214 119.55 124.714 119.5 125.364 119.45C126.064 119.35 126.739 119.2 127.389 119C128.039 118.8 128.414 118.55 128.514 118.25C128.814 117.5 128.989 116.55 129.039 115.4C129.089 114.25 129.114 112.9 129.114 111.35V99.275C129.114 99.175 129.089 99.1 129.039 99.05C128.989 98.95 128.964 98.9 128.964 98.9C127.614 98.85 126.239 98.825 124.839 98.825C123.439 98.775 121.989 98.75 120.489 98.75C117.789 98.75 115.814 98.775 114.564 98.825C113.314 98.825 112.514 98.85 112.164 98.9C111.814 98.95 111.589 99 111.489 99.05C111.439 99.1 111.414 99.175 111.414 99.275C111.464 99.325 111.489 99.35 111.489 99.35V111.35C111.489 111.5 111.489 111.675 111.489 111.875C111.489 112.025 111.489 112.175 111.489 112.325C111.489 113.625 111.514 114.775 111.564 115.775C111.614 116.775 111.764 117.6 112.014 118.25C112.164 118.55 112.539 118.8 113.139 119C113.789 119.2 114.464 119.35 115.164 119.45C115.914 119.5 116.439 119.55 116.739 119.6C116.939 119.85 117.014 120.3 116.964 120.95C116.964 121.6 116.889 122.05 116.739 122.3C115.339 122.15 113.614 122.025 111.564 121.925C109.564 121.825 107.789 121.775 106.239 121.775C104.689 121.775 102.939 121.825 100.989 121.925C99.0387 122.025 97.3387 122.15 95.8887 122.3C95.7387 122.05 95.6387 121.6 95.5887 120.95C95.5887 120.3 95.6887 119.85 95.8887 119.6C96.2387 119.55 96.7637 119.5 97.4637 119.45C98.1637 119.35 98.8387 119.2 99.4887 119C100.139 118.8 100.514 118.55 100.614 118.25C100.914 117.5 101.089 116.55 101.139 115.4C101.189 114.25 101.214 112.9 101.214 111.35V84.425C101.214 82.825 101.189 81.475 101.139 80.375C101.089 79.225 100.914 78.275 100.614 77.525C100.514 77.175 100.139 76.925 99.4887 76.775C98.8387 76.575 98.1637 76.45 97.4637 76.4C96.7637 76.3 96.2387 76.25 95.8887 76.25C95.6887 76 95.5887 75.55 95.5887 74.9C95.6387 74.2 95.7387 73.75 95.8887 73.55C97.3387 73.7 99.0637 73.825 101.064 73.925C103.064 73.975 104.839 74 106.389 74ZM172.588 73.85C173.188 73.85 174.238 73.85 175.738 73.85C177.288 73.8 179.038 73.75 180.988 73.7C182.988 73.65 185.013 73.625 187.063 73.625C189.113 73.575 190.963 73.525 192.613 73.475C194.313 73.425 195.588 73.4 196.438 73.4C196.688 75.25 197.013 77.1 197.413 78.95C197.813 80.8 198.188 82.55 198.538 84.2C198.438 84.3 198.188 84.4 197.788 84.5C197.388 84.55 197.063 84.575 196.813 84.575C196.213 84.575 195.838 84.375 195.688 83.975C194.888 81.925 193.913 80.2 192.763 78.8C191.663 77.35 189.988 76.625 187.738 76.625H181.663C180.863 76.625 180.088 76.675 179.338 76.775C178.638 76.825 178.188 77.05 177.988 77.45C177.838 77.85 177.738 78.35 177.688 78.95C177.688 79.55 177.688 80.25 177.688 81.05C177.688 81.2 177.688 81.35 177.688 81.5C177.688 81.65 177.688 81.8 177.688 81.95V95.075C177.688 95.275 178.013 95.45 178.663 95.6C179.313 95.75 180.038 95.825 180.838 95.825H184.663C186.113 95.825 187.213 95.7 187.963 95.45C188.763 95.2 189.388 94.7 189.838 93.95C190.288 93.2 190.713 92.125 191.113 90.725C191.213 90.325 191.513 90.125 192.013 90.125C192.663 90.125 193.113 90.25 193.363 90.5V104.6C193.313 104.65 193.138 104.7 192.838 104.75C192.588 104.8 192.338 104.825 192.088 104.825C191.438 104.825 191.088 104.65 191.038 104.3C190.588 102.55 190.138 101.4 189.688 100.85C189.238 100.3 188.838 99.95 188.488 99.8C187.638 99.45 185.788 99.275 182.938 99.275C182.288 99.275 181.538 99.3 180.688 99.35C179.888 99.4 179.188 99.5 178.588 99.65C177.988 99.8 177.688 100.025 177.688 100.325V111.65C177.688 111.65 177.688 111.7 177.688 111.8C177.688 112.05 177.688 112.55 177.688 113.3C177.688 114 177.713 114.75 177.763 115.55C177.863 116.35 178.013 116.975 178.213 117.425C178.463 117.925 179.088 118.3 180.088 118.55C181.088 118.8 182.063 118.925 183.013 118.925H187.813C189.213 118.925 190.488 118.725 191.638 118.325C192.838 117.925 193.838 117.325 194.638 116.525C195.438 115.725 196.138 114.775 196.738 113.675C197.338 112.575 197.963 111.2 198.613 109.55C198.713 109.25 199.038 109.1 199.588 109.1C199.988 109.1 200.438 109.15 200.938 109.25C201.438 109.35 201.738 109.45 201.838 109.55C201.388 110.85 200.888 112.275 200.338 113.825C199.788 115.375 199.288 116.875 198.838 118.325C198.388 119.775 198.063 121.05 197.863 122.15C197.363 122.15 196.213 122.15 194.413 122.15C192.613 122.15 190.438 122.15 187.888 122.15C185.338 122.15 182.663 122.15 179.863 122.15C177.113 122.15 174.463 122.15 171.913 122.15C169.413 122.15 167.263 122.15 165.463 122.15C163.713 122.2 162.588 122.225 162.088 122.225C161.938 121.975 161.838 121.525 161.788 120.875C161.788 120.225 161.888 119.775 162.088 119.525C162.438 119.475 162.963 119.425 163.663 119.375C164.363 119.275 165.038 119.15 165.688 119C166.338 118.8 166.713 118.55 166.813 118.25C167.113 117.5 167.288 116.55 167.338 115.4C167.388 114.25 167.413 112.9 167.413 111.35V84.425C167.413 82.825 167.388 81.475 167.338 80.375C167.288 79.225 167.113 78.275 166.813 77.525C166.713 77.175 166.338 76.925 165.688 76.775C165.038 76.625 164.363 76.525 163.663 76.475C162.963 76.425 162.438 76.4 162.088 76.4C161.888 76.15 161.788 75.675 161.788 74.975C161.838 74.275 161.938 73.825 162.088 73.625C163.738 73.725 165.513 73.8 167.413 73.85C169.313 73.85 171.038 73.85 172.588 73.85ZM277.056 73.175C280.306 73.175 283.406 73.825 286.356 75.125C289.356 76.375 292.006 78.15 294.306 80.45C296.656 82.7 298.506 85.325 299.856 88.325C301.256 91.325 301.956 94.55 301.956 98C301.956 101.65 301.181 105.05 299.631 108.2C298.081 111.35 295.981 114.075 293.331 116.375C290.731 118.675 287.806 120.375 284.556 121.475C286.256 122.275 287.706 123.025 288.906 123.725C290.156 124.475 291.331 125.125 292.431 125.675C293.531 126.225 294.731 126.65 296.031 126.95C297.381 127.25 298.981 127.4 300.831 127.4C302.281 127.4 303.456 127.3 304.356 127.1C305.256 126.9 305.831 126.8 306.081 126.8C306.331 126.8 306.606 126.875 306.906 127.025C307.256 127.225 307.531 127.475 307.731 127.775C307.831 127.875 307.881 127.95 307.881 128C307.881 128.1 307.881 128.15 307.881 128.15C306.531 128.85 304.981 129.525 303.231 130.175C301.481 130.875 299.681 131.425 297.831 131.825C296.031 132.275 294.381 132.5 292.881 132.5C290.881 132.5 288.981 132.075 287.181 131.225C285.431 130.375 283.706 129.35 282.006 128.15C280.306 126.95 278.581 125.775 276.831 124.625C275.081 123.475 273.231 122.6 271.281 122C267.781 121.05 264.581 119.425 261.681 117.125C258.781 114.825 256.456 112.025 254.706 108.725C253.006 105.425 252.156 101.85 252.156 98C252.156 94.55 252.831 91.325 254.181 88.325C255.581 85.325 257.431 82.7 259.731 80.45C262.081 78.15 264.756 76.375 267.756 75.125C270.756 73.825 273.856 73.175 277.056 73.175ZM275.331 76.325C273.181 76.325 271.356 76.9 269.856 78.05C268.406 79.2 267.231 80.725 266.331 82.625C265.481 84.475 264.856 86.525 264.456 88.775C264.056 91.025 263.856 93.25 263.856 95.45C263.856 98.25 264.106 101.075 264.606 103.925C265.156 106.725 266.006 109.325 267.156 111.725C268.306 114.075 269.806 115.975 271.656 117.425C273.556 118.875 275.881 119.6 278.631 119.6C280.831 119.6 282.656 119.05 284.106 117.95C285.606 116.8 286.806 115.3 287.706 113.45C288.606 111.6 289.256 109.55 289.656 107.3C290.056 105.05 290.256 102.825 290.256 100.625C290.256 97.825 289.981 95 289.431 92.15C288.931 89.3 288.081 86.675 286.881 84.275C285.731 81.875 284.206 79.95 282.306 78.5C280.406 77.05 278.081 76.325 275.331 76.325ZM328.532 74C330.082 74 331.832 73.975 333.782 73.925C335.732 73.825 337.407 73.7 338.807 73.55C338.957 73.75 339.032 74.2 339.032 74.9C339.082 75.55 339.007 76 338.807 76.25C338.507 76.25 338.007 76.3 337.307 76.4C336.607 76.45 335.932 76.575 335.282 76.775C334.682 76.925 334.307 77.175 334.157 77.525C333.857 78.275 333.682 79.225 333.632 80.375C333.582 81.475 333.557 82.825 333.557 84.425V97.85C333.557 100.3 333.657 102.525 333.857 104.525C334.057 106.475 334.557 108.425 335.357 110.375C336.307 112.525 337.457 114.1 338.807 115.1C340.207 116.05 341.607 116.675 343.007 116.975C344.407 117.225 345.582 117.35 346.532 117.35C348.482 117.35 350.357 116.75 352.157 115.55C353.957 114.3 355.432 112.35 356.582 109.7C357.782 107.05 358.382 103.6 358.382 99.35V86.9C358.382 85.3 358.282 83.6 358.082 81.8C357.882 80 357.632 78.725 357.332 77.975C357.132 77.475 356.657 77.125 355.907 76.925C355.157 76.675 354.382 76.5 353.582 76.4C352.782 76.3 352.207 76.25 351.857 76.25C351.657 76 351.557 75.55 351.557 74.9C351.607 74.2 351.707 73.75 351.857 73.55C353.607 73.7 355.132 73.825 356.432 73.925C357.782 73.975 359.307 74 361.007 74C362.607 74 364.057 73.95 365.357 73.85C366.657 73.7 368.057 73.6 369.557 73.55C369.707 73.75 369.782 74.2 369.782 74.9C369.832 75.55 369.757 76 369.557 76.25C369.257 76.25 368.682 76.3 367.832 76.4C366.982 76.45 366.157 76.6 365.357 76.85C364.607 77.05 364.132 77.425 363.932 77.975C363.632 78.725 363.382 80 363.182 81.8C362.982 83.55 362.882 85.225 362.882 86.825V101.075C362.882 106.025 361.932 110.1 360.032 113.3C358.182 116.5 355.732 118.875 352.682 120.425C349.682 121.925 346.407 122.675 342.857 122.675C339.807 122.675 336.907 122.15 334.157 121.1C331.407 120.05 329.157 118.425 327.407 116.225C326.007 114.425 324.957 112.225 324.257 109.625C323.607 106.975 323.282 103.75 323.282 99.95V84.425C323.282 82.825 323.257 81.475 323.207 80.375C323.157 79.225 322.982 78.275 322.682 77.525C322.582 77.175 322.207 76.925 321.557 76.775C320.907 76.575 320.232 76.45 319.532 76.4C318.882 76.3 318.382 76.25 318.032 76.25C317.832 76 317.732 75.55 317.732 74.9C317.782 74.2 317.882 73.75 318.032 73.55C319.482 73.7 321.207 73.825 323.207 73.925C325.207 73.975 326.982 74 328.532 74ZM385.16 112.175L400.76 76.325C401.01 75.825 401.41 75.25 401.96 74.6C402.56 73.9 403.06 73.55 403.46 73.55C404.31 73.55 404.835 73.7 405.035 74L420.035 111.125C420.535 112.225 420.91 113.2 421.16 114.05C421.41 114.85 421.71 115.65 422.06 116.45C422.51 117.45 423.135 118.175 423.935 118.625C424.785 119.075 425.585 119.35 426.335 119.45C427.135 119.55 427.635 119.6 427.835 119.6C428.035 119.95 428.135 120.45 428.135 121.1C428.185 121.75 428.135 122.15 427.985 122.3C426.535 122.2 424.935 122.075 423.185 121.925C421.435 121.775 419.76 121.7 418.16 121.7C417.06 121.7 415.81 121.75 414.41 121.85C413.01 121.9 411.66 121.975 410.36 122.075C409.11 122.175 408.035 122.25 407.135 122.3C407.035 122.15 406.96 121.875 406.91 121.475C406.86 121.025 406.86 120.6 406.91 120.2C406.96 119.8 407.035 119.6 407.135 119.6C407.785 119.6 408.535 119.5 409.385 119.3C410.285 119.05 410.985 118.7 411.485 118.25C411.885 117.9 412.085 117.5 412.085 117.05C412.085 116.9 411.935 116.45 411.635 115.7C411.335 114.9 410.96 113.95 410.51 112.85C410.11 111.75 409.685 110.675 409.235 109.625C408.835 108.525 408.485 107.625 408.185 106.925C407.885 106.225 407.735 105.875 407.735 105.875C407.735 105.875 407.66 105.825 407.51 105.725C407.41 105.625 407.31 105.575 407.21 105.575C406.16 105.525 405.135 105.5 404.135 105.5C403.185 105.5 402.31 105.5 401.51 105.5C401.26 105.5 401.01 105.5 400.76 105.5C400.56 105.5 400.36 105.5 400.16 105.5C398.66 105.5 397.335 105.5 396.185 105.5C395.085 105.5 393.885 105.525 392.585 105.575C392.385 105.575 392.21 105.7 392.06 105.95C392.06 105.95 391.885 106.325 391.535 107.075C391.235 107.825 390.885 108.675 390.485 109.625C390.085 110.575 389.735 111.4 389.435 112.1C389.085 113 388.71 114 388.31 115.1C387.96 116.2 387.785 116.875 387.785 117.125C387.785 117.725 388.21 118.225 389.06 118.625C389.91 118.975 390.785 119.225 391.685 119.375C392.635 119.525 393.21 119.6 393.41 119.6C393.66 119.85 393.76 120.325 393.71 121.025C393.66 121.725 393.585 122.15 393.485 122.3C392.235 122.15 391.01 122.025 389.81 121.925C388.61 121.775 387.21 121.7 385.61 121.7C383.91 121.7 382.46 121.775 381.26 121.925C380.11 122.025 378.885 122.15 377.585 122.3C377.435 122.15 377.335 121.775 377.285 121.175C377.235 120.575 377.285 120.075 377.435 119.675C377.735 119.675 378.235 119.575 378.935 119.375C379.685 119.125 380.41 118.825 381.11 118.475C381.86 118.125 382.36 117.75 382.61 117.35C383.26 116.35 383.735 115.5 384.035 114.8C384.335 114.05 384.71 113.175 385.16 112.175ZM399.86 87.125L393.635 101.525C393.635 101.525 393.635 101.575 393.635 101.675C393.685 101.725 393.735 101.75 393.785 101.75C394.535 101.8 395.535 101.85 396.785 101.9C398.035 101.95 399.06 101.975 399.86 101.975C401.01 101.975 401.985 101.975 402.785 101.975C403.635 101.925 404.61 101.875 405.71 101.825C405.81 101.825 405.86 101.775 405.86 101.675C405.91 101.575 405.935 101.525 405.935 101.525L399.86 87.125ZM464.224 73.625C469.874 73.625 474.799 74.575 478.999 76.475C483.249 78.325 486.524 81.025 488.824 84.575C491.174 88.125 492.349 92.4 492.349 97.4C492.349 101.7 491.599 105.425 490.099 108.575C488.649 111.675 486.599 114.25 483.949 116.3C481.349 118.3 478.299 119.8 474.799 120.8C471.349 121.75 467.649 122.225 463.699 122.225C463.299 122.225 462.724 122.225 461.974 122.225C461.274 122.225 460.424 122.225 459.424 122.225C458.024 122.225 456.449 122.225 454.699 122.225C452.999 122.225 451.299 122.225 449.599 122.225C447.949 122.225 446.474 122.225 445.174 122.225C443.924 122.225 443.024 122.225 442.474 122.225C442.324 121.975 442.224 121.525 442.174 120.875C442.174 120.225 442.274 119.775 442.474 119.525C442.824 119.475 443.349 119.425 444.049 119.375C444.749 119.275 445.424 119.15 446.074 119C446.724 118.8 447.099 118.55 447.199 118.25C447.499 117.5 447.674 116.55 447.724 115.4C447.774 114.25 447.799 112.9 447.799 111.35V84.425C447.799 82.825 447.774 81.475 447.724 80.375C447.674 79.225 447.499 78.275 447.199 77.525C447.099 77.175 446.724 76.925 446.074 76.775C445.424 76.625 444.749 76.525 444.049 76.475C443.349 76.425 442.824 76.4 442.474 76.4C442.274 76.15 442.174 75.675 442.174 74.975C442.224 74.275 442.324 73.825 442.474 73.625C444.124 73.725 445.899 73.8 447.799 73.85C449.699 73.85 451.424 73.85 452.974 73.85C454.524 73.85 456.249 73.825 458.149 73.775C460.049 73.725 462.074 73.675 464.224 73.625ZM458.074 81.95V111.65C458.074 111.65 458.074 111.7 458.074 111.8C458.074 112.05 458.074 112.55 458.074 113.3C458.074 114 458.099 114.75 458.149 115.55C458.249 116.35 458.399 116.975 458.599 117.425C458.849 117.925 459.449 118.35 460.399 118.7C461.349 119 462.299 119.15 463.249 119.15C469.199 119.15 473.574 117.45 476.374 114.05C479.224 110.6 480.649 105.325 480.649 98.225C480.649 93.425 479.849 89.425 478.249 86.225C476.649 83.025 474.449 80.625 471.649 79.025C468.899 77.425 465.699 76.625 462.049 76.625C461.249 76.625 460.474 76.675 459.724 76.775C459.024 76.825 458.574 77.05 458.374 77.45C458.224 77.85 458.124 78.35 458.074 78.95C458.074 79.55 458.074 80.25 458.074 81.05C458.074 81.2 458.074 81.35 458.074 81.5C458.074 81.65 458.074 81.8 458.074 81.95Z" fill="#006FC3"/>
<line x1="19.6968" y1="45" x2="236.917" y2="45" stroke="#006FC3" stroke-width="2" stroke-dasharray="2 2"/>
<line x1="302.083" y1="45" x2="515.354" y2="45" stroke="#006FC3" stroke-width="2" stroke-dasharray="2 2"/>
<path d="M250.159 47.488C250.095 47.76 249.991 48.128 249.847 48.592C249.703 49.04 249.551 49.504 249.391 49.984C249.247 50.464 249.111 50.896 248.983 51.28C248.855 51.648 248.775 51.888 248.743 52H240.199C240.135 51.936 240.087 51.864 240.055 51.784C240.039 51.704 240.023 51.632 240.007 51.568C240.615 50.896 241.183 50.272 241.711 49.696C242.239 49.12 242.759 48.512 243.271 47.872C243.799 47.232 244.335 46.488 244.879 45.64C245.423 44.792 245.783 44.024 245.959 43.336C246.135 42.632 246.223 42.016 246.223 41.488C246.223 40.976 246.103 40.52 245.863 40.12C245.623 39.704 245.311 39.376 244.927 39.136C244.559 38.896 244.159 38.776 243.727 38.776C243.183 38.776 242.719 38.904 242.335 39.16C241.967 39.416 241.671 39.68 241.447 39.952C241.239 40.224 241.103 40.392 241.039 40.456C240.975 40.456 240.871 40.408 240.727 40.312C240.599 40.2 240.535 40.056 240.535 39.88C240.631 39.656 240.807 39.384 241.063 39.064C241.319 38.728 241.647 38.4 242.047 38.08C242.447 37.76 242.911 37.496 243.439 37.288C243.967 37.064 244.559 36.952 245.215 36.952C245.967 36.952 246.647 37.104 247.255 37.408C247.879 37.712 248.375 38.16 248.743 38.752C249.111 39.328 249.295 40.04 249.295 40.888C249.295 41.608 249.135 42.312 248.815 43C248.495 43.672 248.063 44.328 247.519 44.968C246.879 45.704 246.183 46.472 245.431 47.272C244.695 48.072 243.927 48.848 243.127 49.6H247.159C247.639 49.6 248.007 49.488 248.263 49.264C248.535 49.024 248.751 48.744 248.911 48.424C249.071 48.088 249.215 47.784 249.343 47.512C249.375 47.416 249.487 47.368 249.679 47.368C249.759 47.368 249.839 47.376 249.919 47.392C250.015 47.408 250.095 47.44 250.159 47.488ZM261.756 37.36C262.7 37.36 263.556 37.648 264.324 38.224C265.092 38.8 265.7 39.632 266.148 40.72C266.612 41.808 266.844 43.136 266.844 44.704C266.844 46.064 266.612 47.304 266.148 48.424C265.7 49.528 265.092 50.416 264.324 51.088C263.556 51.744 262.7 52.072 261.756 52.072C260.828 52.072 259.964 51.784 259.164 51.208C258.364 50.632 257.724 49.792 257.244 48.688C256.764 47.584 256.524 46.256 256.524 44.704C256.524 43.68 256.66 42.728 256.932 41.848C257.22 40.952 257.604 40.168 258.084 39.496C258.564 38.824 259.116 38.304 259.74 37.936C260.38 37.552 261.052 37.36 261.756 37.36ZM261.78 38.344C261.284 38.344 260.868 38.64 260.532 39.232C260.212 39.808 259.972 40.592 259.812 41.584C259.652 42.576 259.572 43.688 259.572 44.92C259.572 46.136 259.668 47.208 259.86 48.136C260.068 49.064 260.34 49.792 260.676 50.32C261.012 50.832 261.38 51.088 261.78 51.088C262.292 51.088 262.692 50.784 262.98 50.176C263.268 49.552 263.476 48.728 263.604 47.704C263.732 46.664 263.796 45.536 263.796 44.32C263.796 42.48 263.62 41.024 263.268 39.952C262.932 38.88 262.436 38.344 261.78 38.344ZM283.386 47.488C283.322 47.76 283.218 48.128 283.074 48.592C282.93 49.04 282.778 49.504 282.618 49.984C282.474 50.464 282.338 50.896 282.21 51.28C282.082 51.648 282.002 51.888 281.97 52H273.426C273.362 51.936 273.314 51.864 273.282 51.784C273.266 51.704 273.25 51.632 273.234 51.568C273.842 50.896 274.41 50.272 274.938 49.696C275.466 49.12 275.986 48.512 276.498 47.872C277.026 47.232 277.562 46.488 278.106 45.64C278.65 44.792 279.01 44.024 279.186 43.336C279.362 42.632 279.45 42.016 279.45 41.488C279.45 40.976 279.33 40.52 279.09 40.12C278.85 39.704 278.538 39.376 278.154 39.136C277.786 38.896 277.386 38.776 276.954 38.776C276.41 38.776 275.946 38.904 275.562 39.16C275.194 39.416 274.898 39.68 274.674 39.952C274.466 40.224 274.33 40.392 274.266 40.456C274.202 40.456 274.098 40.408 273.954 40.312C273.826 40.2 273.762 40.056 273.762 39.88C273.858 39.656 274.034 39.384 274.29 39.064C274.546 38.728 274.874 38.4 275.274 38.08C275.674 37.76 276.138 37.496 276.666 37.288C277.194 37.064 277.786 36.952 278.442 36.952C279.194 36.952 279.874 37.104 280.482 37.408C281.106 37.712 281.602 38.16 281.97 38.752C282.338 39.328 282.522 40.04 282.522 40.888C282.522 41.608 282.362 42.312 282.042 43C281.722 43.672 281.29 44.328 280.746 44.968C280.106 45.704 279.41 46.472 278.658 47.272C277.922 48.072 277.154 48.848 276.354 49.6H280.386C280.866 49.6 281.234 49.488 281.49 49.264C281.762 49.024 281.978 48.744 282.138 48.424C282.298 48.088 282.442 47.784 282.57 47.512C282.602 47.416 282.714 47.368 282.906 47.368C282.986 47.368 283.066 47.376 283.146 47.392C283.242 47.408 283.322 47.44 283.386 47.488ZM293.759 48.592V40.696C293.759 40.184 293.719 39.856 293.639 39.712C293.575 39.552 293.447 39.472 293.255 39.472C293.143 39.472 292.895 39.528 292.511 39.64C292.143 39.736 291.831 39.856 291.575 40C291.367 39.888 291.263 39.736 291.263 39.544C291.263 39.544 291.263 39.536 291.263 39.52C291.263 39.472 291.263 39.424 291.263 39.376C291.263 39.328 291.279 39.296 291.311 39.28C292.207 38.896 293.055 38.528 293.855 38.176C294.671 37.808 295.343 37.512 295.871 37.288C296.399 37.048 296.671 36.928 296.687 36.928H296.735C296.815 36.928 296.879 36.992 296.927 37.12C296.975 37.232 297.007 37.32 297.023 37.384C297.023 37.384 296.983 37.56 296.903 37.912C296.839 38.264 296.807 38.816 296.807 39.568V48.592C296.807 49.088 296.815 49.52 296.831 49.888C296.847 50.256 296.903 50.56 296.999 50.8C297.047 50.896 297.167 50.976 297.359 51.04C297.567 51.104 297.783 51.152 298.007 51.184C298.231 51.2 298.391 51.216 298.487 51.232C298.551 51.312 298.575 51.456 298.559 51.664C298.559 51.872 298.535 52.016 298.487 52.096C298.039 52.048 297.511 52.008 296.903 51.976C296.311 51.944 295.767 51.928 295.271 51.928C294.775 51.928 294.231 51.944 293.639 51.976C293.047 52.008 292.519 52.048 292.055 52.096C292.007 52.016 291.975 51.872 291.959 51.664C291.959 51.456 291.991 51.312 292.055 51.232C292.167 51.216 292.335 51.2 292.559 51.184C292.783 51.152 292.999 51.104 293.207 51.04C293.415 50.976 293.535 50.896 293.567 50.8C293.663 50.56 293.719 50.256 293.735 49.888C293.751 49.52 293.759 49.088 293.759 48.592Z" fill="#006FC3"/>
</svg>
